<mxfile host="app.diagrams.net" modified="2023-11-23T01:35:16.617Z" agent="Mozilla/5.0 (Windows NT 10.0; Win64; x64) AppleWebKit/537.36 (KHTML, like Gecko) Chrome/119.0.0.0 Safari/537.36" etag="qHHHh9gierSes6UBdQ6_" version="21.7.2" type="github" pages="2">
  <diagram name="Page-1" id="MBO2Rcb8f4Jtsk7QAFhP">
    <mxGraphModel dx="1282" dy="691" grid="1" gridSize="10" guides="1" tooltips="1" connect="1" arrows="1" fold="1" page="1" pageScale="1" pageWidth="850" pageHeight="1100" math="0" shadow="0">
      <root>
        <mxCell id="0" />
        <mxCell id="1" parent="0" />
      </root>
    </mxGraphModel>
  </diagram>
  <diagram id="C8CXod9TrGo3w3az9ldo" name="callflow">
    <mxGraphModel dx="1282" dy="1791" grid="1" gridSize="10" guides="1" tooltips="1" connect="1" arrows="1" fold="1" page="1" pageScale="1" pageWidth="850" pageHeight="1100" math="0" shadow="0">
      <root>
        <mxCell id="0" />
        <mxCell id="1" parent="0" />
        <mxCell id="SmOc1iF7wK7NT1QSRBLD-1" value="" style="shape=image;verticalLabelPosition=bottom;labelBackgroundColor=default;verticalAlign=top;aspect=fixed;imageAspect=0;image=data:image/png,iVBORw0KGgoAAAANSUhEUgAAARcAAALVCAYAAADqG6X2AAAAAXNSR0IArs4c6QAAAARnQU1BAACxjwv8YQUAAAAJcEhZcwAADsMAAA7DAcdvqGQAAAASdEVYdFNvZnR3YXJlAEdyZWVuc2hvdF5VCAUAAFL3SURBVHhe7Z17zCZFne/ffeMlrgYTkzWbqMmeLJw/lJAJMGTFREZBZDFOgJ1zklEUkMWc3T8kJmZ2NTthVhQVBcXLO9FjVC4LCAwXhxmuDrfhOgzjMAwXB5CBAWZnuAyILp5dtk79qrq6q6qruqu7n+6n66lvJ5+8T3d1VVc/b9fn+XU/3b9n7o03GANgjJx/6dXs1f/4LxApkAsYLSSXV/74nyBSIBcwWkgu+/7w/0CkQC5gtJBcXn7tTyBSIJcKfvvdw9ncaeudZWGsZ6fNfZ6tcy4/nH33t/z1b7/HPqhe68tLdcbLutPm2Ae/u8NZ1gWSy0u/f33KXMNOmvsbdtZWV5mPNnUasvU7bPGEt3HZKXNsbk6y+FvbzfIrT+XLT2WXlZZ51udALj5o0H/we+y3rrIG0MA7bZ293CeROOXyxhs72Hc/WN3vH/3oR4K6ZToklxdffX3KSFF8fYurzEebOlNmy3fY169Q83r/t7OvH8YFcsqpfNmp7Jfa+ovzeff+zv3XfzEGyjx67uHsg+fucJY14lEuKR79mMulRM59VF9WtTwC1n5eRHnOMs6pp56ay4Tm1Wtabq+rILnsfeU/pszV7LN84Hxti6vMR5s6Y+Ih9rXD7P7TPp3KLs3m7/3G37DF33goL7fnCY9cdrBzP1iESKetlcvX8k9htaw4kLIBsZbC+2J9GpxqXWOQ0mDLls/xU4a1WhunnUZ15DL3tmxc/Sz3p9h+VZkOtasPcv929D6717PbKurKZY7X3v652h/J/4Xq80jvUTXvQBdMnVgIksuefX90sI2dSZ+mWT8+e7lcfsnJWt9OVnXlQD/z8rPZodr6NBjUuod+Y1u2rotyfWP9B4rlc3OfY5fodR7oVv+zJ1Mf1TKb6m2491G+b/n2L/8cmzvsbHavs217u+YyalvfD3uecMhFHsDuQaewBwTfAXVg0ScYn8/ri3nzYM0HGi+T68k23Nu06uT4+mn1RwwaT1+NMh1aT/WZ4/xUtvtc8b7l+6mW6ftkv/b1b+z/F5rX3jMPSjB1YiFILv/+8h8sHmRnLuYD5KwHHWWKq9hnxMBTr/n7sPhsdg+VXcYHFJ/P64t5PmiM+jqu+mp9fTuyTLZbsX0hE73MV7+vfaR16bX6S8tMSNLlbVvrG226/ydluYgD2nOQZAeoRD+I7YPMMy/aVvUzxKC163Cc29Lw9rPcFn3aGlGNs0yH1tPazvrtF4Raxze4+LpqkKv5vK7vtSTv3+j/LyQ/a10LPWpRuNZTkFx2v/SayeZv8cH5OXaxvZzIBpXkMPbVzbT8Sj4o1OuQeZuK9UVf1PYyTrrSqlNu/+KT5thnLgut76NqGzXz2fsk+pC3RzzIvppJwlxOUBvm+37PWYdl/T6Mfeakw0r1wuViLNcPpKYHsWuAWHW829IIbSv7xHfLRS/TofXKbatTCmdb3v5ITInpdX2vCa1/vva975XdVsV86Hvp3ZZa17//SiYqYtFPkex1FSSX51/8vcn9NCBPYf9WuXwr+9fFh7F/vZ9eX8lO5Ae/fB0yb1Oxvq8vRh27PvVtjp34S/46qL6Pqm3UzP/yFHEciz7k7envmQtqw9VXyb9xYZrt/b7BaRF9YnlPNTwHbWmeXrvCbKtO0LY8/bS3YQyIqjIde+AUFBd6rT57+5NB27Kvh5T2qap/Y/6/ZPNGdGZCMrFPhVzLdEguz73wqsUWMTgP/doWc/mlfMAs/ia7k17f900+aPlAuY/KrpADS7wOmbepWp9eO/pStY7o2ynsony9uvo+7G34+uhal7av/mbr0Pv32Suy9V1Y6+vo7722Lc8FXXmwyZBHfeLKg1ss++DneZivH5i+g9YxLw7Kom13+N1kW0VbekQhL0Lqy+vKTIxvi4xTAV1Uel/UMrWe3bYuLL1u+bW/f672x/B/4dB7lMtzMpBcnt37igM6gIu+nngpLdvCVnHpiGWLT2Yn8k/hVfeqddXrkHmbmvXv/QY7ROsLDVBzHfn6xM+qUwjV39D6Psrb8PYxn5fv0SFcZrT8zq/xPi3+BrtTvdb7wVHrFW2czC405tW69nK5bY9cYsYeEKFlFjWfxK3gA9Ab2USNLs7JQXLZteeVyLmCfTobbO7y2WXuP/+TsdliPft7LpBzHmlaVuaRc3gE8ffrnWWgYO3f80+vHt4nksvT/75vIC7nEig+tdUn8vnOdZtA7XK53OMqC6GvfvUP5AJGC8ll5+6XI+cy9qm5xeyMe1xls80MygXMCiSXp55/CUQK5AJGC8kFxMvca68zBgAAk2Zux9N7GAAATJq5y391EwMAgEkj5PLH/8cAAGCiCLm89qf/BgCAiSLk8vvX3wAAgIki5OL6zREAAOiCkIvrN0cAAKALQi6u3xwBAIAuCLm4fnMEAAC6IORi/94IAAB0RchF/60RAACYBEIu+m+NAADAJBBy0X9rBAAAJoGQi/5bI5Lsd1By9N83scsyTr5KlN9zVvZDTPQbKvpPPVi/qaLXyTF+IIootqu3e0n2uvidlOo+uXHvo76dM40f2SraClkHgNQRctF/a8T87ZeM9x3DvrDqUna3qyzjfcd8ga26ZIv4TRZXOfG+//EBa9kh7ERex7td4pB/Znfzcle7h5y4in3/zE+VlitUn4z9820r28dzvf1/Hzvmu7It/z4W6wCQOkIuxW+N0G+TZAPlkBPZqlWrCn5wFvvfqkwMRFp+Ypa5nA+qL/CBfsNt4mcf8oHGlxXrEIew//ODH7FVJx6Sz5/IB/Rd+Xb/Z1ZnFfvCMe8T60hB/MrRrmz7o2IZx9unndr+1e3j+ezL+Xaob3p71JdVbN3j8ndnqtfRtwdAmgi5GL8/og+aix/wl/3gJrbdWPZDtm5H8XMDQgq07Gb6nRa5jCKNVVwmd6p6WbSQz1v8rzN/KAb996//ebndHaF9yvofso/iN1fkdvK+Zr+To5bpffGv85TWJgBpIuSifpsk/+0SNejz3yJxl134WTmg8mX5b7BkUcP1v2PPXnqyXCcbzBfeo9WjyOEHN7LrVNt2JJGtX/y2i9ZuaJ+y/lftR16e91Vux7XtC78bsA4t09sFIEGEXNTvjGw8Mxt4JAI+6B/iyy488xtso15Gg5LK9B9zyiTx0CW6SH7Irn3MqscH88Y9W9iqQ2U9EYX822Ztu3xwnrtZ9oe3dciZW/LXdrtGf6v6RPU1gvdRbId+cyZrL1v2f79Sv47qHwApI+SS/9bIPd9gi9RAUXzmcnbHdTeybfkALyMlcT+73RLJHf/+gCkSPpi3ab/DQqcQ5133pHu7VP7F80R5ud2svwF9Ov8z2TK+H3X7uKDWLSEjEup/yDrbVP8ASBghF+P3Rn5ybHnA8EFKZb84Tl9eXMQUkli/gZ2hi+T7N7Ct4jdb9HWeYDvvOcs4hbjgbtd2Odkpkrvdor+hfRLtZfvh3serinV1hNDoFO2H7FePPhCwTtE3AFJGyKX0myN3XZJf86ABc83DRdltF+nLN7Hzs/XOv4vKH2fXfF/On7fu8ayOvQ7n4RvYeWKZ2ba5Xc5Fm7IyV7sFoX0q2uPY+3j9WezgTBYkpqKMw4X2G1EnYB0AgEDI5XfPvQguOimLROSF5/PvbLkOAEAg5PLksy8kzy2rFktxiFOci9mtLdcBAEiEXJ7YtRdwtlz7g+wU53q2xVEeug4AYK+Uy+PP7AEAgIki5OL6tTQAAOgC5AIA6IWSXH7xi18AAEBrbr31Vr9cMGHChKntBLlgwoSplwlywYQJUy8T5IIJE6ZeJsgFEyZMvUyQCyZMmHqZmsnl4TXaE8Br2MPZ4u7Tw2zNqtXs9r3ZbPDkq0fLeR/X2D1su53u097bV5f68/CafvootpX/n8xt0DZXT+MNwJTcFC6Xvbez1bpQ+Pzt9rhoPfUhl9Vs9epVzBy7U5ILvXerb2fGZsWyNWzNars/eh+b91eKxRS/KbG97PbSNjFhmvwULheKWuwBMrGp7aD31cuWP2wP6rbb6TbRgLejBbWsXKb3sWF/7Q+AfLKEQv/LUsSECdNkpwanRXSg2yE1HbRWdJBLSBvgWXhO6+khe9FWeV1jO2LQyOWqHTn5Bl+x3DwNMNcXn+iq3bzRJv3mk9G3gIEtJm1ZKapRfaS/ql2O8SZTfce2KqRhvA+lbWLCNPmp4QVdKRM62IuxaB7QdBDL2WxwqIOY1uPz+QEu5tUAsdYVA1YNSFmWb6JUZg9cmvTlvtf6ZK/TpN9ae7zMEI+YaB1LBMbgtuVj98XVX7dchAA9cjEjJEefMGGa8NRQLtkkBrguEW2w5YPGHhhV83YZX6IkJbZlDgRTYK7BZy0nIYgKjuUkEoGvLxXz2ftQtMEpDW5a3+y/fSpkSkHfnrVt1/Y4RVW1n+XJ3KYtNEyYJj+1kwuf9AGhDlzzAK4YlGKqGETi4J+gXPL2tOVGu/pgs+tWzDv6Vp5ofX0dmi8Lwh0N2dtWkzty8ffHlondJ0yYJj81uKB7u3ZwysGai4QO6tI3H/bAqJqn11Z7xmDTPp1LZXqbanIsF/VoEGfL6VPeexqm162ap9dav52TNbD17eaTfD/LwrS3rSaPXPhE4jXbl20bEY34f9l9wIRpslPjC7r5J61+sPJJHNTGMntgVM3L12vWFBdNjaZyMRBVbarJvVxEW/nybNBRm4YYq/pJkzVv9I1jvS806REdvU8uGRWRoNm+eF897fomuZ9an4z+86ni9AkTpklNrU+L7Kk4VcFUmqYdKeQCJMlYkRQmTD1Nk5ELwuzaqYhMpjuVI0xMmPqZOspFnVrgkxATJkzmNLHTIkyYMGHSJ8gFEyZMvUyQCyZMmHqZKuVChQAA0BanXAAAYBJALgCAXoBcAAC9UJLLGV//DgAAtOa5557zy+XOB5+cOPSsi2s5AGA80LRv375ODC4XAMD4iVIuiFwAGD9RyqUNBxxwNttvv3PZO97xQ7b//j91rgMAmBxRyqVJ5LLffl9lc3Pf5vyYcxHnMs6VnLXs7W+/3llnOH7Gls4dzE6/1lUGQNxEKZdQ3vSmr3GJfJ898ABjCwuMv76Hcz9nc/b3fjY//xtn3WGAXMDsEqVcQiKXgw46l8vjR5wrM7Hs5OzlvMh5Kfv7PGcXP016yNnGnQ/ewk5fNMfXkSxdyJZfu5IdmC0zlitZrFielx244hZPW7RuMT+37GfZegDMBnVyOfnkk53LdUYZubztbXQaRKdAFK2QRF7nvMHe8hbG3v9+xo44gvFTJpLO6zx6+YOjDSmDQg4KKQVTNCr6yIShRLFAklnOzlGvSwJB5AJmlyq5kFgUrnLFVCIXFb34/r71rZfygX0T51HOa+w972Hswx9m7KST5CnSunWMffObjC1Zwth73/vfoo6BkEYmhprl5yxTsrFloc1n0Y4pK8gFzC4+uehiqRPMKCOXgw66ikvlbs6TnD+yD32Isa98hbGLL2biGsy2bYxddplc9qUv7Sq3MWm5ZOv+csXBvD++9QGYHVxysYViz9uM8poL8eY3P5DJZR975zsZO/VUGbWsXSu54ALGVq9+w1m32WmRkk29XAgSjGwXcgGzS5Vc6pYpRhm5KN71rse4XOji7Z/Y/vsz9ulPM7ZyJWPnncfYz3/uutaiI0VSXITNlmenOHJ5lUy0eXH9RdUpIh+KesQyXNAFM4ZPLvayquWjjVx0DjhgJ3v3u//Ajj76j2zFiued6wAAJodLLk0ZdeQCAJgOUcqlTeQCABiWKOUCABg/UcoFkQsA4ydKuQAAxk+UckHkAsD4iVIuQ6LuqFWUb6obB330M78HZ9FK9svsPp2p7v8Y+gCCGb1cKEqpw1XPZtNxj7O7PrmdbfjEFnbdMXexK478NVuyZIlzXYUaXPnNcw/+jJ0+wgO7j34qWeUDeRoDO9tmvl+QS1REIZeqqU4u2/9uN7v/+CfYHUsfYhuO3cxu+Nv72DVH38ou+eh6dsERV/sFo+7CHfudsz3103wGajqUpQligiaXMJowarlsOeFpdtsnt7G1R2/MRXLVURuEXC5cco1XLpWDy7j9n0OnDfryRQcbjwcsXaadsugSqGsnZzk7x7NurQSyT3uFHYkYfbXazKE+W1FDaR2O6INnPVHWYL/yUzKFow9t9k2Ug0GgySWMJoxWLts/9xy777gdbP3H76w9BbKRB3fAQ4X6Aa8Gij1IhVBUsijVZvbckpKNqkvz+YDzbF/bZmU/1SDLtmEM9HwAuiVlzxv7qb/mZUaEYZW55VK/XzRfilwcfWizb2AYaHIJowmDyEUcLBY0Kbm4/tIpEV1nufpjG1rKpeKAtD5xxQGvC4Kvow5qc7BkA0sNABtdLvanrWObVf0slen98wxO1dfSgNQGtt2ua2A722mwX7S81P+KPjTZNzAMNLmE0YTRRi4PnvAM28jlQtdYmsrFHiQ66sAWZfp6+gHO17MPallPyqXygHcMQu82A/rZZgAaUqC62nbsdo11rf4YZU32SysL6QPkMj5ocgmjCaOVy+bjdwq5XH/M3YZc5EXd29mao6oimiLnbX4Ai29hONrpjXHgNpBLvq6WfuHOhZVmWT4IzVMqs11fP3lZ1UCvGYDGutSm1lbl9q12DQk02q/qPnTZNzAMNLmE0YRRX9Clb4luPHaTEAx9BU3XX+g0iS7o1kczxcBR6Ae2mF+kHbhN5ELt54JRWOLRTx982xTlnn5a9ZzLW8iF5pU0xLKsP3Jdsy9GWeP90vLpUD+tPrTdNzAMNLmE0YTe5VKHq54OyeVaLhU6Pbr8yJvZxR9Z1/w0CXgpiQgAzujlAsZOFl3o0QgAnCjlEhKtgD7RTlcgFuAhSrkAAMZPlHLpErkg6gFgGKKUCwBg/EQpF0QuAIyfKOXSN4ef8dNg/mzxJ5xtSKz7T0Z54bOHPqr7TKgtcW+Ldm/PkExz2yBOufQduZA07nzlNbbh5VfZtS/tY5fufYn9ZPdedvau3eyfntrFTtnxFPv49h3sAw9s98slu2HMuPeDLzt9TPeC9NJH+U3SdO55oW1DJmMhSrn0Dcnltld+z254+RX+CfyGk0O3PsL+4t6tHrnIaGDcN5X11cdpDnDIZUxEKZchIpdf73uV/erFfUIkq5/fw87a9Tz74u+eYZ967El2xLbH2F9t2sbm77jfLRcREWjPDDnQb59Xt6nng2NBRhRURoNf3QFLGLewZ5GHLFPbk23IHDJymXNbAX0029dFlPVzhXbrvugXLS/WL5ZpA15r88AVK7Uyaz1jXr6u3idz28Uy97aJ+v1R5aANUcqlb0gu6/np0GX8dIjk8p1nd7MvP/WseK3487u3sPlb7vbLJfjahT2I+MGt6jqfpTElkg8cXqYPcPfg0OrU9lG2kw9AMTCtfipRVfXLmDfblNLUy6rr1e5TQBvN9we0JUq5TCJyqfpLcrnyhZfZ+Xte4AfZG+yMp59j//jE0+K1Yv62+9j8jbe1jlyUOCQhg8OaF9tQ9TNcn9a+bdX10VFO0YIcnFX9rOmzIbTAeqUyTtP3r/X+gLZEKZe+IblctOdFtsBPh0gk6nToIw8+xv6aToc2bmbzN29k8+tubnfNxTjQad2AwWHPe+Vg1fFuq0kfJaORS5v3r/X+gLZEKRcVZbQhpC7J5ce797Jv7dot5OJi/rpb2Pw113vkwsk+WY3Byw9w8U0MlalBJg76gMFRmqfXrlMFq453W1mZr49Z+3mZMTjr+lVVVrRpnhZZshN987TZ6v0ztx2+P6AtUcqlb0gu3+Zioessp+3YyZY+/Dhb/JtH2F/eu5XN376Jzd90B5tfexObX7POLxdCHMAqdOfkn9pyIMlly9nSNpGLq33naZFvW5429MjCKAvtV02fM6ER5gVds2xuGe+rt03/PuUXemsv6Ort1fQZtCJKuQwRufzLzmfZPzyxk53wyBPsQ1sfld8O0enQhrvY/PoNbP7q69j8FWur5QKqEYPdPFUBs0OUcukbEkYTXG2AekSUoUdKYKaIUi59Ry6gL7TTGQGillkmSrkAAMZPlHJB9AHA+IlSLgCA8ROlXBC5ADB+opRLU+ZumRPYr+uQN3n5brTS6XpfhK++vADqfqYGgHETpVyaRC5KJrfeemtpmb5emSY3VvUlF1WGb1VAfEQplyZUyUVfVsYe1JALAE2IUi6TilxayUXLtVKcrlhysG6pN57dse71kGV6fXrNy9Tj/6V+ABAHUcolFCURem2LRC9zUro1PRv0tQ/MyfXMB+RUme8aiqovy8syUvUBiIco5UKRi4pe6v4qiah5fRkJxx29uKIFXSAS5yP7judl8vUcZRJZ/0DvxVtXfwAYN1HKpQm6SKqWlXBGLrpc9ChjEnLhYuERSnE6pEDkAuIkSrnoUUgdreVSihYyAajIwhCFLh65Xn5qY6xXd1okRWSW2/0AIA6ilEsTJisXlSSa19cFoslBzAuhyHXMvCFqXVXmiHwyARVPC9v9ACAOopRLk8iFUDLRX1eLhbCEMTUgFxAnUcqlDSQTJRT9dRXmHbrTwHcaBcD4iVIuTSMXAMDwRCkXAMD4iVIuiFwAGD9RygUAMH6ilAsiFwDGT5RyGRL9R+CJsX5z00c/RXZ+ao/uucl+U2iq+z+GPoBgRi8XilLqcNWz2XTc4+yuT25nGz6xhV13zF3siiN/zZYsWeJcV6EGl36z3OkjPLD76KeSVT6QpzGws23m+wW5REUUcqma6uSy/e92s/uPf4LdsfQhtuHYzeyGv72PXXP0reySj65nFxxxtV8w6i7b0rM+I6Onfiq5FMIanrI0QUzQ5BJGE0Ytly0nPM1u++Q2tvbojblIrjpqg5DLhUuu8cqlcnAZt/dzjDQMNH+wcfu//siAIYG6dnKWs3M869ZKIPu0V9iRiNFXq80c6rMVNZTW4Yg+eNYTZQ32Kz8lUzj60GbfRDkYBJpcwmjCaOWy/XPPsfuO28HWf/zO2lMgG3lwB9z+rx/waqDYg1QIJXtmKG8ze8ZIyUbVpfl8wHm2r22zsp9qkGXbMAZ6PgDdkrLnjf3UX/MyI8Kwytxyqd8vmi9FLo4+tNk3MAw0uYTRhEHkIg4WC5qUXFx/6ZSIrrNc/bENLeVScUBan7jigNcFwddRB7U5WLKBpQaAjS4X+9PWsc2qfpbK9P55Bqfqa2lAagPbbtc1sJ3tNNgvWl7qf0UfmuwbGAaaXMJowmgjlwdPeIZt5HKhayxN5WIPEh11YIsyfT39AOfr2Qe1rCflUnnAOwahd5sB/WwzAA0pUF1tO3a7xrpWf4yyJvullYX0AXIZHzS5hNGE0cpl8/E7hVyuP+ZuQy7you7tbM1RVRGNOo3RDmDxLQxHO70xDtwGcsnX1R+MXFhpluWD0DylMtv19ZOXVQ30mgForEttam1Vbt9q15BAo/2q7kOXfQPDQJNLGE0Y9QVd+pboxmM3CcHQV9B0/YVOk+iCbn00UwwchX5gi3nKHqeWN5ELtZ8LRmGJRz998G1TlHv6adVzLm8hF5pX0hDLsv7Idc2+GGWN9yu7LkVQP60+tN03MAw0uYTRhN7lUoerng7J5VouFTo9uvzIm9nFH1nX/DQJeCmJCADO6OUCxk4WXejRCACcKOUSEq2APtFOVyAW4CFKuQAAxk+UcukSuSDqAWAYopQLAGD8RCkXRC4AjJ8o5dI3h5/x02D+bPEnnG2EYd2fMsoLoz30Ud2HQm2Je1+0e3+GZJrbToAo5dJ35ELSuPOV19iGl19l1760j1269yX2k9172dm7drN/emoXO2XHU+zj23ewDzywvb1cshvKjHtD+LLTx3SvSC99lN80TeeeGNo2ZDIUUcqlb0gut73ye3bDy6/wT9g3nBy69RH2F/dubSkXGQ2M+6azvvo4zQEOuQxJlHIZInL59b5X2a9e3CdEsvr5PeysXc+zL/7uGfapx55kR2x7jP3Vpm1s/o7728lFRATVP7am316vbmPPB8eCjCiojAa/ukOWMG5xzyIPWaa2J9uQOWbkMue2Avpotq+LKOvnCu3WftEvWl6sXyzTBrzW5oErVmpl1nrGvHxdvU/mtotl7m0T9fujyoGLKOXSNySX9fx06DJ+OkRy+c6zu9mXn3pWvFb8+d1b2Pwtd7eXS/C1C3sQ8YNb1XU+a2NKJB84vEwf4O7BodWp7aNsJx+AYmBa/VSiquqXMW+2KaWpl1XXq92ngDaa7w/wEaVcJhG5VP0luVz5wsvs/D0v8IPoDXbG08+xf3ziafFaMX/bfWz+xtv8cskGfn4Q0sHaJCrI6xMhg8OaF9tQ9TNcn9a+bdX10VFO0YIcnFX9rOmzIbTAeqUyTtP3r/X+AB9RyqVvSC4X7XmRLfDTIRKJOh36yIOPsb+m06GNm9n8zRvZ/LqbPXKh6xWaVLKDPP9UrLueYRzotG7A4LDnHYPFWce7rSZ9lIxGLm3ev9b7A3xEKRcVZbQhpC7J5ce797Jv7dot5OJi/rpb2Pw117e8oMvJPlmNwcsPcPFNDJWpQSYO+oDBUZqn165TBauOd1tZma+PWft5mTE46/pVVVa0aZ4WWbITffO02er9M7cdvj/AR5Ry6RuSy7e5WOg6y2k7drKlDz/OFv/mEfaX925l87dvYvM33cHm197E5tesay8XQhzAKnTn5J/aciDJZcvZ0jaRi6t952mRb1ueNvTIwigL7VdNnzOhEeYFXbNsbhnvq7dN/z7lF3pd70Wr/QE+opTLEJHLv+x8lv3DEzvZCY88wT609VH57RCdDm24i82v38Dmr76OzV+xtptcQDVisJunKiAeopRL35AwmuBqA3RHRBl6pASiIkq59B25gGmhnc4IELXETJRyAQCMnyjlgsgFgPETpVwAAOMnSrkgcgFg/EQpl76hr6JD6fZtUdX9Eq4y64LnJL5JUfeOUFviq98p3b8xzW2DXohSLn1HLiSN3vO5CBrIJbvBy323bFtoG1abg1G172AWiFIufUNy6TefiyJULjJimbwEpjnAIZdZJ0q5DBG5dM3nkt9mTqinoYksAqHlpdvbfWViec09H1pdohBRNoiRWwUMTJRy6RuSy+TyudgDrxgo5XwlnjIaaJXXV8y6cmCa7eaCE9dYQh7Iq+hPQD3kVgFRymUSkUvVX5LL5PK5ENnAKElCG1B1ZVUDyFEeli6goqyqP43a5Ljei6o2Wu8PGBNRyqVvSC6d8rkYg4Oul2iDpo1c6q65tB6MFWWV/WnQpu+9qGqj9f6AMRGlXFSU0YaQuiSXTvlc6JNaDUwxUPQBVUgi+LRItamVC3jbyK1iz4OxEKVc+obk0i2fixx84jTAzpGinSJU5SsplRFikGXtEnpkYZRVDT57EFesG9hX5FYBLqKUyxCRC/K5WBjRAwD1RCmXviFhNMHVxqwhogzjGgwA1UQpl74jF0BopzMCRC2gGVHKBQAwfqKUCyIXAMZPlHIBAIyfKOWCyAWA8ROlXPqGvooOJZVviwBoSpRy6TtyIWn0k88FN3yBdIhSLn1DcuknnwvkAtIhSrkMEblMPp8LicVeVq4HwKwQpVz6huTSXz4XRC4gDaKUyyQil6q/JJde8rlALiAhopRL35BcesnnArmAhIhSLirKaENIXZJLf/lcIBeQBlHKpW9ILn3lczFzmNj1AJgdopTLEJEL8rkA0I0o5dI3JIwmuNoAIHWilEvfkQsAoDtRygUAMH6ilAsiFwDGT5RyAQCMnyjlgsgFgPETpVz6hr6KDgXfFgHgJkq59B25kDSQzwWAbkQpl74huSCfCwDdiFIuQ0QuyOcCQDeilEvfkFyQzwWAbkQpl0lELlV/SS7I5wJAN6KUS9+QXJDPBYBuRCkXFWW0IaQuyQX5XADoRpRy6RuSC/K5ANCNKOUyROSCfC4AdCNKufQNCaMJrjYASJ0o5dJ35AIA6E6UcgEAjJ8o5YLIBYDxE6VcAADjJ0q5IHIBYPxEKZe+oa+iQ3F/WzThm+WMG/EAiIMo5dJ35ELS6JbPBXfiAhClXPqG5NItnwvkAkCUchkicumWzyWTywKdzsjb/Q9ccUtRLk5zsscA8gcczeUHrlipCUqXVfZ6RfHUtdE2ACMhSrn0DcmlWz4XEgAf+CEPLy4sz+Qg6yxdkMt/ueJgvh2fXHjb6tkkkdpBExQAIyFKuUwicqn6S3Lpls/FEgiHHlgU4jCilgwSBS1XMiq14XvtmgdgHEQpl74huXTK51Ia8PIp6UIujkgDcgEzRpRyUVFGG0Lqklw65XMRA167FmIIxSqz6oSdFkEuYPxEKZe+Ibl0y+ciB/zSZSQIeeqjpCGwT42M6ydyWe0FXcgFjJwo5TJE5DL1fC6+0ycAIiFKufQNCaMJrja6IjLWGddgAIiLKOXSd+QyHbTUmAJELSBuopQLAGD8RCmX2YxcAJgtopQLAGD8RCkXRC4AjJ8o5dI39FV0KO5viyZ874n4Whr3soC4iFIufUcuJA3kcwGgG1HKpW9ILsjnAkA3opTLEJEL8rkA0I0o5dI3JBfkcwGgG1HKZRKRS9VfkgvyuQDQjSjl0jckF+RzAaAbUcpFRRltCKlLckE+FwC6EaVc+obkgnwuAHQjSrkMEbkgnwsA3YhSLn1DwmiCq42uIJ8LiJ0o5dJ35DIdkM8FzBZRygUAMH6ilMtsRi4AzBZRygUAMH6ilAsiFwDGT5Ry6Rv6KjqUvr4twv0rIHailEvfkQtJo1s+l0kAuYC4iVIufUNy6ZbPZRJALiBuopTLEJFLt3wuHOMWf/25Ii4MXy4WrY55+z8A8RGlXPqG5NI9n4smBitnizsXiyxzP7gIQHxEKZdJRC5Vf0kunfK52A8m5kKxT3W0earjTbkAQHxEKZe+Ibl0yufifegQcgHpEKVcVJTRhpC6JJeJ5nMxlnvkktXBaRGYFaKUS9+QXLrlc+HYp0Z1p0U0783nAkB8RCmXISKXqedzASByopRL35AwmuBqA4DUiVIufUcuAIDuRCkXAMD4iVIuiFwAGD9RygUAMH6ilAsiFwDGT5Ry6Rv6KjqU/r4tsu+JASAuopRL35ELSQP5XADoRpRy6RuSC/K5ANCNKOUyROSCfC4AdCNKufQNyQX5XADoRpRymUTkUvWX5IJ8LgB0I0q59A3JBflcAOhGlHJRUUYbQuqSXJDPBYBuRCmXviG5IJ8LAN2IUi5DRC7I5wJAN6KUS9+QMJrgagOA1IlSLn1HLgCA7kQpFwDA+KFp8+bNrZmKXBC5ADB+opQLAGD8RCkXRC4AjJ8o5dI39FV0KPi2CAA3Ucql78iFpDH9fC5V2DfjATA+opRL35Bcpp/PpQrIBYyfKOUyROTSaz6XhaKMniWSzxGp2/7V80jldY20DYplK9npi4pnkgT0GIHxECQAwxOlXPqG5NJrPhc18LNniXKhOPK75OsKWak2y+3nOWI45yyzZAPAFIhSLpOIXKr+klwGz+dSmrfLdGm46mlSQtQCRkCUcukbksvg+VxK83bZLdrpj10mT60oAlJ/1XIApkWUclFRRhtC6pJchs/nYs9bbRjCsutl5YuW86jFWg7AlIhSLn1DcplKPpeSXA5mS5cVF3v16yh0ilS0qy3T5gGYJlHKZYjIZfr5XBzRSQ24kAvGRJRy6RsSRhNcbXSnoVzEaREu5ILxEKVc+o5cxkGoXOSFXuTbBWMjSrkAAMZPlHJJI3IBIG6ilAsAYPxEKRdELgCMnyjl0jf0VXQowd8WiftecNEVpEOUcuk7ciFpjDufCwDjJ0q59A3JZdz5XAAYP1HKZYjIpVs+F3XvicR+2FDP32Lcwm88MuB68BGAeIhSLn1DcumUz8XKryJx3RRHyzwPI+Y5YNS6AMRFlHKZRORS9ZfkMol8LqYcynIxngWyH3Qk8BAiiJgo5dI3JJdO+Vwy1OmPMweLHd0IueBUCMwOUcpFRRltCKlLcumWz6WgSN6ky0U/HVLQMlcOGADiJEq59A3JpVM+F5ELV53elK+p5LlYFEaeXG05TotAxEQplyEil+nncwEgbqKUS9+QMJrgagOA1IlSLn1HLgCA7kQpFwDA+IlSLohcABg/UcoFADB+opQLIhcAxk+Ucukb+io6lMl8W6TdYCfudTEfE3CuVypri/mQZdgP2Hfoh/MeIDCLRCmXviMXksaw+VxCB2vIeg0GfnbTnvFbR3zZ6bW/fdRSLvYjDkHbArESpVz6huQybD6XachF/+3pprSUC0Ut+G2lZIhSLkNELu3zuTgGrTaojFv/89v79cFqDdwsuqD1D1yx0igrt0V17WVmG/mpiB1FuDDq6fvk76NrPfmTtLQt2b/y81NZewv6vhbruN8zwpU3h+PaX9+6oDeilEvfkFwmmc/FSK2Qow/QqtdFXfmUtTaoa9tyzPO+iYFLA7AyijC3LQesaxt169kyKQZ58Z7I9cxnrPR90NdTy2U7XlGpump/rf8J6J8o5TKJyKXqL8mlUz4XcYCrT0z+Wh/EdJDTQBLog9DxuiSA8sCpbosjBqpaJ4MGmVheEbk4ygtJWn0MWU8rF2T98q1nCNm1n77+Z+2699clI9AXUcqlb0guXfO5qFQLRcoFvtwYEPTJqwaUPrisgeuTS1Bb9no68pO/iB4sHPUmKheOiMRENGGvp/XNt5++/fLur0RGfxX7DSZGlHJRUUYbQuqSXDrnc6GDfNFyHrVoBzp9AjtDf31w2a+LgWCcFgW1peY9n9hZRGAMNN6W/AbH3LY5aP199K/HWeBt5/2SApH9svqot+HdT70+zSusthwYwge9EaVc+obk0imfi0Ae/OZ5fraMH/xzQjwuIdgDsjglMC/o+tqSkYNYrrYtBmW2TF/uKtMjJaNM65Pdx9D1soGfbyvvh1xPXviVZYXw/Ptpt2cKrlgutqO9j7i/ZhiilMsQkQvyuQyJLSEwC0Qpl74hYTTB1QZoAuQyi0Qpl74jFzA0kMssEqVcAADjZxC50EW0Sf792AmfDVqv7d87L3sbm/vnR/AXf/G3w9/e5ZIP2IigNwYA0I3e5eIavF3p+7qJ640CADSjd7nEHrkcvuF18SapaccGyAeAEGhySSOU3iMXilLqcNWz2XTc4+yuT25nGz6xhV13zF3siiN/zZYsWeJcV705n39IvD9s/aXqDXuWfQ9yASAImlzSCKX3yIXkUTXVyWX73+1m9x//BLtj6UNsw7Gb2Q1/ex+75uhb2SUfXc8uOOJqp2DEm/O9F9gO2sBDz5beNABAPTS5pBHKIJGLPpGs9KlOLltOeJrd9sltbO3RG3ORXHXUBiGXC5dc45WLOh0qohYNJR417XmBHa4v3/O6Vv46W/+Qdmqly6qunXx6lX3ety4AI4UmlzRCGTxyaSKX7Z97jt133A62/uN3ek+BXNAbI0+JXmff+577jcu59FXRD3EtJpeLHPj59RohlCfZ9/bQjGrzWbY+L+Pzqi7N5yLxbF/fpl0GwEigySWNUAaLXEgqNjQpubj+0ikRXWe5+mMbWsrFE7kQViRhyCUThpKLkoAhrEwQpUmXix2duLaplwMwImhySSOUUUcuD57wDNvI5ULXWJrKpSo6UOIRZa7IJUAudpmBQy7eber1ABgRNLmkEcqor7lsPn6nkMv1x9xtyEVe1L2drTnKHdHIN0edxtjfFnG00xtDEk0ilzwKeZV9XrTNufQFsyyXi3lKVSkmAEYCTS5phDJ45GJPVXIh6FuiG4/dJARDX0HT9Rc6TaILur5opniDCsGoSY8caNqxp6VcqP1cMGqyxKOfFvm2qcoBGBk0uaQRyiCRSx2uejokl2u5VOj06PIjb2YXf2Rd5WmS640CADSjd7l0jVymgeuNAgA0o3e5uAZvV0KilS643igAQDN6l4uKXGL7G/pYOf7iL/66//YuFzFQJ0zfkQsAoDtRygUAMH6ilAsiFwDGT5RyacMBB5zN9tvvXPaOd/yQ7b//T53rAAAmR5RyaRK57LffV9nc3Lc5P+ZcxLmMcyVnLXv726931pkdQrPqI/s+mDxRyiWUN73pa1wi32cPPMDYwgI9OnAP537O5uzv/Wx+/jfOurMB5AKmR5RyCYlcDjroXC6PH3GuzMSyk7OX8yLnpezv85xd/DTpIWcbxk+JctTPheY/l0pYP0l6+kLxU6K0vvrhc8L4fWLjJ0fN31aWP2sql7m35cLuK7VVrltuz72eu38usv1eof/sbLGf/b1X7v8NGA9RyiWEt72NToPoFIiiFZLI65w32Fvewtj738/YEUcwfspE0nmdRy9/cLQhD97qHyzPBon4xM8Gqfqt5ey3ifP6Yt6USB4p8DK5nmzDvU2rjg21X5JPVR29zF7Pms/7p8p1aF2+32rbxn7a6+nb6/he0Tql/QVjIkq5UOSiohff37e+9VJ+gN7EeZTzGnvPexj78IcZO+kkeYq0bh1j3/wmY0uWMPbe9/63qGMgPi09n9jZYJAEDlB93v6hdEIMFLsOx7ktB1mbpgRC27PW8/YvKzeo2E+a7+u9cu4vGBNRyiWEgw66ih+Id3Ports/sg99iLGvfIWxiy9m4hrMtm2MXXaZXPalL+0qtyEOXodcjOUU3bQdMHWf7hzvtvyoUwt5mhDaXtV6dYTu56TfK4m5v2BMRCkXFZ3U8eY3P5DJZR975zsZO/VUGbWsXSu54ALGVq9+w1nXe1pEn8QqnBcHfosBI167PnWtOt5tVUMDTrYd2p6rr6FRgatuNt/re1VQ7K+7HEyHKOXShHe96zEuF7p4+ye2//6MffrTjK1cydh55zH285+7rrXoyANbhePy01FKRyxbtJwtbfNpTPNisBVtu0+LfNtyYJx+FJ/0+QVV0b6/PXM9vszZv2xbBlX72eN75dlfMB6ilEto5KJzwAE72bvf/Qd29NF/ZCtWPO9cBwAwOaKUS9rQp7r2KT7YJ/e0tgtiJUq5tIlcAADDEqVcAADjJ0q5IHIBYPxEKRcAwPiJUi6IXAAYP1HKZUj0h+kI3KwFQBijlwtFKXW46tlsOu5x8bvRGz6xRfw42hVH/rryt4sIdWNZcWv5z9jpkAsAQUQhl6qpTi70Y/T3H/+E+OXFDcduzn7K9Vbxi4sXHHG1XzDqrlDvnakAgCpockkjlNHLZcsJT7PbPrmNrT16Yy6Sq46SP+d64ZJrvHKpfCDOvh3deH6G5g/WylV+lmxel1VdOznL2Tm+dQEYKTS5pBHKqOWy/XPPsfuO2yF+H7ruFMhGnhLpz7t4yJ5xEddicrnIgZ9frxFCUc/Z6M/XqDI+r+rSfC4Sz/b1bdplAIwEmlzSCGUwueSf2Bo0Kbm4/tIpEV1noR+ebyeXikf5rUjCkEsmDCUXJQFDWMaDdxq6XOzoxLVNvRyAEUGTSxqhjDpyefCEZ9hGLhe6xtJULlXRgRKPKHNFLgFyscsMHHLxblOvB8CIoMkljVBGLZfNx+8Ucrn+mLsNuciLurezNUdVRTRFugDz2yKOdnpjSKJJ5JJHIdrDfwsrzbJcLuYpVaWYABgJNLmkEcroL+jSt0Q3HrtJCIa+gqbrL3SaRBd066MZLR9Jhh45iPlFLeVC7eeCUVji0U+LfNtU5QCMDJpc0ghlELnU4aqnQ3K5lkuFTo8uP/JmdvFH1jU/TQIANGL0cgEAxEmUcgmJVgAA0yVKuQAAxk+UcukSuSDqAWAYopQLAGD8RCkXRC4AjJ8o5TJ6SvevWPes2OCOWzCDRCmX0OiD1qvDVc+mcS4Y+yY4dQNcdnNdiUnIJWvD+ywUAAMTpVxCIXlUTXVy6ZwLRslFzfvkMgHUs0eQCxgLNLmkEcroIxd9osGnT3XttM0F44tcjEcEcpazc/Jy87mlUlt23ax9JZYcJTHP+kZfAegJmlzSCCWqyIUGmD5VyaVLLpiyQDilAa8JRJePdYqknk8qRSTWeuXIpSJfjGoDgB6hySWNUKKIXGjQ2dBE5aot+6+dC0YtD0INZFek4CozRJFJQZSrBye1J6ctcXnlkrVZAnIBA0GTSxqhzGzk0ikXTCe5aE9PL2TrZkJQAhHr1UQuSMsApg1NLmmEMrPXXDrlgukoF7WOTK2gTp+qc7qUTp/Udlz5YtQ8AD1Ck0saoUQVudhTnaRa54LpKhc9j4xjPbFuKadLdjpFlK7vKLTrPAD0DE0uaYQy+silDlc9HeSCAaAdUcoFADB+opRLSMTho0tdAEA4UcoFADB+opQLog8Axk+UcgEAjJ8o5YLIBYDxE6VchkTdnKbAHa8AhDF6uVCUUoernk3jnCwc18OAp0MuAAQRhVyqpjq5dM7Jggf9AGgFTS5phDJ6ubTNyeJNdUDYt9WrW/TzW/sP1soPZkuXaadWuqzq2slZzs7xrQvASKHJJY1QRi2XLjlZ8ieT657F0Z8LyuUiB35+vUYIxXzwsDLfSi4Sz/ZLzyIBMD5ockkjlMHkkn9ia9Ck5OL6a+dkUW2GUL7eYmFFEoZcMmHYTy4bwtIeQjTQ5WJHJ65t6uUAjAiaXNIIZdSRS6ecLBXRgRKPKHNFLgFyscsMHHLxblOvB8CIoMkljVBGLZdOOVm0tAfmt0VmnltDEk0ilzwKceRbKcmlOpcLAGOEJpc0Qhn9Bd3WOVkEWl6VDD1yEPN6XpUmcqH2c8EoLPHop0W+bapyAEYGTS5phDKIXOpw1dNBThYAhmf0cgEAxEmUcgmJVgAA0yVKuQAAxk9yckHUA8AwJCcXAMAwJCcXRC4ADENycgnh8DN+GsyfLf6Esw0AUic5uYRELiSNO195jW14+VV27Uv72KV7X2I/2b2Xnb1rN/unp3axU3Y8xT6+fQf7wAPbB5YLPeyo3YQHwIhJTi4hkFxue+X37IaXX2Fzc284OXTrI+wv7t0KuQDgITm5hEYuv973KvvVi/uESFY/v4edtet59sXfPcM+9diT7Ihtj7G/2rSNzd9xf4VczEcH5PNJUg4yv0v2TJHxCEDxnJF6UFEgHifQfq41X+avD8C0SU4uIZBc1vPTocv46RDJ5TvP7mZffupZ8Vrx53dvYfO33O2RixRL+dkfKYhiuRWJLCz31FHrWOsH1QdgOiQnFxW5VP0luVz5wsvs/D0vCJGc8fRz7B+feNqQy/xt97H5G29zy0VEE64owpJB6cFFjopItAcVi4cdG9QHYMokJ5cQSC4X7XmRLfDTIRKJOh36yIOPsb+m06GNm9n8zRvZ/LqbJyAXx3rGcoqCquSCUyEwTpKTi4pQqiC5/Hj3XvatXbuFXFzMX3cLm7/m+hanRZocxLxjPYpaVLoFIRCPXHz1ARgBycklBJLLt7lY6DrLaTt2sqUPP84W/+YR9pf3bmXzt29i8zfdwebX3sTm16yruKArB746XdEv6BZy4Ah52Kc12sXgRcvZ0jxy0S70Oi/oassBmDLJySU0cvmXnc+yf3hiJzvhkSfYh7Y+Kr8dotOhDXex+fUb2PzV17H5K9ZWyAWAtElOLiGQMJrgagOA1ElOLiGRCwCgO8nJBQAwDMnJBZELAMOQnFwAAMOQnFwQuQAwDMnJJQT6KjoU57dFxo1vNo57XQCYQZKTS+h9Lv3lc4FcQBokJ5cQSC795XOBXEAaJCeX0MilWz4XSyDaLfoHrlgJuYAkSE4uIZBcuuVz0eVCr4sfs5e/Hw25gNknObmoyKXqL8mlUz4XXS4Uteg/KI/TIpAIycklBJJLp3wukAsA6clFRShVkFy65XPRBUKvcVoE0iM5uYRAcumWz8WKTrSUlbigC1IhObmERi7I5wJAN5KTSwgkjCa42gAgdZKTS0jkAgDoTnJyAQAMQ3JyQeQCwDAkJxcAwDAkJxdELgAMQ3JyCYG+ig6l+tsi88fo8x86AyABkpNL6H0unfO5ZE9Cqztz1bLT9XkAZpjk5BICyaVbPhcZsRhiASAxkpNLaOTSKZ+LiFqqfyA+/1lWIv8J1uyxgQUZ9VAZCUo+jyTnjd+FzqIjWaa2J9tYuozqyGXubQHQL8nJJQSSS6d8LqUnoasoP+SYX5vJnknKhSLmTYnozy/J9WQb7h+nt+oA0CPJyUVFLlV/SS6d8rkERC76w4zFU9L24K+YN6KWDBGVOATi3BYA/ZKcXEIguXTL51JzzcWQD62rBnxTubgEZtXxbguAfklOLipCqYLk0i2fCyeLFpzfFlGZOvURg18N+AZyEa9dpz9WHe+2AOiX5OQSAsmlWz6XDDGYtdOW/DqMdv/LouVsaZvIxdW+87TIty0A+iU5uYRGLsjnAkA3kpNLCCSMJrjaACB1kpNLSOQCAOhOcnIBAAxDcnJB5ALAMCQnFwDAMCQnF0QuAAxDcnIJgb6KDqXbt0XaPSjiPpTQ55EAGD/JySX0PpfO+VzqyG6AQ74XMKskJ5cQSC7d8rnUISMW5HsBs0xycgmNXDrlc6lDRC3VT00j3wuIneTkEgLJpVM+lzpo0AdfX9GfFaLXXACqbvZwJPK9gDGSnFxU5FL1l+TSKZ8LkQ38fLCTUFRUEBC5FPUJXS764K+YN6KWDOR7AQOSnFxCILl0z+eiSSUbuMU1lpprLoZ8aF014JvKxSUwq453WwB0Izm5qAilCpJL53wudWTRgvPbIipz5mBpIBfxGvlewPRITi4hkFwmks+lDjGY1ekIJ78OIyMbuQz5XkCcJCeX0MgF+VwA6EZycgmBhNEEVxsApE5ycgmJXAAA3UlOLgCAYUhOLohcABiG5OQCABiG5OSCyAWAYUhOLiHQV9GhhH1bpN1bghvVQCIkJ5fQ+1wmm8/FvnEtVmZlP8AQJCeXEEguk83nArmA9EhOLqGRS+d8Ltqt9weuWKkNSn2Aarfec+wHG0vLrdv5i/WzNlcUTzcXzxRVldlt6g862n2gdop55H0BdSQnlxBILt3yuciBqAa/TObkkAs9NFgapHJQux84tEWjt6kNePFQpBJFXZlqQ5bJ7Vb1QVsfgAqSk4uKXKr+klw65XOhgW8kg9IHpfY6ixrKkYQjVYJjOWWQk7KxB71ne3ZZtv08GlES8vWh1BYAfpKTSwgkl075XGhwhsglK1dpKoUoBpdL2LYk5b4D4CM5uagIpQqSS7d8LjQIA06LtDq0Tv0piX1apARgt6nP15W5toXTItCd5OQSAsmlcz4XcW1Dnmp4L+hq65gXU+WgV2WmUNRynzDs+aoyjtEmJ78G5O5Dnsy7dK0IAJPk5BIauSCfCwDdSE4uIZAwmuBqA4DUSU4uIZELAKA7yckFADAMyckFkQsAw5CcXAAAw5CcXBC5ADAMycklBPoqOpRxf1tk3qtClG+M65tyH/L7dupQ9wGpu53teTBqkpNL6H0uk83nMhQ1N8xNBasP3kcLbKSUChHZ82DsJCeXEEguk83nMhQRyCW4T2PcF9CE5OQSGrlMMp+LvLXfel6HQvw8vM8GzkJRxzh9sW7RNz/ND2ZLl8kHHw3E7fm+AanXk1FEflt/XrdYT+8XbVs9aEn4++l57on2226/JBD6q9pRj0/o89k2K7ZX7Jt831VdRD7DkZxcQiC5dM/nYg4oOSBoOR3w6q++Pj/4lWzEoFH1ZVk+KBxlxQCneXuwFgOrGFx2PR29jay+dc0jryfm/RIp9lnvg73fdn/1bfvKHPPW9ow+4jmoqZCcXFTkUvWX5NI5n4sxoDjqAM8GqPkJag8cLZ2CaEsfkKGpFlzzFcuzfklUWYP2vfts1SnJ0dd+VRmn0fZ8IgV9kpxcQiC5dM7nYgkhJ0guMpQfTC7GNmjbqqxB+959tuto+1bZflUZJ3h7EiNnjrYc9EdyclERShUkl0nkcyl/WtJyGhDqr2d9Y+DIsnxQlMoqBmBp3rOchOc9JQttn1779lmrY7Svi4YjxKu359uWmg/YnkaRM6dcBiZPcnIJgeTSOZ+LGER6yL5SDCR1cItPUuuCrn5h1viENdqqGnB2vhXfQLOXaxc9Fy1nS9tELjRf2mfVB22Z3R/9dGwZ33ZeXrdtjnd72nrG6Z4r0gF9kZxcQiOXYfO5OAYOAJGTnFxCIGE0wdVGMyAXMHskJ5eQyGV4IBcweyQnFwDAMCQnl3FGLgDMHsnJBQAwDMnJBZELAMOQnFxCoK+iQ5nMt0UtMW5IA2BcJCeX0Ptc4sznAsB4SE4uIZBc4sznAsB4SE4uoZFL13wu7vwohHarPcd8Zkgu8/78q6ivz5df6zlazNvjces7GJbk5BICyaVbPhcdXQBSLO6H7QrRyCd428hFb9uqt6DynWTzAPRMcnJRkUvVX5JLp3wuhPHAXDbIRSThiCBoef4QI+ETSFWZtZ4RtWQYERQA/ZKcXEIguUwunwtFK9mgH1wuOBUC0yM5uagIpQqSS6d8LhS1OPOjtDktknXqc55YcsnaxKkQmBbJySUEkku3fC7aRVsjPwohB706VTGlIZeZF3TNMn/OE1suHCG2Yls4LQJDkpxcQiOXYfO52DhEAUBkJCeXEEgYTXC10Q3IBcRPcnIJiVymD+QC4ic5uQAAhiE5ucQRuQAQP8nJBQAwDMnJBZELAMOQnFxCoK+iQ+n2bREu3ILZJTm5hN7nMkw+F8gFzC7JySUEkssw+VwgFzC7JCeX0MilWz4XKY363CqWXJzr+HLDaI8YcFx5YZDDBUyT5OQSAsmlWz4XkkZIbhV9uW+dbN5uh543Kj0rFNIGAMOQnFxU5FL1l+TSLZ+LNcjtBwgJIQZtPe86vEx/cNFa35BHVRsADExycgmB5NIpn4tTLq5TFFsujnWM5VpumKxcpmfITou82wFgeJKTi4pQqiC5dMrnYstFzPvyuKj1POtQ1OLMDVNAgpH1fNsBYHiSk0sIJJdu+VxsuXCEGOzTFWs95zqe3DDGqZIWrTjbyMoAGJDk5BIauUw3nwsA8ZOcXEIgYTTB1QYAqZOcXEIiFwBAd5KTCwBgGJKTCyIXAIYhObkAAIYhObkgcgFgGJKTSwj0VXQo4/+2yHHPDQADkJxcQu9zGSafSyhdBAG5gOmQnFxCILkMk88lFMgFxEdycgmNXLrlcyFC8q1oy5UEVhS39evPC6ll+mMD/nwxjnaFXDx9AqAHkpNLCCSXbvlc5CB2P6hoi0YN/Ewi6lkg8eyQemZIF0SxbtF+XbvZa2oTzxqBgUhOLipyqfpLcumUz0UMbkfqA8dyyjInpeASiEMQpTJOaLtiPTw1DYYhObmEQHLplM9lrHLJyowcMFodACZJcnJREUoVJJdu+VyanBYpKVQJpKpMzYe2KylywJjLAZgUycklBJJLt3wuhBzwpYunYuCr5XXCKObzJN3aBV1DGCHt+nLAANADycklNHJBPhcAupGcXEIgYTTB1QYAqZOcXEIiFwBAd5KTCwBgGJKTCyIXAIYhObkAAIYhObkgcgFgGJKTSwj0VXQo0X1bJO6Hse6RAaAHkpNL6H0u48rn0gXHDXcADEBycgmB5DKufC5dgFzAdEhOLqGRS7d8LtmAXihuyTfTIzTMxeJsx65nPksk2y/aFLgeHXC2gbwvoDvJySUEkku3fC40gPnAdP6AvCwzZWM/e2Su629Hk8TC8qxNV/vaesa8pw3kfQETIDm5qMil6i/JpVM+l9KArkiBIIRhPkRYlS4hLzMijgznQ40V8742suVGlARAQ5KTSwgkl075XEoDWp5mdJeL1o6jnqRCJva8tw0J8r6ALiQnFxWhVEFy6ZbPhQaw9slvDGLXYNcGcGndqnZc0YWrfd+8r40C5H0BbUlOLiGQXLrlc5EDWL+oWnz624OdI6ShTk3KInC3Y9fjeHK9VOaCcbWBvC9gAiQnl9DIpVs+F4dAWjGpdgAYnuTkEgIJownlNiAXAJKTS0jk0h3IBYDk5AIAGIbk5DJM5AIASE4uAIBhSE4uiFwAGIbk5BICfRUdivvbIgBAcnIJvc9l8vlc8M0PSIvk5BICyWXy+VwgF5AWycklNHLpls/FzodCYinm9dvw/Xlditvu89v387q0PJOVluuFHg1QDxsSxTNByM8Chic5uYRAcumUz8WZD8WOXKRwCgFY5Xl+FrW+vY6sn+d6yZ4HyuuI+UxQzv4A0C/JyUVFLlV/SS6d8rlkEYgpB5dctHn7AUJCCSETh0SXS0V7+ryzPwD0S3JyCYHk0i2fi8TMhxIiF8cTyMZyOr1RdRrIJWsL+VnAkCQnFxWhVEFy6ZbPpaDIhxIiA0d0QVFLSJrL2nkJ8rOAoUhOLiGQXDrlczFOYxwXZrULusbgt0+NxHraxdhFy9nSNpGLpz8A9ElycgmNXLrlcwEAJCeXEEgYTXC1AUDqJCeXkMgFANCd5OQCABiG5OSCyAWAYUhOLgCAYUhOLohcABiG5OQSAn0VHcpsfltkPuiY38TXBXWvDbVl3Aw4MNPcdmIkJ5fQ+1wmn89lmrjv1nWS3chn//ja6Z0eGaDtT+uxgwb7DiZKcnIJgeQy+Xwu0yR0gMmIZfISmOYAh1ymRXJyCY1cuuVz4Wi38h+4YqV5gGtlxe342SBYUdyqbzwDVFFHzwlTzv1C69jLPO2JZTWPBxj1dBH5+m9u3/mcldam+V5Z6xnz8nXzffdvm6jfH1UO6khOLiGQXDrlc8kOanWgyqeRPQNmQeVtyQaCGvziGoUpEV8d90Gv17Hq+9qjgVZ5fUVuLx+AYmDq2wjsvzFvtln5Xjnqddt32Ubz/QEhJCcXFblU/SW5dM7nYgxS7YC2PikFrk/UVnU4YhCo9fSBoq3na08srxhAjnKKFuTgrOh/VRm16XuvGrXJCdl3fb71/oAQkpNLCCSXTvlcqgaMdwA3GwTOOsZ6FblfvO3VXHNx1BuNXEL3XZ9vvT8ghOTkoiKUKkgu3fK50IFYDNJyqO8K56sO5sA69MmtBqoYOHp9u23PKUX26W8Ihrclvy2S9fIyY3C6tlG1fb3M915ZshN987TZaN/1sjb7A0JITi4hkFw65XMhtBC9+oIup+60KLiOHIyi3Mj9ol3sFPV87WXt2GV6ZGGUVfTXmK/Zt6r3SiubW8b3ydtm6L5b9VrtDwghObmERi4TzeciDmAz/AYe8F7NDMnJJQQSRhNcbeiIT07jugLwgfdqdkhOLiGRS3e0EF2AT2I/eK9mleTkAgAYhuTkMkzkAgBITi4AgGFITi6IXAAYhuTkEgJ9FR1KyLdFE0Hd70HfpIiva3HPBRg3yckl9D6XceVzoRu4rLtmARg5ycklBJLLuPK54O5QEB/JySU0cumcz8W6f8N8fsWxXAlkivlQzL7hfhPQjeTkEgLJpVs+FykW94OGtmj0wc4HtXrGR1xjUQO8ThJFm+3zoVjr8u07H2wEIJDk5KIil6q/JJfO+Vxcn/yO5WGP+FeUUZvG7fKB9ewyI2rJ0B9mBKAhycklBJJL53wuUcrF0WcAWpKcXFSEUgXJpVs+lyanRWpANxBBqcx3WiT7kW9PnGpVtenqMwDtSE4uIZBcOudzyQarOsUwhaKW+4Rhz1eVcbScJ+3zoXCMvtH6OC0C7UlOLqGRy0TzuQwJTm/ASEhOLiGQMJrgamNaIB8KGAvJySUkcokL5EMB4yQ5uQAAhiE5ucxe5ALAOElOLgCAYUhOLohcABiG5OQSAn0VHcrYvi2S0D0s+kVe7T4bAAYiObmE3ucyrnwuCseNb05cN9mN4Vuk0P6DWSA5uYRAchlXPhdFS7mMZlBDLimRnFxCI5d+8rnIwRWSQ0XcDKeW5z9Dai/z1bcGMUUu+o11nm3qy8Pzwpj1ivbs/ff0H8wsycklBJJLn/lcmuVQ0dex1vfWl9txD+TqOu4HIKu262mPhFYSiN0OmGWSk4uKXKr+klx6yediDy7jE98SAQ3OfLlnIHvra+vZffHVoeVtUjdUtcdfm7K02wGzTHJyCYHk0ks+F3tw+dYzllMU5BnkgduhKCQf5FXbbC0XVx8kMgIyTwuLdsAsk5xcVIRSBcmlv3wu9iB1rEdRixroYvBWDfLQ7eht+Or4Tovk/uRfZ4uoqq69gkJudr/ALJOcXEIgufSTz8UxuIQ8rFMK/WLoouVsaR65aBd61emTs355O0IWhrDsOny5dioWnhfG055xWldENqX+g5klObmERi7R5nOZGIgyQDeSk0sIJIwmuNqIH8gFdCM5uYRELoCAXEA3kpMLAGAYkpMLIhcAhiE5uQAAhiE5uSByAWAYkpNLCPRVdCjj/baILsiq+0wk+U1wAAxAcnIJvc9lnPlcmmB92yNuavPfpj8c+BYqFZKTSwgkl3Hmc2mCPYjHMqghl1RITi6hkUvnfC7aLfHdc6NMoA5FLsjpAgYkObmEQHLpls9FDiL3Q4BVg9Qq40JwP/AXWsc3kKvrTKzfJLSSQOx2wKySnFxU5FL1l+TSOZ/LJHOjdK0j1nFHJ0adSfc7Wy7F5aiXLwOzSHJyCYHk0jmfS+tBqknAWd+aD6xTpD3g8746E++3REZAFU+Gg5kkObmoCKUKkku3fC40gHynF21yo7SpYw9ifb6qziT7XVDIze4XmFWSk0sIJJfO+VzE4JOnCJ1zo7SqUx7EQhYqMgnYDnK6gC4kJ5fQyGWy+Vxi/bRGlAHak5xcQiBhNMHVhgnkAtIjObmERC6TB3IB6ZGcXAAAw5CcXKYTuQCQHsnJBQAwDMnJBZELAMOQnFxCoK+iQwn7tgiA9EhOLqH3uUw+n0vbb17wjQ2Ik+TkEgLJZfL5XCAXkBbJySU0cumWzyUsj0l+G7y2TMlk6TL5sJ8BbpcHEZGcXEIguXTK50LP1JREUBWB6GVSRMVDgFX1ABgvyclFRS5Vf0kunfO5GIIgHJIwHuzT5aKvB7mAOElOLiGQXDrlc8mozGMiBKSeFKbTKMgFzBbJyUVFKFWQXLrlcynw5jGhqMVIfwC5gNkiObmEQHLplM8lKI+JdtF30XK21Bu5IP8JiJPk5BIauUw2nwsA6ZGcXEIgYTTB1QYAqZOcXEIiFwBAd5KTCwBgGJKTCyIXAIYhObkAAIYhObkgcgFgGJKTSwj0VXQo+LYIADfJySX0Ppfx5HMBIE6Sk0sIJJfx5HMBIE6Sk0to5DJEPhf7J1Dz32FWIlooyqt+hxmAMZKcXEIgufSfz0UKJxdK6eFFLhXng40AxEFyclGRS9Vfkkvv+VzEOsVDjQQ9oOhMz2CUARAHycklBJLLsPlcJH65yNMsyAXERHJyURFKFSSX3vO5iHlNGIZsZFke+ThEBMDYSU4uIZBc+s/nwpdlp09yPVs8ZpJuRC0gNpKTS2jkMt18LnaUA0B8JCeXEEgYTXC10Q3IBcRPcnIJiVymD+QC4ic5uQAAhiE5ucQRuQAQP8nJBQAwDMnJBZELAMOQnFxCoK+iQ+nn26IhMB+uzJ9jGgRcsE6B5OQSep/L5PO5TAvHQM5u3jNuzOPLTh/sRr0QuUBAsZOcXEIguUw+n8u0sAfpGJ5TglxSIDm5hEYu3fK5yIEhb9/Pbv83bvXXnhPSlh+4YqU2oOzBZc072wvIIyPq1TynZLStiyjrg5ZnhsrUA5pE8SR4ed1SmXdfHP12rpfVB6MkObmEQHLplM8lGxzewbSwPCuT66nBKwepWs+qY8x72gvJI0MDtPL6itknOaD17fKBrepnz1Dl+ynm1aC31i21U7Mv9nLveqocjI3k5KIil6q/JJdO+VzsgWB84maoKMIY6BWDTp+vao+/Ngedqy8Vn/qOcn8qiKp5u8zTjm9f7Pre9bJyMDqSk0sIJJdu+VxcA8MxoGl5a7n4BVGZR6bumouj7cnIRd+uVubdF6t+zT6D8QG5OCC5dMvn4hp0dkRRLFcD3TwtsiQgTjlUma+9An8eGU52OmMIhg9e+W2R2SdzUNttVc3LdvI+etux1stxtV29z2BcQC4OSC6d8rmUBgZHDC5HSJ8NdMK8oGuWzS1bbpa52tPX1z7lS3lkXPX1CMooswd46Lx87c5JY9XzvDfV+W+05WCUQC4OSC7TyediD9aYmaV9AW2AXByQMJrgaqMdkAuYHSCXUQG5gNkBcgEA9ALkAgDoBcgFANALkAsAoBcgFwBAL0AuAIBe6F0umDBhSnciQXShUi6uCgCA2QdyAQD0AuQCAOgFyAUA0AtTl8stt9yS4yoHAIyHJuN1qnJp0lEAwDgIHbcuuZx88smlZVXLW8kltIMAgPERMn59crFF4lqmaCyXkI4BAMZN3TiukouSiT1vg8gFgMQIGb8uuRC6UKrEQuCaCwAJETpufXIhQsRCtJYLEdpRAMD0aTJeq+RC1ImF6CQXAMBsUieXECAXAEAJyAUA0AuQCwCgFyAXAEAv9C4XKgQAgLY45QIAAJMAcgEA9MIo5HLmra/2imubAIB+GY1crtr6Ui9ALgBMgz3s/wNk8YvBxlAsUQAAAABJRU5ErkJggg==;" vertex="1" parent="1">
          <mxGeometry x="40" y="50" width="279" height="725" as="geometry" />
        </mxCell>
        <mxCell id="SmOc1iF7wK7NT1QSRBLD-2" value="" style="shape=image;verticalLabelPosition=bottom;labelBackgroundColor=default;verticalAlign=top;aspect=fixed;imageAspect=0;image=data:image/png,iVBORw0KGgoAAAANSUhEUgAAAikAAAKcCAYAAAAtlCrYAAAAAXNSR0IArs4c6QAAAARnQU1BAACxjwv8YQUAAAAJcEhZcwAADsMAAA7DAcdvqGQAAAASdEVYdFNvZnR3YXJlAEdyZWVuc2hvdF5VCAUAAIlQSURBVHhe7b1PiyxLmqcX36c0kAxaxWcoBs0it1poEatG61yJBK2KbkQ0KjqSgVNiFs2U6BstimEiOTQNrejFGdWixQhuwpCbZi7U4uTqLhruzmWvmZu7mflr5h4ef9Ii4jnwcNLtv5m72/vz180tFj82TQMAAABQG4gUAAAAqBJECgAAAFQJIgUAAACqBJFy03w0L+tN87B4bhae1VuU5tXE2/DlvnkNwgEAAD4bRMoN87IKxInn13/T/MOP37s0nUj51b9v/vqP/9z8lyA/AADAZ1IWKR/r5uF50Ty+KXFQOW/NYytMfv2b/9T8wz/8Q08gUoT/8s9/dOFXI1I+mh+Wm+aHdy0OBlzLfXzP88373no8H9YferzKW/NlsW2+qnEAt8EZRMqueXxeNS9qXJmX7aJZmPo8NzdZvb81T6vWcyEst83TLpyU5PXMNno987AKX8N8NE9LCd82L2ZSe7R/C5vmaWCwvUj5i+bP/vofmm/f/yWK7zwoHvV1j2lP2N4Q+9rI1xHW78NMG9tyvEfncWeOd33/0gn5VeK6Pknf39RXUF9NeWtlMr+W6+c87XxvnjZBudtdH1eN8R+ZGy7eTtOezfqCrzn7B4fufvBxs0SKwdwzz+be/abFAdwAZ3jdM0+k2Ik7nFhvjXYS8hNUx7/6ofnbVkCor2eEhz80/9GW40WKwq/+Q/O3/2LSmElLjbf0YmIgUpTXPdn2CPa10X8OhNAfmz9K/d1E/FfNb/7hx+afgnJ+/Zu/af4Hn7/l3/wfru+D9nge/3Ps3ZFJOVlXI1zL9XO2dr6trqD/8x9gTosTdA/7XfNkuNS14+6DXryfChHtX0LBA3BDZERK+FSWTipuonnaL7untof9u41LnxAtU25++wSVn7zScrsnLTMxP2wNEm6eiJ7adP2TmLRVyWfLXDZPb+7JzcYHT1TZ+jy2vSb/RxJeiOsMvhEDv/nr9rXLX/9N82e/bsVBJ2KMwfevZ/763ze/bo31r/9SBEQoUowIkHJMml/5fH9r0hRFSigm2tc8v/krFzcQKb4u54mx7fFpRaDY10aHiZRf/eovmsX/+J+bbybvb37dhv3Zf2q+ffd5/reg73/T9t2U/dq/nlIn5Gu5fkba6eKVfIV7zvNq4tKw8n1sSOrry03FRHw8p+9puKWbGw5r5yHjUkLGLC7PkzwMhKI4ub86z4e9f81DwDqIT8S0vQ8GHsu4rsi7Iij388DbIsIdbwrcKIu//9OfGkGLHE5WPsxMCH6CkQkkmKT0PCPIU2BURoFwopd89m/XJpmg+slaJr6wHXG77KSZTK7DycoQ1heFHSJSvBFuDb4RA//UCoUf/+V788cfA3FhBYAx+N678j+5ickZ81Q4GBHwL2HZrVD4/qOJC4y8FxmWXqRYfL0HeFKkLW5di1J3QaRIuv/5b40watfE/NOPrk3/+H//ve5lavn1b/7YtinzDv5arp9iO6X84LqJriPXPu2e84Y2Jr3+4rb3YUE6aVsnGtL08fH8e0drR8iEdk4clz6/hhNFOU+KLiYM6SuZ9t6xwqJ7yGg9JTau9Vz6eywkLb/NH4sUdy/5MOtt1NqVuy8AboCR1z25SaM08Wh5RhgzMtaY+AlYaMvvJta+zs7I2MkszCP0k112YhVy9c1GM+Yx3euO5OubzgthhME//vN/C0RKKgrSssfrtBREyvAVzF80v/6zv2n+WoTFP4uI0urwYYpI8QIsbUs3wev8+jf/0KadKVJquX5K7eza0of1dYzfY7246sN6tHtSwuaLlHn3jtaOECX+yHEpY9IPzoe7frW1Ie5+CF/XBGlTkRGKlDZ9VvwIR4sUFpLDbVKHSBk8cYVIecFkGpbfTWB9WGRkCoYrP9EW6ptN4NL91X9o/vL/a8PtQtq9K7t72jIG/+W/tvG98RZDfVmR0ub/1//OiI3YE/Ptn7+36Xwdztvxx38JXdfK657OA+PrSOqStqZfIrX4dKpIuZbrp9TOI43x4SLFlT9NTMTH8+8dvR09SvxZRYqGuxbrECltHntvCHF5PXhS4HY5k0gJJ6optO+kk8nIEZfnJta2vpKRsWG5yXT6RBvV57HGJtPHXNzu/2z+VTfZhPx185c//rMx5sbA//davEEEhDHU8eueY0RKKCZS/ETo8w/pv7oplaOLFOeBCdvieF3/70l+T2gU5NNjbZHgtVw/hXam10103LfPpU+PZ4gUKT8rwkp9mNv3YfyQTDuPGJfD8de0ssC1FRLx6572fjmHSLFhcRkqJt3alMuaFLhFMiJFbnaZYAK6CW18YpAJs8unGg6NdgIP6vQToZvsHA/7dV9f0ciYeDuhBWUGk3J+oi3U50knzqlx/8/X5t/I4lFvgH/1V63nwBnzH5v/1vzlvw3ijcD41a/d6xW3h8klREqfPi8cnpv/7um/Om/K+//b/Nt/5cP/wn7B82e/kr8PEynCf/xf/l27CDjEldOlM5O/vkjwWq6ffDtte7rw8Bqads8NRYqki+tK+xDFBXWG93Dah/l9j8vt54ZyO48Zl3kkAj0UFt7z2NKJitkiRX8YcOVo9+lQtPB1D9wyI54UODn/8r359sd28zQrPn7sFsk6/qX5px+D+H/4Y/OPP/rXKy7+j3904b3wMGW2aWMxkgsXfDkaJv3/1U7G//o/OJFk+U+tAEkEh+1Tn/fb9+9t2V58BYtkCyJF+C///GPzj119nkCkGHL7pMABiOEPhYBBBEbeGwOXpvh6yYdlRTvAbYBIAZ3kiTFGvC3jguN8sOPs8Sjei8leT7gMipcl+qyZtShw+yBSIMvr//ql+VXrOfH86ld/1e7zonlnAAAATgciBYrY1y/Ja6F//OOP/T4vADdEKMhrRms7wC2CSAEAAIAqQaQAAABAlSBSAAAAoEpGRYp87vm84JNPAAAAuCxlkcJOhgAAAPBJIFIAAACgSsoiRXYzjDYPAgAAALgMGZHifsgNgQIAAACfBZ4UAAAAqBLWpAAAAECVIFIAAACgSsZFCr+yCQAAAJ9AWaQY2MwNAAAAPoNRkQIAAADwGSBSAAAAoEpuQ6R8rJuH50Xz+KbEwR0j+/1smh/ew7C35gvrrAAAroJKRMqueTQiYxFwkOA4uUiR9qyaFzXuGEy5m3XzqsZdkhP0b7dtFotN8xQJgE/ibWWumWXz9BGHy3oqdS2V7P/DV2sAANVTkUgJjKYVHUOjczlOLVLem6fNonnY75onw8vWCLHtTkl3Ke5ApIxsRCgC5stOjwMAgDqoU6S0Rt17Rl62xgC9OW+J9bR03giXznlfEqNrhU6pTJ/PkQu3RIJC2trHHeK9ed0vs3miesP6Wi/RsD43Zk9tmcLD/j2bz8eN96/A+755WDwbceL5RJGS9C8VKaMiJOdNsZ/dp6+IAADgM6jYk9IfW8MavCaR49jQa54BESWB4ZIyc69akvr08gQpc0q6FCeQcp6U9LhHyk/60B1LXJAv6l/S9wFT2x3QCpQH//pkqifFtllERMCxr7zaMjtRNvCkTFl3kkmDSAEAqIaKREpoyGIDOxQlKbrRFc+FN2Th3xZr2MI6J4gPzeAmbS1jyh0YaKkrU4a0MREv/VikbYyPvdcm6nNHpn8FXtcbI0q2fZ5PfN3j+ha0f7ZIQYwAANRMpa97YuaKFBtuRYHmAQmNWpo/U17krTgVubYbjhApHi9W4nIKdWaYLVLO4Ek5nUjhKx8AgJq5cZEieY3xkvUsAyPdGzUpf+hJCY1eGD7WlsOR+lWPhzXwQTui47TP+TEYiqtc/wpYUfLcPNp1Hh/N0/IT16S0XjB3HtyrtFikyKfHI2tS5LVOdk0KOywDANTAlYsUJxqKT+mRQetxwsTxsF8P6u88EEIocFLPwEk8K0k/wvra9jtCQ5yOWXicjstQkGT7V+Bl1S+afVhtm4fPEimG6PxtV7GYE3ILY1vyC2vFw/Jc/DIIAAAuQyUiBeD0zNsnxXlh8KQAAHw+iBSokoGHzDPR6+M4cMdZES+86gEAqAZECgAAAFQJIgUAAACqBJECAAAAVYJIAQAAgCpBpAAAAECVIFIAAACgShApAAAAUCWIFAAAAKgSRAoAAABUCSIFAAAAqgSRAgAAAFWCSAEAAIAqQaQAAABAlSBSAAAAoEoQKQAAAFAldYmUj3Xz8LxoHt+UODgt7Vg/7N/1eKiEj+aH5ab54V2LmwH32O3yvm5+WSyan3dKHMCVcgMiZdc8Pq+aFzXuHLw1j4vn5mH9ocSdG1P38/Y0fZ0pUl62i2Zh8i22OzW+FvR2vjdPmzZ8cJ2V4i7A28rUu2yePuLwr6vnZh1da3K99+08uK0nFymXvv+a5qfVwsxcPbUa5ff10rRv2Xw/lcAc46wiZdf8vFg1P6lxAOfjBl73IFI0xEif3kviDPnjVgzqZQ3TYYy0s2SoP8vToImU3bZ5Xr3F6dLr3bZ3KG4ux2XvPytQVnULZMd7831pjPpu1fyyvgVvJSIFPodKREr4FJtOeG4SfNov2/je+HZPyyGTnvA/mqelCI29FRwLS2j8nRBx4b0geTFPtT6sY7lvXrt8Z+Bjb4yQqadjqielHdPBeIx4DKyx7OOj/NYgmvOjGsa43JIHI46T89vHRcKq1JbZ7fTxB4qUpL7oGoz6k4YV+tfW1Zcbt1W8KF8GT8WpKHBj69v7sjVlvAXlbtbt9Rmeg+Qe8+PVhaVl+nyOXLilcG4HY5o7P7k46ynIG8qsh0WEwsog4ct1871N13scxAAr+WyZy+b7znkobLzJ/97F9XnSfLatIqbk/yCPJ8obiq7WG9KX6/ubioTwWARRmr6n1IdS3/NtAbgclXlS0gnYhwWTn0xe3cTr49M8YziRslhsmifrig29I4mn5N2IBHP82N28MzwpA2NkiPqQQzwnpo3dRC3Hh73uebXiThmftk2x4XBjnfPA2LJsu50RC9NZg5XpUz4uqS9qU6kt89tpUfteiGvDunJawSJpbF2KSHFpC/1TywyN8lvzxQjnr22ZPVJmcD5tOf1xOtZyHPczyW+RcQrqljIz5zKtTy9PkDJH0tmyDhApRmzEBrZAKGgkn/3bGWTxbMirGOfhaD0eXd5YDFgxkQiTyJB7wvoMUr5LJ+XHr3xsmao3SOoO04Ztids1PM6FlfpQ6rv8nWsLwOW4EpFSmuxyk2SJVqQMXOmG3daIFxEwMUeJlLm8mbZswzbGIsUJkFb0lMZgYAAN1gikBswZdV+mFueNamwM5RwEBjeiEJd6Q1pcveNtKcXp7WxR+56PGwq9vk+dIOqMqqvf5i/0b1DmQSIlLC8+r0NRkqLfL9IeP2bh35ZBP9KxUK69dhzjfMk1eChjIsWKEf/UL7RGVcKtKOgNbSdSBt4CoTfOWVEi5OozLQyFSS+I5Dg1/gFdO31YKhpCkaCJBi1sTFiF7RfathXbAnA5EClpnBUp3sOicUFPyohImcLQwLaUDHUkAnxeGeeg/UqcKkRKcZp4GqC1pRRXamdLqe9K3HAMgz5JH8y5fDFpZA3Mw35n2tT2qdC/40RKOg49c0WKDbfXpIxp2tewXWn+THkyjlOu8UNIvBUxYkQzT/5jIqUgfPIipVCfZvy7OoJ0KZ8hUnJ9R6RAJdyISBkzdCkFkdKKED1OKOU9MXY9ihclpt6NqfcAkWK9CMmriI6iSHE4Qxoa3GDco/xeLCjGqhgn567QxoCoLaW4YjsLYaW4NqwTWqGgsHFLY5BNnfK3ESj9a4pC/2wZ6fiF/ZNPj6esSYmZL1Ikr6lf1rNE7Y3vL3tNRfnj+DjfSFvasRvmzcW1ay8i4+kRI9qLBjHMnWejJFJsWN5bMlWkhPXFnhOftjfwkjaOb4lEWNvX7rjQv464Hk+5DwUBk21LiyzsNnPl8BoFOB2ViBQ3oUVPv91TWDqppsfeSLX5Jhi8UaHRrkPpX/ckwiB8JXTmhbOv+43pl6nH8Pg23ZMixqTk2YjG2uCMyTDOGxlrnKIn4zZtN95JXi2tFtcKgC6uO7f5tsxv5zBfLwxKcYZWVHgGbbF1KoIs2z9v8B0P4oVJjbIYAXN9ffPHFqkvvv5DpMy+bSFK/6JxMkTCqSdq5349qD97/6V9T+s7WKQI3mD2eCPrDLfjl/W6N9hFkWLiU8+Hun5jiF6fa1+aJy7HiYOuvkB0Sbt8+M+7WHSEcVH/0vKEiX0o9b3UFpd336zNHBh/Ig9wWirzpABAyHCfFLgfFGFQFfJKEk8KnBdECkDVnHjHWbgi6hUp39Yb+6oHAQ3nBpECAAAAVYJIAQAAgCpBpEDdtIsv9cWgcNW0izazizqrIPcpOABcAkQKnJnhVyUHCY6Ti5Ty1zHnIPwKxH0poaf7bM7TzuRrnPDz4SpFirIORP3KCgAuASIFzkwiCkqfnV6Ey4oUa/jVfT3q4mztHGwKVjv6YlX9d5QA4NwgUuDMpKLA7SXiPSP8IF5P51Ewhv2iP4g30s50L424Havme7R/R7w3z3BjMyH0rij1JvX15aYCIj4+6w/p5bwpdq8Qvr4COBeIFDgzmielP7bCIdjka7gZmeb5EFESCAIpM90ozDMQNDlPipQ5ku5QkSJehMhQFgiFguSzfzvDKga6N/Zi4EuG2hjZRJhEBtmT1pdtp5Tf73Tq8vnj1vB7T4nEteWEG4H1BOV0ZYd98WFBusgTk6aPj/N9L41ZUt+gDk9mbQoiBeCsIFLgzMTeiXjrd02UpOiiQnY59Tvqhn9bkt1hh9u4KyLFiowwj5ARJFMZEylWjIRGvDWOnWHuDWYnUgZP/UJvZLOiRCjVl2tn15Y+rK8jNehDA697UjyaIJCw+SIlL8jCfgttHYP+aW0SRKQgRgAuDSIFzkzOc+GYK1JsuPWeaB6QUFyk+TPllbwxcwm9FQMSY2yP27Sd4ezDIpFSED55kVKor9TOi4sUV/5ASFnK9RVFymQRpreJr3wAPgdECpyZnMhwzBcpkteIEX4QL2KqSInqK7XTCphA3ETHqUFPj2eIlKIIK/VhrO8FAZOOQ9omm27frLNrUth5FeBcIFLgzMwVKU40RK9fUk8HP4jnCIx63lAX6rPk22nb04UHgiVon36cEylONIR1pX2I4oI6pTwfnvah1PfSmIVlqj+kZ8h/3eN+v+b5Er+KDnCHIFIAoB5EECWeFBEfeW/MBSjukyK/rYQnBeBcIFIAoCIUL4v6uuxSFNaiiHjhVQ/AWUGkAAAAQJUgUgAAAKBK6hIp7/vmYfHcPJzcfSrvjW9xjwM+iwQAgNvlikTKW/No4hYtj7lV/AqyMv90741NO5632a9VTk70VUL4ZUULP34GAAA3ytW87nkxQmOxmCEOxIif9PPA40XK+N4gHreIsPusMtrToYcfPwMAgFukEpHy0Twty14SK1KW+4N3BM0Z8Jftpnl62zcPz6ZcYROWLUKkDTd4QfGy7cM6tocIIPdDeNEW7iWSzzH9fg6DvSDwpgAAwA1S5eueSKQYA+zFS8dksZJfs2EFRyBM5NiJESOYNqGnJPWczPWkuM3JJgsUgxUl7eeXdoMrI1jkF3GHG1axNgUAAG6P+kVKyzxPSlmkqK9cPgLvSscm2El0hkhpdzKd9oqnx+3WubM7gfrNrPRdNaWf/PgZAADcFoiUNE5ESvTqJ+VynhS/HXkvStzW5XhSAADgHrhxkeK2rNbXpGREihUhuThB4kPPyiEcuCbFLpwNvuhRtgy3mHFTf/wMAADgiqlEpBjD79ebBIRiZe7C2dyi0rxIMaSvfBLPyut+08cdtHDWMf3rHkP0CfLwyx6Br3sAAOAWqcuTciZOu09KZfBlDwAA3Ch3IVLYcRYAAOD6uBORAgAAANcGIgUAAACqBJECAAAAVYJIORj3JdLpf6n5kszd6wUAAOByIFIOBpECAABwCe5UpLgfNHxY74P9WUKjHe/b4gWJ3aslCLf4vVvSjejsbw5tmif7RVGhPpvPpFsHv1E08Vebz/YjibI5HNvsAwDAJ3PXIqUXEaF3JPGUDHbBTeI9E0SKWl+brxMtUb4yVnCc40cSESkAAFAB9y1SNI+FFQkiGmJOIlK0+or5ymR3zT3HjyQCAABcGERKGjcqEq5EpJzlRxIBAAAuByJlEOdEiB4n5PKG4qVN81kixYqQXJwg8aaO3I8kmjatTZtu9qcEAADgKkCkaPGtcOhf9yReBysk2rjgRw9f15su/HEtZXyWSDEc9SOJst3+c/OcFWoAAADn505FCpSR3zrCkwIAAJ8LIgVidtvmeYFAAQCAzweRAgAAAFWCSAEAAIAqQaQAAABAlSBSAAAAoEoQKQAAAFAliBQAAACoEkQKAAAAVAkiBQAAAKoEkQIAAABVgkgBAACAKkGkAAAAQJUgUgAAAKBKECkAAABQJYgUAAAAqBJECgAAAFQJIqX5aH5Ybpof3rW4evi23jTPi/rbeVE+9s3D83PzsP/Q41Xemi+LbfNVjQMAgJqoTKS8NY+L52bR8rjT0pyWr6vnZr0+xMiV2DWPz6vmRY07jqxIed83azNWXy4wVg7Tx826eVXjzoG5JowQWbQ8vgVxs0SKYbdtnpf75psWBwAA1VCVSHkxgmFhnnLPYeRVxFit3vS4WZxPpGSRPlzEw/LePG0WRhDsmifDy3bRLLY7Jd1pedmKODn9NSHi9HLCDgAA5lCfSDFPuIOndGOIvXdFeOg8Hx/N01KO94EHZrpByxkqa4Cfe/qn91SE9MdpHktoxD/W5qm/j4s8AiWsCHkeCpHWg+LieiYbXtueZfP0ocQVeN0vM+0352Jjxt97PbaB+Hsz58+Hh54P6wnZGNETxIf5DFakbNJrIq5r0JakPmHgbcGbAgBQPXWIlESEWLxYMcb4wRx3wqRN614FOZGyMAb8yRpw97qoFzElJq5NsMbcC5O8SNGPw/BAEEwWCB/ND2sx2tJW/bWUCK1Z3qCDRUrZk6KLCUP6SqYVEFZYtHGdp8TGmXMpbVKExqD8Nn8sUtzrIR/2ut/o7Zp6/gEA4NOo3pPyujZGxhiT3vCHQqQVKbNe2RSM1NvKGMXe67E4VqRIecmrETHyQ29Ehuy6k7x4OR+mj4M1KU4YaGtDrEiIXtcEaVOREYqUNn1W/AhHixQWIgMA1AwiZRCeeD0i4TEmStLjlmNFin3lo7T14otmc9QkUto8JtwRl9eDJwUAoHaqFyn66x5jeOwT8DEiRT491gx8LFLcWpNQpOTihvEd6auVA1+1uC97nEH9ug7WUVjxMlOkHPy6p4RfIxKKkZZWSMSve1rhcA6RYsPiMlRE4LEmBQCgauoXKUKyZqX/NPkYkWIQI68YKic+HA/7tREevRDxC0e1uDQ+8p5Er5AOFAetGBkKEie0Dl40K5xUpAjOQ6KuH0nWl3SiYrZISepqceV4wRQyFC183QMAUD9ViZTP4LT7pMBnU3y95MMy4hQAAOri7kWK80awgPJ2ULws0WfNrEUBALgWECkAAABQJYgUAAAAqJK7Fyn8cN+pudXXZ7wmAgC4NIiUKn64b9c8LpT9VYT3dfOwWDQLzyrcb6WQ75M43ULk9+b7cmGuUGHV/DQ5boxd8/PBeVpYcAsAcFF43ZPDfvZ7KY9ATmxI+LLdE0ajMpEiYzb3c/AsJVExR3AcIVIMfLoMAHA57lekdHuPJEKk9aD4vUcO2oMk8Xo8rN+DeBEUfZzf6+Vl1Yd1eG+JLU8XKcV8Nt7k2wXtWYZb2ett0crt4nar5mFlkHBT1lObLsyrG3AnCr6vl63nY9H80o1LKhg0AVESFfn0Wn0/mTb7sI5gzH4yY/bdjNkvPs700wx9F2/JeVPsdcNrQwCAU3KnIuUcP9z33jwtc14PiQs9HqkHJO8ReTXG1gqGSGR48vms2AjyyLETFGNtCbAiqY0zImVh/3YCRwSYtK0XYvmfGfg5FAOmzF8645+KjLzoOEykhOJDjo346M5LvjwrYgJhIsc/D0RXpp+IFACAk3O/nhQhu+4kL15KeEERe1AM6boSSyhoCkKhpRMrwZN/KV8vShLG2mLFSBgXiBRbd1/ndJGSEyKluFJYKS4Nc+tXerGRL08XJSnST8QIAMAluG+RYl/55J6K5689GAgKEQaqJ8QzLlIckm6auCmKlGxbCuVftUiZ7kmZJlK0fgIAwKm5a5Ey+4f72t/hiX7YLiUSA2LYM6Khi8+9KgqwXpBUROj5siKl2Ja4PPvKyBj0aSIl/4ONsSgIj+XvXkC4NSNjomMsLgkz7Y7LjOsMmSRSRMBm16TwEwsAAKcET4oxLENBMvLDfapIcca/f02SiIf0NUvizei8L4L3wAxevQwFiZrPkBcphkJbnDBxPKzXnSAZFymSRltUmgqJ+PjdlGEqs/xi6uvjJJ0L7zDtNN0/MC6s2xHWGS+cHRcp+a973CvC03/dBABwv9y3SIGTc7p9UuaSiqITkvuyx+KELZ4UAIDTgUiBE/PZO86eS6QU1qK0HjkECgDAaUGkAAAAQJUgUgAAAKBKECkAAABQJYgUAAAAqBJECgAAAFQJIgUAAACqBJECAAAAVYJIAQAAgCpBpAAAAECVIFIAAACgShApAAAAUCWIFAAAAKgSRAoAAABUCSIFAAAAqgSRAgAAAFVyPyLlfd+sl/vmmxYHAAAH8tH8sNw0P7xrcQCnoS6RYoTEw+K5eVh/6PGzeWu+mHK/7LS4C/Nh+vhs+rg/dR8vyMfa9GFh+vCux18cbbKUc75tvkbpoDraa+nxTYmriWtp51ze180vi0Xz86Fz5G7bPHOfwRm5IpHy1jyauEXL4wE309fVc7M+ufApYdpqhMiiJZrYqhcp783TZmHa7VAn5Ski5W1l8i+bpw8lbsDOjNd80ZM9vzKBzvGe2f6tmhctbiYv235Ms+NaAedpZ3xNLba7Pq4a4y/XYOGcV9DOn1aL5pd1fI+8r5dNswrGU+W9+b5cmNleWDU/aWkmiZRd87OS/9t60zyv3qKwqci9+2zm88vOz3BNXM3rnhdzMS+MYj/YcMhrngsr/ZetiJMZbZ2BGJWzeDSOnZQvJVJEiBQmSJkED/egjRisA7GGPzTMlXK2dsq1UH3/T3vOz8Ju1TTLtZEcPsyJj+neD11kTCeXX7yWM1778AoeJlCJSPlonpbOQ5LzkliRYi7o1yR8jLLKN/VuRFC0bIN0b9s+PPR8WE/IpnnaB/FhPoMVKZu0rXFdA+Of1CdM87a0T6mJEXjdL00ZoUgIhUDyZKsJBFWkjHhZ2jx9ub7+fH3pk7tlsw7GzrXbx6XtHBUhs7wpJzRYdkzyZWU9F8awP2wNEm7G46lN1495PC7huXjZmnF/C85FMJ7Z+kbamZ7buB0rcz/I9ebi0nMk1+Lg+oquCaXewbXky03PTXw8p+/qNdjdT4e185BxcXkzQl6NE5GwbL53YiAWDeJpcd4Sx1C8aCJjxMvSelj6cnWRM8tbjUiBCVT5uicSKcbIePHSMVmsyFqF/M2jiwlD+kqmFRB2AmrjOk+JjTOiRSYTRWgMym/z95OZ4F4P+bDX/UZvVwEnStLJO5gYS54NG5dMwO3kG7ezENeGzasvaWsufFDvlHUnc9amxIbP0tbtDY4lElMZpK9T0gm2jrbeboz6MeiNvRjOdPz6Y2t0E+OcP49Bfdl2SvnBubT5/LFrX2fUJa4tx12TwXhZhoZ3MNZpfdK2TjSk6ePjWX23aO0ImdDOiePS5Y/SJ2Tiolc+4lnJveqx4iIVFCVPihZXFkUh9mHwUMEx4gUFEC4iUv7+T38aoKVTRUrLPE+KEyn6k7YTBpq3woqE6HVNkDYVGaFIadNnxY8wQ6TEk31hIrWGrZ/Y7ITdTpLh331aX6aQTIh2kpwuUgYiKWlLuT43oQ9EyiCPo693qkg51BU9ZrAOQPqQNf6GQR/beiXcnq++LZ1Iacc/zhefd/W8CaX6cu3s2tKH9XWkYzUcu15c9WE92lhLWHLtdPWX65vVd4vWjhAl/shxmUXwykcES+Qtkbii1+NAkTIQQYX8B3ks3byMQIEpXEykaOEDziRSdE9KTSKlzWPCHXF5UxiIBMFOyhImE2Qweaciw6Y7o0gZrc+1TxcpSbsizuVJUdCEQUl8eGy+nHGSfqfj0KaVvpdESqHuvKEu1FdqZ9eWPuy8IsWVP01MxMez+q4epyjxR47LPLx3IxUMPjw8vpxImbV4Fk8KTODGRUrp5vFrRJQFrq2QiF/3tMLhHCLFhh0uTDx2Qk8mS4d7n/64TwyQNf5+MvXv3BMxkAqLEC2uVOZofW3YoA8ysef6JpQ8ZS1z3nvb/iXjMZtc3wTpX1+PM8zteeoMYG/cemPvxkU9N4aphjqqr9TOdDyi4759Ln16PEOkSPlZEVbqw9y+D+OHZNp5xLgM8k+Msx6UlSYgepHi1qccKVKiV0Z+7YqenzUpcC4qESlv0efFnlCszBUp9kbIPkk7D4m6fiRZX9JNfLNFSlJXiysnWcBrmSZaZLLNGwDv4UjTeKHgcCImnFz7OEcprjcKbuJ3uEWfPl+pvpZWyFhCA2Un6z5vbFgMI27mWV/3lIzHLOL+C+qYmXHpDFlRpJj4dFyCMcsb6kJ9lnw7o/MTjc24MdZFinItJX2I4oI6/TUtpH2Y3/e43F6sldt5zLjMFSn+tU66MDZcOPvLeh2IDhEgfZyl+0qoFNd+4tyG/7zLiZw5r1QNiBSYQF2elDMxS+VfkOLrpSAd6GTP70HvyaEaxPAnnhQRGCUxDp/H7H1Sig+QAI67EClO6c/ZL+NSKF6W5LNmKCGvfdhx9nZQvBfq6zL4dORB4Ij7TB4w2MwNStyJSDHgWgQAOCHawwHAabkfkQIAAABXBSIFAAAAqgSRchZwg34urEcBALgF7lak2M8Rky8IOpLPO+NPGpPPNJUy9K9N0s87k88Rr5zBJ6OfvdCRL3sAAK4eREoa1wqUeH8Iv19B+9VBmM+kfww/jVR3UfQC5baESYiMZ25/is9i1h4pAABQDYiUJNxt6JRuwtTu0RAJFh3VMKbCJ2K4gZbfD8JugtX9Eu6qeWzT9eXEn2r2+0i4Mt2GVT7e9ylf3zGUREr5l2nzcSWPVjGfB28KAMBVg0gZDW+N+naXzdOTWQsxQdx02LROUHSCKRA5tg3dTqSBwIiEkBcivs4kbUhQ3yDuAGy7RCy0hHWl4ybHXnDk46TNwZjZ/vXHpTJ7WJsCAHDNIFJGw3WREm/N7Q3yTJFi411ZDpfW1iGCJDDQtg0SNsjjiESKFTNJXYX61LQT0UXCEXHSxqT9YdpSmT1yPljADABwrSBSkvDh6x5n8EWIDONSD0VJpGSMauQBMdi0U0VKTlwUREqhvkHaAyiJhllxJxMpeFIAAK4VREoaVzTi7RqQznimIiX3q7z+9YvyWsWW7+vz6SaIlEFbQgoipVBfl8ZudX3YotOSaJgVF/RZOy6V2cEuwwAAV819ixQx8h2BgGgNuSMx4F4cBITrL/KLNdN8vj4vFBzhLwSXRYrJ2wqqbJklAaPU16WxP/x12O9pDMYzqLskKIpio3Aeivla+LoHAOC6uVuRck70fVKuCXlNcuUGni97AACuHkTKWbjeHWftz65f/a+SshYFAOAWQKQAAABAlSBSrpSm+TsAAKgEbZ6G40GkXCnaTQITef9ds1w8N6udEgeX49LnoabzfgvX4LX04ULt1OZpOB5EypVib4zdb5vF4rfNrvlDs14+N8v1H1x4y271bOJ7TnKT2hv+z5v1exr3+2Zl25KGfxZuTLr+r37fx92CgbgFsuchdy0deY1d7LyH116mvZPaUsM9dQ330cg4nbqdmXlXm6fheBApn8DsT3IDuptl+bvmvb1ZwpvQCpRwQjkV9oa/ApEiY3OO/sMFOJNIuTjHtreC/l7FfXThccrMu9o8DceDSLkobo+SaF+VSXFDSjeLExL5mzbvYXE3+3r9511c6p3RJoS0PMsBE1uUX3lS83GHtPPdxA3bHj4VKuOT1NeXm/Y5Pt6tjGjbBXntOQnT9uWFQnKM3Lhkz5+5HpYrg4SbNqzbdPG4Kflsmfk+5K+XPNr492H581C+lobnfdp4ls77sMyu3YP7KL7Pxsclvk4ch16DSpoMuevlFu6j3FiXr5fD2jl5XMZEit1nip/jOBWIlIuR7k47NU6nu2E0uptIiUuJJmK5Oc1N6W9yiZtazmACmoadZMIJtUPKCzw2tp3+ON9OmVT9xNITlNOVnbY1qU/GsGtXmj4+tn1IJlQ3cckkls9XIj8uCeH5kzbbv6UeN7HGwiDflnwfEqLrpUA3fn090pa4zNx4lMKDcTno+hS0cktlypgl12CuPnVccv3IxUlYeK2W8sfkr5ekTNtOfyxxet/ruo8SBmOttSNkQjsnjkuff0g3PyNSTgoi5RK0O8Oqr3FKcQW0m6RjTKRYYxZOPv4GTm/msZs/5JC0nmSiCIkmN0c/aY23U38C9GhtTdpy4OSan0zDcRYy/Y1I2pKSO39dm/v2deMw0pZsH4Ts9VJA6pO2mP9XxtBL2fZJOepTOq6HhufS5dDSl8sMr6PBNTU6LqX2KXHRNZdJoyLpMtfLoMwrvI+E4lhr7QhR4o8cFw1tnobjQaRcjAt6UqxByt1UcsOFE1p4A867OR2HpPUU8lx8cnXlT5sE4+Ps5CrnYcIT2BC9fX1c5vx1Y9aHRSKl0Ja8gSjUV6Ktb7f+rXXhr9a/j70SllxZU8MntqVDSz9Wpjm246Z5osbGRQsrxA2u+VL+kEK6W7iPbLrSWOvt6FHiESlXAyLlopx4TUoW9640vQkdcsP1N7ybUPwNOO/mdMTlTkXqVydBK7SC8qLj8XYePLkWjXjct3jMxibXXFyZ7LiU2lISKSNtKfch3/c8rg2rdWvgV+bvyMj3aYZlxXXG4WH6XP4cWvrxMru1EgMBMTYupfYpcfYa92HtPZzNH5O9Xm7mPiqNdRw/JNPOMM+B46LRzc8zfvsM8iBSPoGTfd1TxE9yPX4CcDe5Y2mMSH8Dzrs5PTKhdfWpAklD6ujbE+UTo9vFhZPQeDv1yTWpSwgm1HBcHH2dYd/iMStNrgY7+QVlZifwlPy4ZM9fUaSY+EJbSn3IXy8lYqFsy+jqK58HQb+W0vOcHuco1TehzPY6TMcnPy5j9eXi4n6vdkpbsiTl3th9NHYN5q+XPp8lvM6OGBeNfn52v332vHoLwmAuiJQrRbtJ4AhkwgonMINMjPmnSAAYcMf3UT8/y2+34Uk5FYiUK0W7SeAYlKeu8GkUACZwv/eRnZvl19dNnxEopwORcqVoNwkAAHwO2jwNx4NIAQAAgCpBpAAAAECVIFIO5q15XDw3D5W/c/xptTBnN2C1a+Pem+/LTNz7uvnFHP+88+W4tHIs5f2yjj+Pfl8vg3Lb48Wy+Z7stCjhaV4AAIAxECkHcz0ipRcbGrvm58Wq+SkME5GyNIJiuTbyRMJ6kfLjbtU0XXgS1x2b8kw6TcwgUgAA4FDuVKR8NE9LERp7KzjcKvRt89LFOyHiV6d7QfIy+P7fsNw3r5Lnfd88mONHb7R3WxO/aZ6sV6FQn81n0q0lfRt3gu/r54uUdfO9yxsKEUkfekmS/JJXvCptGb2YmSBS+K0LAABQuGuR0ouI0DuSeEpS8ZHzpEwQKWp9bb5OtET55pO+7hmKhLxIefeCI/GWRK98xLOSvOrphU38ygeRAgAAc7hvkaJ5LKxIENEQcxKRotVXzFfmdb9sFs+LllXgCTrOk2KqNvlFaCSvdIJXPnH5sTBJRQmvewAAYA6IlDRuVCTUI1JKHCtSnKdkHYuU7pWP8qon8NpYglc+iBQAAJgDImUQ50SIHifk8obipU1zzSKl9Y78EomUttzV8FVPLELisqe97mGXRgAAiEGkaPGtcOhf94SLag1WSLRxfuGs4XW96cIf11LG54oUU1BPJyrcKxw1LhIpBvGmmPhI7AzCkldCLaFIEpES1ZeKIyPw+EEuAABIuVORAnXBD3IBAMAQRAp8Ljt+kAsAAHQQKQAAAFAliBQAAACoEkQKAAAAVEk1IuXbemPXJvCFBwAAAAiVeVLkKw+2RwcAAIAKX/d8XSFSAAAAoEqR8tx8STYGAwAAgPujOpEiiFB5Xu6bb0ocAAAA3Ad4UgAAAKBKKhQprEkBAAAARAoAAABUysVESoiWxsEnyAAAAOC4iEiZApu5AQAAQEg1IgUAAAAgBJECAAAAVYJIAQAAgCpBpAAAAECVIFIAAACgShApAAAAUCWIFAAAAKgSRAoAAABUCSIFAAAAqgSRAgAAAFWCSAEAAIAqQaQAAABAlSBSAAAAoEoQKQAAAFAliBQAQ9P8HcDZ0a49AMiDSKmF93XzsFg0jzslDs7AR/PDctP88O6ONYPy6bz/rlkunpvVTok7B5eu7w4ZXodXDHPWhXhrviy2zVc17va5EpGyax6fV82LGhcyNd25MPUvZtZ/0Rv+iHbeCF9Xz816/dEdWyOy+22zWPzWjM4fmvXyuVmu/+DCz4qra2HEgWX1+z7ubkXK75uVPQ9a3JWQuZbCa/C0fMIcebE561bmqyP6sds2z8t9802Lu3EQKSflWm6mW7npZyI3/OotCusMy/J3zXtrWC5irKXOUJiA4UZEinIthdfcabmWOXIOtzJfHdcPebD6codeq3pEyodR5c+LZtHysH+34S/bPqxju8vmW6Q3oI1fNk8fQdhYXPuEsGiJnhSSuId1285VH9ax6tv5sjL17IK8y3XzauPem6elz5NewO6iflovuzJ9fZakLVH8ydspSHv6fOG4pOV2cbtV87AySLgp66lNN/b09bremHxbk+/Z5Ns2j623oS93a497D0QgOtI4w0PgNdFu9pJh8exMvq5MxePh4/p8ztiu13/exaXemXcTN/TYhN4VxVgn9fXlpsY9Pt6t/rxZ74K8tq8SV6pvpA/ZtoRlKCT5fJ5ojD3BWOf7IEhb+3zh+UvL7eLMOV+uDBJuylq36br4TDs7bLxp03sQJpxDpFQzR5bmLMOM+bNMeR7Mzj1Csb78fGY5eFzybRmbd0fbIuS8Ke/7Zr3oX13fGpWIFHPRbzIXg8WcQFX9S3iYT0l38IUmF4sJ8yfcXuT+WG7OIG6A5NXa2V6kgcGX4/hC1PJKWHAxS1u6MpJ2GjHQX/TnaKeUGebJl+HGrI2Tdtm/XV9kkng1k83Y5CQiZbHYNi/mBhShIm14EQNixcibKSsWHj0uzo+tLcfc2L3Q0t/vRgZGwRo51eMhhjEwUpHRao2mzydxrVEVceINX09q7GKR0YcF6SJPTJo+PrZ9CIy6HIeGPF+fyaf0odyWEmK4076GaO1w5PsgZeb7HmHPURsnbbZ/u36KCOmF41g7DTmRkiG85g6jpjnSo80BEhbMPQfNnzmkzGAeTOsICeeeYn0T5rPZ49IStUXQxkuYOrdm1qYgUi7D696oZKPy/dNBjDlp2g34Zgxg+MSQS3cIkbF3hIJCDKwoXd3I5i4uTZSkaHnTsPBY/g5uwKTdJ2+nveGcyu9J6o/i2vK7dvV1ThYpIkisSNnYenqR8mFuajHqjri95xApiTEOUQxzbzhTQzk0nLonxaMZ2qQtB4qUWJSk5OrLlSl/59pSxos0ve9aOxzZPlix0F8TjqRtUVxbftfmvs7wnJTbeTjhNXco1cyRHco8ctT8mSOtR4x6ME/l5h5Dtr6x+Wwuhbao4yVMbovMXbcrRnLU87qnxd+Ik26sTxApHn/xx2kzF6Hh9CLFldlf1Hq9J2un3EjRq58QKS+8qYLyzyJSfLpQrGyDcfFhgsvb55krUnSjeXmR4srv+1cqPz4+vUgptWUaXgTEY6i1w1EUKYGHJUbKC0VmUP6ISPHo7Tyc8Jqby6fPkR3Bfe45av7MkdYTekgkLjP3BAzqK85ncxlri9626W3JeFJunOpEikVcaZvwpJmTq7nWrMvNn3Rz4W7MRZjegIe67KyqDS609DhkcHGlF2nPyUXKITfZSdopeUpxfXlOPLXtPKtICdJ6MRKkT9M55NPjzJqUAmIcVTGRuvuj49TYDo3vwSLlAGPsBESf/+QipdiWAxiUE/cjJN8HyVOKy4zLRJFi0fobne9xumtO1heY9qbX4WQ+c47s6O/pLuyo+TNHUo/1VvjjwtyTEtUn+Ubm5IPHZawtcXycb8w+GOS1TnZNSvy14i1RiUgxJ8ku6PIML4zu6SF5ggjDH9+knOQCnXMD2pvAlGkJLyp3Melxjk6xC8FTwpjx78s0RDdSepH3x+4mCPHtOUc7DXbCCcoNJpiwLQ/rdd/Os4gU90qnf4IPX/nEr4IciWhRFqBpBiXGGcGuzPCJOnqVEBqs3vDpxzmDmNQlBMbRGdmQvs7uid+wXP8uqm/MwEdldvWV+1BqS560vmGesB/hWOf7YLCCISg3M2bRuBRFyng7Z4uUgw2LuX/8/GcZzluXmyPT+cUQio0j5k+dNF/c/uzcM1ZfYT6zzLAd+bY4cvPuaFsM+a97xMPyPPhi8Vao05MC48hEkFzIcoMc9q739nBelf7Vjxc06SJbdZ+Ua0CMavI0LwY47405IzW15Uror0FnWGZ7UuC+yH3ZY3HeYTwpUBnK00yozO+WoZdFe0XkbuzKd5xVSZ/upX/HrZOYT01tuQ7kWvtmhLS86rlVo3I4ylzmYU4zFNaitK8Nb/laQqQAGDSDAnBqtGsPAPIgUgAAAKBKECkAAABQJYgUAAAAqBJECgAAAFQJIgUAAACqBJECAAAAVYJIAQAAgCpBpAAAAECVIFIAAACgShApAAAAUCWIFAAAAKgSRAoAAABUCSIFAAAAqgSRAgAAAFWCSBHe9816uW++aXEAAHCHfDQ/LDfND+9aHFwKRErz1nxZPDdfdlrcGfhYNw/Pi+bxTYmriUu30wjFB3MeHtYfejwM+TBj9vxc/7V0LbTj+bCv4Bps77+H/bsePxvN8MocuG2+Ruk+kZqu6922ea5pbO6QykTKW/NoDNWi5fECwuHr6rlZX9IwfppI2TWPz6vmRY1TmNXOA+sIOVakmMlksdg0TzU+9byvm18WC3O3Ccvm+6naePRkbu635+2883W1SJ/N/NISjd0diJTsfCfGuBZvcmXX9bf1pnlevalxY8h4P5t57aI25saoSqS8mBO6MKr1YpOmvOa5G5V8hICYzCXqyFCtSNk1Pxtx8rMX3FawrJqfBuk+g8uKlJft53sQX7YiTi7TZ+nv6T0hRyBCpGBsxaBezKN8Vk59XYunacZrH5YRnIT6RIo5qa9pnDVAImAc/dP2R/O0lON94IGZfnHmFXJqbMNj9/fTfmkmu4UlmojaJ6Bh3HvztPHhiiFP8vV5R+qz8X2e+MkwLXOKgCi1M98WmZD7elq2uyBvDncO/bmNvGfWu2KExzo4/+H5ar0vXVwkUsxEFcR110x7LaXHZ/Pa7VZNs1ybUXXH7+ul9ah0okWwYvmQSdCM2cb0y3oD0uvdTdBP+00bn3gG2qdUHxfnl7x9XHctvZkxejZj++GOX23ZhxgBd03F1+0YYR8N2+C82/b0cV3/bN9MO/dBfJjPYEXKJp1j4roGQiqpT5jmbWnvJe0+eFuZcrR7Jbz/UlEX3+tCaS5Ix3tUhIiI0Yzqwdenx80X+nWixdV7Xc/yuCNSTkIdIiURIRYvVlpDpBsVb+C8cXKGadorA3k3m7vw0hsoPG4nAj+piBDYrNtJTyaYZXfR62g3p4QF+WQC6yatsfpK7QzbotVbQktfaouPP6SOgPY8D0WKnN924rDnvj3X6nWRuQ6Ssl+NOHVpD7heFBG5iPquY0XJyo3XT6uFFSzfzf/HiRSPm7jj8W4nZG+cZfLujLLEmX5310SYXwxEOrEHxzKh2zK1Oku4a+YwgZITE4bWGHUGqhUQ1vB0hqptX2iEFKExKL/NHwsDN54+zBoyrV0FXq2oT+/TkTFpr7e4LT2jZQ7yT1l3kkkz+/oszQelOO0ac+fhs65r+0B7qOAQ0TfzNRH0XESk/P2f/jRAS6d5UpxBSS6yzrC0ImXWheBEiv5kkd5A4XEpzk8epQlIuzklrCRSMvVphtOXE5WR5JtErp2ZtqjHB5AICTUsECKD6yIUKfZvc10khGW7V4uGM08iIlJ+We+a78uF+d9dEyJWIpEyG21iTcOC425CVuI6Ax8STvxybcuTZmrEC4wY2jzSrkCIBAyfdoO0qcgIRUqbPit+hBkixd/vjsK1bz0n/h4veUtaSmOnxaWemZY+zVSRMkeMJJTaMtpOIbgus2HB8SWuaxEck0WKsy0IlNNwMZGihad8hkiZ50kZN8zd5BUJBUFPH78uKZUfHMtklXuav3uR0v7t4yO8B254vWXRBOEET4p93RO93nm3gqVKkTLiIXjdb5vH7UYVD3nkmjjUkyLtqkWktHlMuGbgpjD0enhCsZLEF0SKnSvSeSUSQRpHeFJmU5oPSnHpNayFBccXuK5nLZ4VYYNQOZrqRYo3VLpb/xiRMrYmpb/hnYDwN1R6cxVuNlVEKOlLYqNYn/ytT2RukvPp/GSYaaeK1q9SW/xxaaIscKBIcX/7OC86/HVhJikRIJnrwgoce525dJNe98xGFs4GX/Qka1Qspp9r047DvwBIJ24tLJmwuzgzZvb9vz+WdEMD3dEZApcvm07FXX/ThUratoBWSHQGJRQi5xApNiwu4xBUQZHgRExy3+RESlaMuLkgX1fJc9wi16HmLZh9fWpzyJS4+q5r1qR8HvWLFKE1SJ7ekJkL6wiR4m4+/ckhdOM+7NfBDaUZ5jDO5XGEk0kaZwiEyXDhqc9bqs/QTmZamWEfHt/ScnKU2jnSFkNY59jk7DCTSHBuo3Nszk9WpJjj7pWN4WG1NWn7OJ+3L9NNWs4D05fpj88qVKJPkLUve+QJ9hD3sJt4+6d7Q2d4C5O5wbu2hce3JG1rpAdlWmOflhkIhYnINZ41FgOSPobCwranj+vKnC1SkrpaXDne6IXEZeaQ/urCbHiP9eOi3H9dfOneNKRzQXq/m/un9Moiv7D20OtzLsp5qOK6nvkaDJFyEqoSKZ/BLIV8auTpKPGk5Cc4uD1Krx7hMym+XgrSXQvZ+a4oYO77+py9T0rhIRimc/cixankz94fQHlCmuSFgKtHjIO5/hAoteJESfcULkTrH64NERypV6CwFuXer0/b//lCQ0Qh9/dxIFIE3HIAABChCTq4NIgUAAAAqBJECgAAAFQJIgWG5D5/rI1raec9035ZcR0LTTPu/fSroU+jsHYE4Ea5X5GSfq4XLVQdflr7maSfJ59msox3vYz6X43xHzkPl2xnuFPmwYua36LPrPtP6G+FeHFpdD6qESlucXrpi7nsly9HixQZn/ALoSMY+YwY4Na4U5EiE1Zp07F6RIoVKOf40mewI22N1HIeRNCF+9aUrp0hbj+XExmpCnE7sl6mf/M/zR8RKWL8z7YPyAlFiiG/nwnA7XGfIsU+geuGJvVapE/OL1uT7y3wwkT7m7iJ0OcLn7yy3hAjFh62Bgk3ZT216Wy8bee4J2FQZmvc87+cLPs/LJUJu7BNt5DU15ebion4uDRmuXEpn4fD2nnIuOi4+vLnpN1U0HtLEmM3dZNC4by73yYbk4Wf0iYbpHWeD+tF2FzBLwuH10R8btVrKdmXSDf8YR9SkeGEx6f8Km/Om2L35eBrFLgt7vZ1T7czajJZOVKj22MnvMTIuklGJsm8oY4IDZ19jSB/S3o3sXYCQtnkrUfSB0LLlumPXVndRC5xbTnRjrAdqWDT2p7UF3li0vTxcX7MEgYCQGtHyIR2ThyXPn8GW07cD88hIqRPZwyVOY52vtXKSPHtCJnYh+yW8OkrmVZAOFHmjW1rLENDqgiNQfnqqxJnpH2YNcZauwq467hwbXT3lQ9z514XpWNrPTRPSCs0vGCTfnZ9kLhebMT5RfikgiU4ljG1ZWp1ejLtRaTADXK3IsXTGe3oySxvHMsGNjEeqVGP4tryO2Pf1zlJpEQiwdG3LW3/sD9dHUFYj9Z/CZsvUtQxE3LjYtHaEaLEHzkuKl7o7KWtkj7wrIgxMWKj5AHRRYzLd7BImY0YPd1bUdxVNRUZydO+cPDv4bTl+7BUpMRCunB+7LVTuseCOHuuTy1SMmKjExpKXCf6QuLxdOcjHbMQaS9iBO6DuxcpDpnA0glNnxyLIiX7RFsovzOqfVgnIKxxzEzSRxrjw0WKK183HuX68iJF0pXGXW9HjxJ/BpEStr83oD6fMUCzREobLt4VizFUU4zObE+KGMpaREqbx4RrRnoK7jwE564dl76diYCx57oSkTLiNRr/Vd6x9gLcDogUwT8pRxNaeNxTNrjTjLEz9u0EWxIp2ffvhrTN0XFflkufHod19GE9w/S2/IkiLOpfe3zwuCjxQzLtPGJcNKxB7M5Bek78epTUiPWoIuXdGKupwuQk+PUVSjtbIdEZxVCInEOk2LC4jEOw10l6T1hR4q8zvz4lvHYK95IZm/IvBB8oUmz/fFw67pKu4CXpBI7Lp6bL7ZBtX/ewBTvcFvcpUtoJrWdoCPsn5nhiyxtcgzWIQbmBUXcG2BH9qnJRpEheP+H2dPVH/Qj7MG6MdZEi6eK6cn1w9HWG4xX/anR5zLLj0qKfh3I7jxkXneQcbNeJwTOGp/OIGBJBontSvLgJObdocQay82CEwsKKjz6uO1+zRUpSV4srxxvukGmiRa4XXVzH5+jRXEvxg4chvC5Swa0uRlX60PVT4jIixeBf2Qin/lXe/Nc94mG5xK8VA1wOPCkwDZngk4k9bzBgDLsGZZEYJGNgzvt1Tx0UXy8F6S5Ndp+Umsh92WO5718rhtsEkQITUbwXquscpuFESeRJuZsnYCdKOk+CEK3h+Cxq/0G5wloUES/mGkKgwK2BSAEAAIAqQaRcKU3zdxdFawOcB238z4nWBgCAGkCkXCmasTmcPzTr5Z8363ctLkZrw0XQvg65cbTxj/l9s1r8ttmpcYejtQHOTLvI/vRrurRXVnyyDNcLIuVKsQZm99tmYY2ViI3nZrn+gwufyG6l5MmUqbXhIhwtUmT9Q7hIs35K5yE6T8vfNe9h2Bi1ndsiyRdAR69ZcWuqDhYF0Zdihmjx+MwyhTOJlOzi3+KCW4B6QaR8AmOf5E4xyJ3RsYbKGZ3VLjFKJSTv6vd6uFKm1oYcp+jf6bisSLnkuRWRefA5v5Zz2+0XosTNYoagGBUSR4iUcyBCpLD4mh8mhGvkPkWKmQAftgZ5Qtvsm6d298tugk32MYg+jUz3OEjji7i9HPRJrRQ3pGR0ppA1cEcZstP1L36STkWGEx6f8uNuWT7h3HZplDiNas6tI9p1NhEkMv7qfTXj/hPxFHlDhOy+OkE/CiKlXKYfD9n3x8f7/XhcnM8TiTpb37L9+YU2TfgFXerVMYRtGxUhOW8Kv/kDFXO3IsUZIGewZJLrJ0UxjrmNpSR9EHfQ017pqevwJ7KBATqIw9c0aG2IOW3/ejRPSCs0/NiL4Yo22QrPX5hfzm0qWILj7nxqdZb4rHN7mrUpWhtiTn9urUBR7p1wE7Qefz6Tc3uK+y8VIq0QcOIhFhTDT+5zfff5/GZySrq23qFIkXytoLFticvw6e0mh9GrpynrTjJpEClQMfcrUhJjFD65+Yly+IQ2c5LUJqQpcQU0YzOdE4uUM/SvRxMMaVhwPDgnQZzyFJ7udOrP/eT2fuq5lfM4beFzCa0NHWc5t8l9pBDejz1JvhOIFLejcboLcZrOhTmxku5gXBAppX2EtLFLw84iUhAjcF0gUhSR4vEGK5wI4x9GS41nidyENhanoxmb6dyCJyUMC47HRMpg+/aY8R930/isc3utnhTtnMboIuX09980kdISeVmEXNpziJT0FVMoloQjPCkAFYNIaSe63KQYGbYJRq6Mm7z0Cb0UN0QzNtM5fA2L1oYhp+tfj2bQ0rBEiHRxfl2LP5Z0BS9Jd124fNl0Kp9wbt9/1ywPWZOSQWvDkNOeWxEbJSGo3o9T7r+BkPC4Ng6EQysMurYnwiDECZowLlNmNjzgUJFi4/R2OcZ+JNHADxPCFYJIaQ1YPyk6Q9Y/rcVu6fhJbhg/hVN8IaEZm4M4cNGl1oYcp+jf8DwYonUnGZFi6DxghlP/uNsYlzy3B3/dk0FrQ47TnFshOb+R9yv/0DB6/2VFSh9nKSyc7fIm4VGcljdZOKuLFOd9CcsUbLlFT0pbZpQvES0jnxnzw4RwjdynSJmLGLLkSW7sifBcaMbmUNR9UjJobYDzoI3/gEO/7CmgtaFKKrr/Ls3U11Lz9knhhwmhXhApB5E8/QnJE+Cl0IzN4chrn8p3nL1DtPGPOc1aFI/Whjqp5/67PIoHRvXUHLjjrIgXXvVAxSBSrhTN2JwTrQ1wHrTxPydaGwAAagCRAgAAAFWCSAEAAIAqqUakfFtv7LtRVpgDAACAUJknRVv0BQAAAPdIda97vq4QKQAAAFClSOHnxAEAAKDShbMiVEo7JwIAAMDtgycFAAAAqqRCkcKaFAAAAECkAAAAQKVcTKSEaGkcfIIMAAAAjouIlCmwmRsAAACEVCNSAAAAAEIQKQAAAFAliBQAAACoEkQKAAAAVAkiBQAAAKoEkQIAAABVgkgBAACAKkGkAAAAQJUgUgAAAKBKECkAAABQJYgUAAAAqBJECgAAAFQJIgUAAACqBJECAAAAVYJIAQAAgCq5E5Hy0fyw3DQ/vGtxcBremi+LbfNVjYP5aNcuYw0A90E1IuVlu2gWm3XzqsT9+LFuHp5NfMvjWxj/3jxt+jitjK+r52a9/ojCBvmeV81LFH/NmL4tTZ8WAaudki5Hkn9q3t22eV7um29a3N2yax4X868t/do1MNYAcAfUL1JagdIJk7eVERTL5ulDjo0BSIWJSf+4f+/zy2S+euuPLV6g3JIw0ZhpIHdmjA8SNT1iVL/s9Lgx5BqIBei0uLo5QqSo127PMWMNAHANVC9SXvfLREw4YfIgQiQSLDrqRJ4Kn4jUw9LWZeKkLQ/blfPqbFbNY5uuL6cVTUk+X+bD3gioLt73KV/f8WgG0oU9rc24tp6Sh3Vc36uJS8Ms72bcvHfF8KgZyFlP+H58tH6X4hTetuYcGZ6fzTnaN09b87/5uztHH3sX1/KwD7wUSdwgPkcyLn7sXlZ9WEcg/l5W5trdBXmX8fU/KkJyY/2+b9YLXm8CwPVTvUgZhrdGfbvL5unJvLufIG46bFpn6DvBFIgc2wbTlkg8Sb5ICHkhEnuAVMMb1DeIO5icSDFt8cZSDGxrHEWcDIzqwrTZGjvJ5/9u84XHHYeulyiMRTEugxEpi+et6fObyetExut+Y/+X9R1Pm03mvEv6IE7K2ea9GD3m3C61cfBo58BhRUwgTOS4F35TxjGTBpECADfCzYgUJyDMcWTUZooUG+/Kcri0tg4RJFaAuLBOpAzyOCKRYsVMUlehPjXtQWgGMg0bplE9KcoroNioemTMJxrIkker6O0q0IkLER0iVuS8eZHi/tY9JHNFihsvEXSq92lEpKjeKMtUkYIYAYDb5Qpf9ziDL0JkGGcMgjFs00TKROMYCJpxkZITFwWRUqhvkPZgPkukjBnXkPScTY3LMCJSPF6shELkpX015HB5wzxjdJ6oaJy0c+A4jUg5ZKwBAK6L6kVK2Yg7I9Yb/9Soyeeb2nv9VjRor1UiAePTTRApg7aEFERKob4ujaw9WMxZJKkZyDRsmEYVKenrndzrHnnV8MlrUqaIFIusQdns3TUX/p0jOlcZgtdnLkzGVxknQ1mk5K7dgNxY29c9ma+CAACuiLpEihj5jsBwtsbBkRhwLw4CIoOWXciZ5vP1eaHgeNz3gqQsUkzeVlBlyywJGKW+Ls3BRseUmf0EeaZIEcSb0pWpG95P/7qnKFIkLPSWbKJxjj0pw3hdpMj4BeOsjEvnYRECL0tZpBhGFiHnx1o8LM/FL4MAAK6BakTKOZHJ/LqfKp3RmWv8L8asL3sqQcRN4kkR0aJ6YC5I9totjrXzwuBJAYBr5y5Eir5r53Xwbb2xr3rqNzjXvj4i9bIYJi6cPS8H7jjbvhpEoADALXAnIgUAAACuDUQKAAAAVAkiBQAAAKoEkQIAAABVgkgBAACAKkGkAAAAQJUgUgAAAKBKECkAAABQJYgUAAAAqBJECgAAAFQJIgUAAACqBJECAAAAVYJIAQAAgCpBpAAAAECVIFIArojF4hkAWrR7BG4LRMo18LFuHp4XzeObElcT76adC9POnRIHM/loflhumh/e3bE2UR/Ect+Yopr39UaPPzWXrg9OS+Xnb3i/wK1xAyLlrXl83jYvaty5uVDdiJSE9+ZpuWyeWsM9mbR99nhqObvmcbFSznUu/FD0cr6unpv1+qM7tpPzylwI/t9u20/arUEJ/w2My0mNzqZZBxXuTFsHaU5Zn+33R7Ne+rCtGbUTG9Cojgn9uwncOPp/UT8RKfDJIFKOYnrdL9tF87B/V+OuhXr6cIRIMfkeVjt7/LpeN4+rqaLqE0SKESDPxmiG6Zzh9EZUjEtgtFuD0hmZVsyc3bim9Z6Li4uUlkv175Mwt4P599aslLjaCe8NuE2qESkv203z9LZvHp7NxSds9s1rFy9ioA03eI/Cy7YP69jGk/rJ+QjaaJkqkIxh3SxM+5yB7DHG6XnVPO2XpiwTb+iFQJvHhqeGsJTPx/u8p/LC5PogosGELwSlnSbsaW3aaeNNO83jqY2znowwvSsn9nT4ckMxIel6kfJqyw5Fi9Sp5JPyVuvmyfAqaczsLHn7cvV8L0bI+LCOVuho/evLM2T7MIxLx068KF/C9Ab/dG8NpjWegXEZGNPQiBe8AjafMcxrJ2rsv9BDkzxpD0SBasTPUF9RpMT1yb8u31h9bfv7f1NFSm5cXFve1/sgPhEBvk1hPaNxSR/DPrSC1P+b3HeDFSnv+2YZhBXPn5DUJ/9snelYRedsbFxGrjOF8N6A26QikWIuukCYyLEzrB/GMIZCIPVezPCktK9PvAG3bMRwKWkjpK5N8/QRHh9W96sVFaExMkZO6u8Mvxwbg9vV4cM0kZLLJ2IirSPNP59hHzymHlWkmHZ6oy6GeenHOhYbcZzkS+K64z6fFShdHh+X9N23abey7Xhdi6hYWcHQi5RCPvU4DM/1r9SHJG5Q/lvzxUzaX7tjh52cW0MwMCxFA5FJE4R1BiNKEwqBNK5FCyvFpfVF7SzUpxhG+acaM5s27o9aXxvXlTF1zIrj4g18pk9d+qSekThdTBjUPrRtaePUvrfpon9j15TF9ceHLddm0vH50vTReJbGpTSeecJ7A26TqkSK+rQ/8FwIm6OEwmzezBNI5KmJ63bG2xgsi2bQWt6MsewEhTFOUVoRGOaJOxqLNI0WFuTTRNhA+OjM64MnNbRaWHwsIsF7VsK/vaBweRzi0egFhWmfiINIoBisEGjjOloxYMq05ds0rg2dSCnls2VrfdPCg+NSHwZxaTkZkWInbzPJ2ydjMTxu4o8NUv9vMMlrk/8gLDAYmiEz/8r5R+LSsDHDaf7ZtJHBExLDNsjbpi3UZw2sN+BpW3yY1odSO70xTjwWx5H0NWDQhzBtaazb9FnxI2h9b8v3YQeLFG1ciuOZJ7w34Da5DpESvfpJuaAnZUSkTEH3pITHIjYU4z9JpLT5pH+TPEPzONyTEoYpx1ZoiPAIwkdFiunr2qRJ64s8GQlepARhnTAq5bNofdPCg+MziBQxKJFxsP9aA6UalAQtzSAsFSmJ0U4p1TulvrCOUn2DuInGuBB3nEjJtPPmRYpfx+L/BeUV6xsTKbnxzBPeG3Cb1C9SrBDIxQkSv5nkJTga69XxokReQ5kb5QCRIgtPc2tSujKshyI1hkkaLSzKJ3GtV6VLfxr0PnhSQ6uFDdO8rIzg2BmREBpt69kIPBnRcStS5G8x9oPyvZiJiTw1g7B8PofEB+2JwjP9K/XB/u3zSX/MuEblyKfHwzUp1iB1k3wy6WcMSoSWJglzRs8bDGfwiga3VO+E+mIDVahvYMgCY2zjfJntuPi0pfpK+Xy9av9K4zJBpNgyk3qKcb5toRhpadvXCZiwf6W+t/kPFimltofnZDCepXGZcJ1F58oR3htwm1yBSDGkr3wSz8rr3twQPu7MC2fDuh7fpntS8l/GGKMWeXUSgxfFGToPSSmfIfUWncCzUuxD9JrEEK3LSPoUHRus0FAEQhvuCAVCIFK0/FYADNtSFin5fGHaLq4TVCP9y/YhLu9xp43Ltnk2BuFbENZP/O2/3b6f+DWD0tEageSfTdvmC/8NjVL4zxtKrUxvkMbr6+pIDWeuvoGB1Qyi+7dbSxlt2pH6Qq/A++6tz1fsnyE7LiVj3GLzhn2ZEpe0JxQWrQH3/7q+jvRd0EVK4fyl16D915fZe/hM+vA8jI1Ldjzj+E6MGbp7BW6WakTK/WKM08BLMoW5+eCaUPdJOTWpIQMoUHy9FKQ7Pa6e8DoN7xW4TRApn84lRYrkMU/uGtlXOPC5nHjHWQ1EChyE4mUpeY1OgPfOpEJoeL/ArYFIAbgiwgka4N7R7hG4LRApAAAAUCWIFICpvK+bXxaL5uedEgeHcwvj2S5QP8eXdFXQfrTwsO/XRY2jfz4PMAdEClyEn1YLeVfRUadh2jU/L1bNT2qc4ZRGdbeKxsOxbL63a09Oj/Qtrq/vx3vzfenDC/0/CClzpD/ViJTc+q4J675uQqS4bR76rxaDuFkixaB8mQYwB0QKnB0rUMI9UKplRKSchUvVmdRjBUJa7ynbMkGkVMMRIuUGkO0fDtnvaSrab08BHAoiBc6LagwD2qfp4dO9M5jf18su7pe13+OkFOfjtTIdkVenFU+ppyeMG/U0zOpDnCYqczBmrn5X7ty+J/WIJ2e5NiX7eCWNJ9s/hzaeqUh5t+31x6XxHOlf0pZB/IHYzQnDr9yE6Pew4h/x7L0M7/ZnKFy4ImSSfYpO8+vhfgPJlnBPKNkN24eHng/rCdmYPgTxyV5SVqQMdvWO6xp4ipL6hIG3JedNed8360X/xRpACUQKnBfVGHrEIAVP29YA+ePW2HqjJ3FdOaU4MYCh4YsNb9mrE6edFi9hc/rg0coMRYlB8nVtTsqM6i/1vc3XofVTa0tYviHqX2k8e5FiBYp6DeTqC8qMxixpi1xbat2HUvKkGJHhRYv6cxNaXhEwy5Pvgq2LCUP6SqYVEFZYdBthtp4SG2dEi7RNERqD8tv8sUiJdwG3G1yqP12SWZuCSIEDQKTAeSmJFMXIiNELPQZ5g5uJs0Y0NMaCN2yJkRuQlpuixM/uQynMEJT70ypsc5o+EDSjfQ/y2bQT2jLav9x4unbZNuTOv9r3NCw8TupT2jaPkkgJw7V0el7/Q52n8aAIThhoa0PcLtjh65ogbSoyQpHSps+KH+FokYIYgeNApMB5UY1hy7lEykFGMWRG/LlEShdu/o/6k6bvPRaH9T3Il01jOKh/IW35a5M/m0bLn4bFx1J3L8By5R7K6UWKp/tV8aM3S6xJpLR5TLgjLq+Hr3zgeBApcGbaJ2rtidcKmMBQRsclYzUW543oEDFy+TUMkjc13CFpvYbZfSiFOawYWK2SviTpRUR0xxKX63uSz7ZzQluK/SuNZyCCojaGaH1Pw4JjqTsrwlpkHcTi0AWbIjS01zPHixSL9pro4HYWftC0FRLx655WOJxDpNiwnDAJkNc62TUp8c89AORApMAFaIVK9wQcGFJrwHx4YAxD4zQ4LsUZrCEN6ht4IoK4RDy5BZ5pXJJHCMuc1YdSWEtWSATtSOOzfU/zpe0M4wyT+qfk7cYs8dS0ZfQemCCPELUzP2axJ0VI2jPTAHYej8jrURIp8neb3pP98U9FAM1qp/OQqOtHkvUlnaiYLVKSulpcOckCXstQtOS/7hEPy3PzvDrvj8HCbYBIAagUEUxDL0VqxO8IETqR4NQ8Oc4AHuZJ+QyupZ1Diq+XfFhxnxT5PSo8KTANRApAZXTeHO0V2T2LFNv3xJMSjNG39ca+Qqnd+F1LO/MoXpbos+bCWpT2NRcCBaaCSAEAAIAqQaQAAABAldQlUt73zcPiuXk4uStQ3oFe4nt9PrkDAAA4FVckUt6aRxO3aHk8YMGZrDI/3TtQeR+rfAboKS4YAwAAgKlczeueFyM0FouCOMghouGkn7qNiBQDP6wFAABwPJWIlI/maVn2kliRssxsOFQgJxhetpvm6c3tIWBXp0f7BMSr1/0eA/Euiy3Jj3VZ8KYAAAAcTZWveyKRYgy+Fy8dk8VKfo1IuoGRHPcbFaV7AJSONVibAgAAcCz1i5SWeZ6UskjpdmEMaXdojD0mm2A3xakihR/WAgAAOAZEShonIiX3OxYWPCkAAACX4MZFitt+WV+TkhEpVoTk4gSJDz0rCqYf6g9rAQAAwGQqESnG8Pv1JgGhWJm7cDa3iDUvUgzpK5/Es+J+u6KNUxbO8nUPAADA8dTlSTkTp90nZQS+7AEAADgJdyFS2HEWAADg+rgTkQIAAADXBiIFAAAAqgSRAgAAAFWCSDkY9yXS6X+p+ZJM2esFAADgc0GkHAwiBQAA4BLcqUhxP2j4sN4H+7OERjvet8ULErtXSxBu8Xu3pBvR2d8c2jRP9ouiQn02n0m3Dn6jaOKvNp/tRxJlMzq29QcAgE/mrkVKLyJC70jiKRnsgpvEeyaIFLW+Nl8nWqJ8ZazgOMePJCJSAACgAu5bpGgeCysSRDTEnESkaPUV85XJ7pp7kh9JBAAA+FwQKWncqEi4EpFy9I8kAgAAfC6IlEGcEyF6nJDLG4qXNs1niRQrQnJxgsSbOnI/kmjatDZtuthPCQAAACggUrT4Vjj0r3sSr4MVEm1c8KOHr+tNF/64ljI+S6QYjvqRRNne/7l5zgo1AACA83OnIgXKyG8d4UkBAIDPBZECMbtt87xAoAAAwOeDSAEAAIAqQaQAAABAlSBSAAAAoEoQKQAAAFAliBQAAACoEkQKAAAAVAkiBQAAAKoEkQIAAABVgkgBAACAKkGkAAAAQJUgUgAAAKBKECkAAABQJYgUAAAAqBJECgAAAFQJIgUAAACqBJEyh4918/C8aB7flDi4AT6aH5ab5of3MOyt+bLYNl+jdAAAcE4qFSlvzePztnlR4y7BztS/ytd/apHSlrfwbHdB/Ehbbpb35mlpxmIhXLb/X1fPzXr9MYzbbZvn5b75loYDAMBZuHqR8rJdNA/7dzVuPpcUBlLXsnn60OKEexUpHtP/S4oUESKrNz3OIALmy06PAwCA01KPSPnYNw/Pz82iY6onxTxxb1Lvg0METOedMKSejyi+zZ/mCeO6umx4YjitNyQMc2n7OkVs9GV24TafLlLKbZF4k+8t8MJs1s1rlz9Tn83Xh0dxb6vmYWuQcFPWU5submuf71Ti8GVlyrMeE8MqPY85kSLhfb7HQDhE5Q3izJjtTD98/DIcswkiJOdNed8360X6iggAAI6hEpEinpNNYKgPf93zul8aw1l44k5EhDXUirBxiIEvlKXGiygJxIbU14kGiQvTx/ld2017IpGhpw2xfQjyyLETFOX6IsJxMSLFjaGkdyJE2ubESNK/E2EFxUCYhJi2DESKacsy6V/O2/IugqSPs/UFwkSOexEzZd1JJg0iBQDg5NQhUt62RjCELvZYpHRG3JIxRoI1soEhtcc+X5hXjHDJ4BaMukWP7w16/HfqgXAM6+/6GYmnfFt6UZIwVl9uXCTc1t3XmfZJ0nf9OhpTz8K0q2jYJU3Sfys8TLsjgnJ2ph9RXJ8/FiUpU0UKYgQA4BJchUiZgjOgoTETQxsKgdDYh39rzI034dazkXgyIq/KGFJ2rt0xRZGSra9Q/ohI8ehiag6mnpwHpENJIyIleU3TI+lD4RPnP41I4SsfAIBLUIdIsetRvCj5MAb+kDUpzlgPDaYY2t4Y2zSBsZfjvEcgzqvH68a1Wycy8IZkBEWK9YKkIkJvS1akFOuLy4vGZaJIsRwkvAyt9yZtk4iGh3XJM2PaMhAyEpYTGxJn+teKFPt6Z7JIkU+PR9akyGud7JqUzFdBAAAwi0rWpIgx3Bgj5hbNPr6d5useZ4AdD/t1Z3hdvBjiPj4VOZ23IIpL8gipoc4Y48ErGJ+vTd8zFCR6W1z/ssInV58hOy5FkZL2XRdOWXLjYkWFKc/TrU9JwoXQe5K+8knWmfjwh7Xp32SRYhj5zDi/sFY8LM/FL4MAAOAwqhEpALUwb58U54XBkwIAcDoQKXAkinfJk3inrocDd5wV8cKrHgCAk4NIAQAAgCpBpAAAAECVIFJU1z5cPe3C4ezC4lq4lnaCTrtT9sP+kFd9fMYOMJXKRMpb87h4bhYtxa8wTkR2keRF6b+m0eMzpF/wRGtAZpZ5JsIvioTTGGXZjyYoN+x/NcZ/5Dxcsp3hl2QHrxe6/L2Zx4zpIZ+/H418bei+PHRfHwZxs0SKYeQrshIyZ7EGCu6FqkTKi7n5FuYJ42KGVSaKKj4ZnSMoJE/pM+B6RIoVKOdYRNt9Mq3EVUMt5yH8WYOxa2fIxe9NFSdKH/a75slwtusq4WUr4uT0fR/9nSiN3D49ADdKfSLF3ICDJyQjJvwTnPDQPUF8NE9LOd4HT3nTJ5PSJBE9+StP6D6uf6pyxugp2NMk2r8lyefjUg+DZcrEa8vTDc1YmRf9YULbznFPwqDMsfE06BvNhd4Vpd6kvr7cVEzEx6Uxy41L+Twc1s5DxkXH1Zc/J+5e6u6zRLxPvTeF/v4cwbbjMLEk+H2D+jHx+I0gW8JdrGVXax8eej6sJ2RjxjOIj3a/lvNowjZp3+O6Bm1J6hMG3pY53hRECtwZdYgUZaLrJkRzUz6EE1+b1rmb/cRqJhm7psS5pKdNkvn3wta4qEJBDEQwqUaTrMQF+SSuM2ThU6xGaiCn0W3yprq+82Xa/iVG1k2y0s4wT6FdoaGzrxHkbzcGYjQ7ASFxavsESX/4eHb9jkjHV2t7Ul/kiUnTx8f5MUsIx8WitSNkQjsnjkufP4MtJ+6H5xAR0qdz95t/9fO63uhl5Ij6NQUntHKeFF1MGNJXMq2AcILNxXWeEhtn5hNpkyI0BuW3+eNrwb0e8mF2o0qtXYU5KIsIGzYMhDviIiLl7//0pwFaOm2itBOfuZH7STwUIq1ImXXT5iaIxECEKK8XemOVGpv42BtW/ak3zXsYndGO2pYvs2xgTTkRiVGP4tryu3Hp65wkUo4YT6GrIwjr0fovYUl/uvrL9WXHTMiNi0VrR4gSf+S4qHhBsJe2SvrAsxLdU0m+Fl3EHClSZmP6PLimnDDQ1oa43ayTOcSnTUVGKFLa9FnxIxwtUqYu2nebBSJQ4N64mEjRwlPqESmZSf8ExuNQQTEdKSMUV/kyiyIl+1ReKL8blz6sExDWOGb6duR4Hi5SXPnTxER8nB0zm6407no7epT4M4iUsP3dNdjlC++pOJ8n52mx4Savwxj3T/tKriaR0uYx4Y64vB48KQBjVC9S9Nc9fjI8RqTkf0xOJnTV+KXu6ej4AOMxEAOSNjR0M0jbViizbHCnGWMpY5InpX1iT42u5cjxPFikDMY9pNC/9vjgcVHih2TaecS4aFhh0p2D9Jz416ahIY/J35v+XpxB2s+jMH3I/TBpKyTi1z2tcDiHSLFhcRkqc9aXsCYF7oz6RYqQvBfvP388RqQY5KlEveFl4hdj0xIaWDHIXVw4wZaMR1KeMjH3T7cGzaCnRO04rMy8wTVYwxGUGxh1Z4Ad03+YUPK2RjEotzcKc8bToYuUdKwNmT44+jrD8Up/kLI0ZtlxadHPQ7mdx4yLTnIOtutEqDhvSnefJfehfm96cRNygGg5qUgRnIdEXT+SrC/pzuVskZLU1eLK8YIpZCha+LoHYJyqRMpnUMc+KXARxPAnnhQRGHlvDJQov4qN094TxddLPiz7gDSCiBQz5ge9IgK4Yu5epMhTDzvO3guK92KK1woyJN4XgfUSBsXLEn3WPGMtSgCbucE9gUgBAACAKkGkAAAAQJUgUgDuDu0V53GvIAAAzsH9ipT0K5ZobcLULyZqwLQ1+1ltjntf4Jh8fZFsg35a3DqYmhbnZheLz13MCQBwJu5UpIjhKH36eA0ixX1SOu/H1u5cpMhnpmcVJiGViRQRIoXFrbM+iwUAOBP3KVIK+zMM99GIjf9Ff5yvKzeP34NjkD7ZW8Z/dRHvENrS7X/h9r3I/2Bj/DVHL3KG+2X4OPlM9WG1tRvyLZbb5rFNd+6f+o92/EwEiXwiqu1M6vfM6PIZ1HQp0Z4mhvZ6Ua+l7nrxIlP2VfHx6f4nfb7SnjM+zu4b011Lq+axTRdeG6MiJOdNsZ++8hUcAFyWu33d022wpb4qyXtSrOEJ8sixMwJiPFIjk/HGWJHUxlkDJ3/3T9zW2Iw+eZc8KWOekly8Fxsb5QcbkzzGaInwUMWGFUhO3HR7aQTprVAa+1Q1fR2XPVdDrEBRPCVu/4pegDhMX61YNf0LN9ya7G3pz9th8V5seLEcpkvytGOhCtfu+vHXtPk7SJ9eF+PrTjJpECkA8AncrUjxdGIlelUiRkIXGL0oSdCMauitSZ+2Q5Fi6+7rnCZSPCbfwHjHno2hkBgRKZqASD0zLV3Zg3hj8I1BsyJFyrMixYVNEimzScSGgu5JmStSYs/G8NpIBEdHmy+67loG10pS9iDeXWf2Wpby7LXowuaJFMQIANTB3YsUhxiSQFDMFSnZJ/1C+UeLlBKhWJmyM+iYSHEiYxCXelWCtLNFiib6JnlSRGyEfR2Se90T/yhcuYwhoVgJrx05r3NESni9BARekjTt6UQKX/kAQB0gUoRgUndhqajoyYqU1hjl4/ryrOG4iEhxuFcuocDIiZGCSGmFTV7AeJHihdGRIuUIRGyU1pKoIkXWo+R+RM7TejD0c+ywQiG6dnJipCBS2mtJjYva4IWRq29cpOR/VLNDXutk16SwyykAXJb7FCntRN8zFCTO2LTxgbHIixRD+vSfrF3x4Yf9ON8cWkERMHjlE76eSRbOZgVE6zHpy/XeBi9MHI/rXpB8hkhx3hRTh2fiwtnYkyKY9obXhSpSWkERMLg+wuutuyZKIsWQXkudd8YLE8ejuZa8IBkXKQZz3kufGecX1oqH5bn4ZRAAwKnBkwIgyBqUxJMy5pG5Vubtk+K8MHhSAOCSIFIALIn3RZi0cPYaOXDHWREvCwQKAFweRAoAAABUCSIFAAAAquS+RUq7EHT4Ke6xaO70W4DPUwEA4HIgUrIiJf5CZrghWp7swkT71YX/SmMqslbi0D07zsjI1yElZFxY2wAAAFPhdU8G+5nsYoY4ECOe/Uyz/8xYj9eoTKQYRn//RUP22ZgpbgAA4D65U5GS7OuhGFwrUrr9Q6ZTNuAZkZL8sJ3/7HW4b4ch+OLkZbtpnt6CvNEntPHXKuHeHWm5XdzbtnnYGiTclPXUphvs+zHHm4JIAQCAA+F1TypSjAH24qVjslgZW7OhiRQjmDZGbCSbyfXkPSlWbATCRI6doJAywzwFb4wVSG2c7BVi/3YCR8RS7nduDl6bUvQwAQAADLlJkSL1pWjpVJHSMs+TMkekuB1QxWOhbxxWFikDL4eQeGYcgRCyYiSMC0SK9dT0deZFytSFwW4TMAQKAAAcys2KFC18wMVFShkvVuJNxGaKlOzv0Eh5oecmKP8gkYInBQAAzgsi5aQiZeQH3ILfVFHjhYHASEVFT1ak2DyluL48+8roUJEyZ33JnDwAAHDX3KlIMUbYrzcJCMXK3IWzxUWlqkhxgqJ/9TIUJJ2HRYgWzuaEiCF95ZOsXfHhD/t9J0imihS+7gEAgEtw356UM5HdJ+UWmPNljyAi5dBXRAAAcNcgUs4CO85qsJkbAAAcAiIFAAAAqgSRAgAAAFWCSLkJbvX10rVw3GswAADQQaRciJftolls1vrXQvarHxPfEn+x8948bfo4rQx9oW6S7+DfDKqbl5Xp0yJgtVPTDdk1j4tDx8KM5dLXlck7d0ExAABkQaRciKxIaQVKJ0zeVkZQ+M+UZYfaJJ9J/7h/7/Orm6R5gXJbwiRERIq2v804c0SKp5x31qfZAACQBZFyIXIi5XW/TMSEEyYPIkQiwaKjGsZU+ESkHpa2LhMnbXnYrpxXZ7NqHtt0fTmtaEry+TIf9kZAdfG+T/n6jqEkUlIvi0838L4IgQcml69nRODgTQEAOCmIlAuREynD8Naob3flV0SWzFqICeKmw6Z1hrcTTIHIsW0wbYnEk+SLhJAXIrEHSBUjQX2DuANIBcXDOiN83k07I2ExIjQ8g3zCWF7WpgAAnBJEyoU4VqQ4AWGOI+M/U6TYeFeWw6W1dYggsQLEhXUiZZDHEYkUK2aSugr1qWknUvKk/Lgz9QUCJl5HUhAaxXzCFJHCAmYAgFOBSLkQOZEyfN3jDL4IkWFc6qEoiRQvIBLSV0GBoBkXKTlxURAphfoGaQ8gL1JESJjyO6GQCouc0BjLlwsLwZMCAHBKECkXIidSykbcGEUT1xt/d9yLlNwPGvrXL4pBjQSMT+fqK4qUQVtCCiKlUF+XRtZyLA5bdDpVpLjXQqlI6eOn5/NpCiKF3ycCADgpiJQLYY29GPmOwNi1htyRGHAvDgKitR7ZxZppPl+fFwqOx30vSMoixeRtBVW2zJKAUerr0tjf9Tlsu/zS6x4nMBwP6/VAWLyuTT/9K53Mwtk4n4iTPs6yHApOvu4BADgtiJQbQN8n5ZqQ1yRXbuD5sgcA4OQgUm6C691x9tt6cwM/OshaFACAc4BIAQAAgCpBpMAkmubvAAAABmg241QgUmAS2oV5EO+/a5aL52a1U+LOwaXrAx3OA9wi13JdX6idms04FYgUmIS9GHe/bRaL3za75g/NevncLNd/cOHN75uVuREWAYOb4qQ3i6vf1SXtUdJcbBKRvmfacDLCOib0/SyE9RpWv1fSKKjn4VR9OGTsL3Ge5lBzH2ods0tRuOarESkj5+jU7czYAM1mnApEyh0gnxF3+7AcEBfSXaDL3zXv7QXaX/jJjWJvjD9v1u8+/lzUMIleog1aHRfuu5z7qcJkMsf24ZD8Fx6vydTch1rH7EKc5Zo/NRc+RxkboNmMU4FIuWncHiXRviqT4oaULtDhjRLGu7/1p2aXb73+8+5ppffO+HifV3sa0G7Qc9anMSwzzLdb9eXFcSNtaZ+A+rx6X+IwH97ni9tihOMuKNeeyzBvnnfTznisHPn+lc6D5/A+jI/LkLSNFuWp2MdF9WVJ2x4eu7/nnNvceI72oTRmJZK2+HaO1Ve+lvJtyV4vZm5ZrgwSbspat+mm9iMqd9K5HTlHBv2aH7muB+fWlxteH0J8XBrPedfEYe2cPC5jIsXueXXaL00RKTeL28xNFyGlOJ3uIlVJbkB7A6Q3RnqT+jBzI3Q3lhx7D4zcBGH6XP40rBSX1Cft7CaDKfVplMpMiMallE/iQk+U1hYtrNwHO6klk9+YEZCJ2k9WPWHbAiaf91JcqQ/y99i45MilTcq0fcj0LyItLzyWv804qdd1Ut+gnIDBeObSzr12JV+pr/ly8tfSAW0J+yfGz/4t6Z1hzAnjFNuWbqxDpKzcuXX1aPfftGte61dSn/Qpugby4zL53px8TXgmtHPiuPT5h3S2ApEyjbsXKelW+1PjCmgXZk97YWdvaJ9Gu1nCMJng2pvT3jhhmVq5WpmluDQsOJ5Un0ahTMFOvmGZPq6QL5rctLSZsJE+ZCe+CWQNRrZ/Hq3thbhSHyaNS45M2kGZU8cpLS88TuOC63qsD8XxzPRh9rXbG2RdDGTqM5SNaKEtuf5149LXOU2kSPpMX4vnNu3bsK/l+rWxSdoS1V+ur3jNzbkmOpT4I8dFQ7MZpwKRcrN8oidFRUuThgVPdjLZjSr4Ur1T6guOJ9WnUSjT/h1OoGlcJt9gEknTZsJG+jDN+OroE7a0Ide/UlghrtSHSeOSI5O2OGGXSMsLj9O44Lou9kH+Lo1netwy+9rt8WJl6vhmx6jYlkL/unHpw6aLFL2N5XOb5huWc7hIceVPExPxcf6ak3QzrokOJf7IcdHQbMapQKTcNCdek5JlyoWspUnC5ObpjiVuzFiU6p1QX3Q8pT6NsTL7CcZNYGFcJp9M9F2cewqPJ7wkfRSW70N+IhxnikiJ+xemScNKcYU+TBqXHHFbO2yZQXh6nKXU96Rf4XVd7EOpzGF8j4TPP7cd0rZIYOTqK11LpbYU+jdbpLhy1HTFc9vX49KnxzNEymD8Qgp9b48PHjMlfkimnWGeA8dFo7MVM36HbQxEyh1wsq97spQuZImTGyugu5HTOO1mCuKz+Q6JK9yA2fpKlMt0k4pjuf5dEFfOJxOkz7fahXHyd1+mJWxnoQ/5iXCc3IRd7l/QDmHSOTIU+pAfl3HCvNGTpBURbXg4eY8Qllfue9zGUh/y4znMG/Vh9rUb5FH6nquveC2NXIM+POrfESJl0I9J5zYe9+Fxrv50zAyZ/jn6OsOxTM9taTznXRPldh4zLhq9rXC/w/a8egvCjgORApPQLszjmXYDAFwXXNd3iRj+RByKwJgmtK6b3lbI78jhSRkFkXJ6tAvzeJjM4Rbhur5P5LwHngsh9OrcMNZOyC/Bmz6f+sdiESkwCe3CBAAA0GzGqUCkAAAAQJUgUmDIzL1U4FqQ98bphkuy4G3bfI3SAQB8LoiUT+GteXzeNi9q3CWQfVJW+fpPLVLa8hae7S6IH2nLzfLePC3NWCyEy/b/6yrz3ljeKS/3zbc0HADgk0CkfArTRYp8InzIpmvTuKQwkLqWzdOHFifcq0jxmP5fUqSIECl8HigC5stOjwMAuDSIlEvxsW8enp+bRcdUT4rbdC32PjhEwHTeCUPq+Yji2/xpnjCuq8uGJ4bTekPCMJe2r1PERl9mF27z6SKl3BaJN/neAi/MZt28dvkz9dl8fXgU97ZqHrYGCTdlPbXp4rb2+U4lDl9WpjzrMTGs0vOYEykS3ud7DIRDVN4gzozZzvTDxy/DMZsgQnLelDP8JgcAwBiIlIsgnpNNYKgPf93zul8aw1l44k5EhDXUirBxiIEvlKXGiygJxIbU14kGiQvTx/ld2017IpGhpw2xfQjyyLETFOX6IsJxMSLFjaGkdyJE2ubESNK/E2EFxUCYhJi2DESKacsy6V/O2/IugqSPs/UFwkSOexEzZd1JJg0iBQA+AUTKJXjbGsEQuthjkdIZcUvGGAnWyAaG1B77fGFeMcIlg1sw6hY9vjfo8d+pB8IxrL/rZySe8m3pRUnCWH25cZFwW3dfZ9onSd/162hMPQvTrqJhlzRJ/63wMO2OCMrZmX5EcX3+WJSkTBUpiBEAqANEyiUYESlTcAY0NGZiaEMhEBr78G+NufEm3Ho2Ek9G5FUZQ8rOtTumKFKy9RXKHxEpHl1MzcHUk/OAdChpRKQkr2l6JH0ofOL8pxEpfOUDAHWASLkEdj2KFyUfxsAfsibFGeuhwRRD2xtjmyYw9nKc9wjEefV43bh260QG3pCMoEixXpBUROhtyYqUYn1xedG4TBQploOEl6H13qRtEtHwsC55ZkxbBkJGwnJiQ+JM/1qRYl/vTBYpbsvq4poUea2TXZNy+t0kAQBKIFIuxOt+Y4yYWzT7+Haar3ucAXY87Ned4XXxYoj7+FTkdN6CKC7JI6SGOmOMB69gfL42fc9QkOhtcf3LCp9cfYbsuBRFStp3XThlyY2LFRWmPE+3PiUJF0LvSfrKJ1ln4sMf1qZ/k0WKYeQz4/zCWvGwnPaHwwAAxkCkANwZ8/ZJOf0PhwEAjIFIASiieJc8iXfqejhwx1kRL7zqAYBPAJECAAAAVYJIAQAAgCpBpAAAAECVIFKq5615XDw3D5WvB/hptTBXU0D3Fct7832ZiXtfN7+Y45+7r0lcWjmW8n5JPt19Xy+DctvjxbL5nmw8JuFpXgAAuD4QKdVzPSKlFxsau+bnxar5KQwTkbI0gmK5NvJEwnqRIruqNl14Etcdm/JMOk3MIFIAAK4fRMpF+GieliI09lZwLCzhPilOiLjwXpC8rPqwjuXe7Zfxvm8ezHG3J8Zua+I37SZfhfpsPpNuLenbuBPsfTFfpKyb713eUIhI+tBLkuSXvOJVacvoxcwEkcLv0AAAXAWIlIvgREMvIkLvSOIpScVHzpMyQaSo9bX5OtES5ZtP+rpnKBLyIuXdC47EWxK98hHPSvKqpxc28SsfRAoAwG2ASLkIrWjQPBZWJIhoiDmJSNHqK+YrE+0MG+1ue5wnxVRt8ovQSF7pBK984vJjYZKKEl73AADcBoiUizAmUkoioR6RUuJYkeI8JetYpHSvfJRXPYHXxhK88kGkAADcBoiUi1AQDa0I0eOEXN5QvLRprlmktN6RXyKR0pa7Gr7qiUVIXPa01z3soAoAUDuIlItQEimGVjj0r3uSHx+0QqKN8wtnDa/rTRf+uJYyPlekmIJ6OlHhXuGocZFIMYg3xcRHYmcQlrwSaglFkoiUqL5UHBmBx4/lAQDUDyIF7hB+LA8A4BpApMB9sePH8gAArgVECgAAAFQJIgUAAACqBJECAAAAVXK3IuXbemPXJvCFBwAAQJ3cuSdFvvJge3QAAIAaufvXPV9XiBQAAIAaQaSsnpsvycZgAAAA8PncvUgRRKg8L/fNNyUOAAAAPgc8KXhSAAAAqgSRwpoUAACAKkGkIFIAAACq5GZFSoiWxsEnyAAAALVykyJlCmzmBgAAUDd3K1IAAACgbhApAAAAUCWIFAAAAKgSRAoAAABUCSIFAAAAqgSRAgAAAFWCSAEAAIAqQaQAAABAlSBSAAAAoEoQKQAAAFAliBQAAACoEkQKAAAAVAkiBQAAAKoEkQIAAABVgkgBAACAKkGkwOn4WDcPz4vm8U2Jq4lraScAwJ2DSFF5ax6ft82LGnfvvDdPm0WzMEbest31cdUY/505f6v8+bt5kfJhztGzOT8t2zclDQBA/SBSVK5DpLxsF83D/l2NOxtvq1iYVMmISLl13rYIEwC4Ce5XpHzszdN0/7T5sP+w4S/b4AnUE0z4L9tN8/QW5N3sm1dfphU3fb7wST0tt4szBuVha5BwU9ZTm27aU37r1ciIBhExJY+Hj+vrcsb9ab/s4lIR9GrihsIo9K4o4iCpry83FRPx8ct2acY6yLtZd2Md9c3g+5CGW7q+H9bOQ8bl0kTXUyJIXveb7nqOSK55IUr3vm/Wi03zw3uQBwDgE7lTkSLucCM2PrQ4Ie9JscYhECZy7IyZlBnmKXhjrLFo4+Sp1/7tBI4YjayRySDCITW61lir4kUMrjH+vu/WMPtjiQvySVwrDFwdvQF3BOV0ZafGP6kv8sSk6eNj24dEmKjizfYhX86QCe2cOC59/gOx5YdjGfe1hL0GFU+JXDehAHH461yur+Ca17wtiBQAqIy79aT4CV0XA2WRohvK4VNqbyAMVoyEcYFIscairzMUKbE4KBheMf6RUU0FRIvyuqY3/qnxHhpz3ZPiGaYftOVAkaKOtWD7Gxj4kXbHKPFHjsvlSMSGgi5yJ4gUAIDKuPs1Kd3TZzRhzxQp0aufkNSwBOWPiJQpDD0pBSN6cZHiyp8mJuLjvEiRdKEIK5czRIm/tEiZ7UnJX5ue3PVjPTCpSAYAqBgWzgoDgZGKip6sSLF5SnF9ec5YnEakWAGQGFcfroqJ6DVGejxujA8WKcVXI5K+b4sTM33+qSIlzZfGD8m084hxuSRy/ZSuD/X6KYroFvu657lZr6cLZACAc3KnIsUJiv6pcihIOg+LEHhZ8iLFkL7ySdau+PCH/d7Uf7xIyQoRixjS9gldCIVM9KokNObjxlgXKUldQrKWJIoL6nReIBf+sF9H9eVFSlxmmk8Iy+37Xm7nMeNyWZLrN/IC5q+f8Bp0pNf9W/PFiJTnVVweAMBngScFzosY/sSTUhZXcBZEDCeelKFH5qP5YYknBQDqAZECZ0bxXiivp64TpW+e6vqYeg8NoQdmt22eedUDAJWBSAEAAIAqQaQAAABAlSBSrgH7pUl+ESkcyLsZz4UZz50SVx2yTuRaN1iThbjb5qsaBwAwDiLF0n9Zo8efm5GvRU4tUtry9PUTn/3lygWoRqSYsV6Ux/rr6tB1Ip99LSfIWpflvvmmxQEAjIBIsUyf2M/zZcolhYHUFX5em3IHIqUaRkSKGPiDPweuTKQYRGh9uQqvFQDUxv2KlME29lMn9vyP+qX7gaSejyi+zZ/mCeOKP4hnvSFhmEvb1ylioy+zC482KYspt0XiTb7MD/5l67P5+vAo7m3VPGwNEm7KemrTxW3t8x0vDs0YLU1ZCyEVB04wPK2Xbbypbx3U13pf1Dibt48LPTQvKzNmuyDv0o3Zy6pP37GKr6mscU+uXf8Z8XAfFEO0x8/mc34cM+dN4beCAGCEOxUpMiGHG1kd/vTpNgsrPAUnIsIaakXYOMTAF8pS40WUBGJD6utEg8SF6eP83UZnyf4lWtoQ24cgjxw7g1SuLyIcF7t5mvwt6Z0I6TeLS/p3Ukx9qkgJhIKIklZQOHFj2qIaU4lL+h6UbcVIV4477kWM1g5Pbj3HNf44ZqYviBQAGOE+RUq3y6sPiyflaLfSnLEVrJENDGm0Y2mYV4xwyeBKfKGeTHxv0OO/Uw+EY1h/189IPOXb0ouShLH6cuMi4bbuvs60T5K+69fJMPVlPCl9WHz82npYYg+KIfGwOHpBE4uSFK0dnvyiU78bsrar7JhI0c9f6lUUAiFkxUgYF4iUSbslS18QIwBwOIgUS+HJMYMzoIlRi4SAHPv48G+NufEm3Ho2Ek9G5FUZQ8rOtTumKFKy9RXKHxEpHl1MHYOp70CR4vFiRfe4DDmHSPF4sTL1Wi6KlGQ32h4pL/TcBOUfJFL4ygcADuc+RUrosrau7uDpcAL6qxsxtL0xtmkCYy/HeY9AnFeP141Zt05k4A3JCIoU6wVJRYTelqxIKdYXlxeNy0SRYjlIeBla7022TTNFiiUSJpIuL0TGRYoZG9XD4LaoV9ekhAwERioqerIixeYpxfXl2VdGh4oUea2TXZPCLrcAkOdO16QET6F2cu4nWS1tSElsOAPsGP7onTFIbZzmFei8BVFckkdIDXXOGKevYHy+Nn3PUJDobXH90w2ZIVefITsuRZGS9l0XTlnUcRFRYMoKicRGTqSk+RJhkb7yya5BGdJ5ZoRk4ay+4NQJiv7Vy1CQhNd26GXJixRD+sonWbviw+f8OGb+6x7xsPCDhgCQ525FCsA1cPg+KZVR3CeFHzQEgDKIFLgyUg9LQOKdug1udMdZES+86gGAERApAAAAUCWIFAAAAKgSRAoAAABUSTUi5dt6Y99Rs9IfAAAAhMo8Kde8SBAAAABOSXWve76uECkAAABQpUjhZ90BAACg0oWzIlTyG0ABAADAPYAnBQAAAKqkQpHCmhQAAABApAAAAEClXEykhGhpHHyCDAAAAI6LiJQpsJkbAAAAhFQjUgAAAABCECkAAABQJYgUAAAAqBJECgAAAFQJIgUAAACqBJECAAAAVYJIAQAAgCpBpAAAAECVIFIAAACgShApAAAAUCWIFAAAAKgSRAoAAABUCSIFAAAAqgSRAgAAAFWCSAEAAIAqQaTcBB/ND8tN88O7FjeDj3Xz8LxoHt+UOLhu3tfNL4tF8/NOiauGt+bLYtt8VeMA4J6oVKS8NY/P2+ZFjbsEO1P/onnYvw/j3lbNwsR1bNbNaxdfyFdkbj7H19Vzs15/BGGuvLCdBwmOk4sUac/qoufzp9XCXN09tRrl87Tzvfm+DMpd7fq4KkXKrvl5sWp+CsN22+Z5uW++hWEAcHdcvUh52c437nkyoqE13vn6PkGkyGS+ekvCE1Fg271snj7CNJfksiLFGv7QMFfK2dq5W11F/3sUkWIQ8f2lao8PAJybekTKx94Y0mfz1O+Z6kl5b542i2axVSbl1OsRpXHCwMd5gSCiJ8ojeG9JQaQU8/k2BnGT6rPo7fToE3kqClz93jPysjWC5c31Ja4vbGciKmzfS2X6fI5cuKVwHgbem5LA0uKsp2Bo8DxZz4Ux7L+sDBK+XDff23S9x0EMqZLPlrlsvu+ch8LGm/zvXVyfJ8o30k7v8Rjks+1YNd/Xyy7ul3V8TbybuDRMzlfvXVHqTerry00FRHxc6ntpzIb1KW3KeVPe9816ccLXmwBQLZWIFPGcbAJjc/jrntf90hi50Ig646d7J5K4Vnz0BjKXNxEbA2FUqjPAiqcpbR1rZ+7dveQLyk8EhhUOgRCS41gcJPkt0vdAEEiZkZgKSOrTyxOkzJF0tqwDRIp4ESJDWSAUCpLP/u0Mqxjo3tiLgS8ZamNkE2ESGWRPWl+2nVK+Mf7eCNt8/rg1/N5TInFtOdLe3uh7gnK6ssO++LAgXeSJSdPHx/m+l8YsqW9QhydzfSNSAO6GOkTK29YY/PCVRSxSnADx4kAzdi3W+HujFQuKyAinHpZBmkQcDHDxLl9oJAv5BnVOyDfazpJICfPEhnwoSlIk/3Cc5Tz4NoZ/WwZtHREfghUZYR4hER2HMiZSrBgJjXhrHDvD3BvMTqQMnvqF3shmRYlQqi/Xzq4tfVhfR2rQhwZe96R4NEEgYfNFSl6Qhf0W2joG/dPaJMj1jRgBuGeuQqRMYehJ8YRipY2PxIxGQWyEtIZ5VNy0xrhLN6g/k2+0nRM9KQlzRYoNt94TzQOS9ieNV8qTccl5Y+YSeisGJMbYHrdpO8PZh0UipSB88iKlUF+pnRcXKa78gZCylOsripTJIkxvU/76BoB7oQ6RYtejeFHyYQzgIWtS2tcX2pqUACdivCEVo1nK0wqbg8oUMvkiMeNF04R8o+2UT4+nrEmJmS9SJK9pt6xnidok6fv+2PMxEClhf8PwkbYc+rrHjKVde5EYeYcYw9gDMsmTYsNyQmS6SInqK7XTCphA3ETHqUFPj2eIlKIIK/VhrO8FAZOOQ9omm27frLNrUtIv2gDgFqlkTYoY/I0xbG7R7OPbKb7ucQawf42QGMPBq4bEKLfCwuKf9sOwloGB1fJ5EeLz7BXjquYzjLVTXVyYFxlCXqQMxyxqixAJrh4nTBwPpn9p/U7QtWlCgZP2L63vYJEieMPX442lM7KOX9br3mAXRYqJt4Y1KDMw6nlDXajPkm+nbU8XHgiWoH36cU6kONEQ1pX2IYoL6pTyfHjah1LfS2MWlvnzbtgHIf91j3hYnpWv2gDg1qhGpMB8hvukAByACKLEkyLiI++NuQDFfVKcB5FrHuD2QaTcBCfecRbuDMXLor4uuxSFtSgiXnjVA3A3IFIAAACgShApAAAAUCWIFAAAAKgSRAoAAABUCSIFAAAAqgSRAgAAAFWCSAEAAIAqQaQAAABAlSBSAAAAoEoQKQAAAFAliBQAAACoEkQKAAAAVAkiBQAAAKoEkQIAAABVgkgBAACAKkGkAAAAQJXcgEh5ax4Xz83D+kOJuzDv6+aXxcKMqrBsvr8raQAAAGASiJSTsWt+NuLk5117bAXLqvlpkA4AAACmUIlI+WieliI09lZwLCzb5qWLd0LEhfeC5GXVh3Us982r5HnfNw/m+NGLht3WxG+aJ+vdKNRn85l0a0nfxq3e2nYU2K2aZrluTPH2+H29tB6VTrQIpuy1KfsHPCwAAACjVCVSehERekcST0kqPnKelAkiRa2vzdeJlihfHitKVjv790+rhRUs383/iBQAAIB51CVSNI+FFQkiGmJOIlK0+or58ohI+WW9a74vF+b/dxsmYiUSKQAAADCZKxEpJZFQh0ixr3ui1zvvVrAgUgAAAOZRv0hpRYgeJ+TyhuKlTXNOkWIXzgZf9CRrVCym7LUpe50KKgAAABhwBSLF0AqH/nVPuKjWYIVEG+cXzhpe15su/HEtZZxTpBiiT5C1L3vemi+m7Oes4AIAAABPJSLlXvhofjDiCE8KAADAOIiUS7HbNs8LBAoAAMBUECkAAABQJYgUAAAAqBJECgAAAFRJVqR8W2/sGoo6v0T5aH7YbJofPrS4M/Gxb9bPZjwM671fVyLtMGGbffMtTQ8AAABHMeJJka9RatzG/dIixYmRL29aHAAAAJyD0dc9X1dnFClvW+uZiLwT4rHY7p2HQuICL8W3/aZL//w8RaS8NV+69NvmaxselbNtPUWFenVR1HpRwjJa4na28VJ+UObXrS/PtNGEf+3y9O1UxwcAAOBOmCBSnpsvU7d2t4beGWwx1EXDGqQVOqMt4cYoO69FIA4iIz/Fk5LxfgzKadNk6h0IjlBECCIkQpESlS8iqU0fhScixZTrx6obN0mvjU97PMC0w5cxmhYAAOAKGBUpggiV52VvYHXEsDuDbA17aLg1Ai+BpxMLijGPRc8EkZKU40nFUyQKVBEhFOo7iUhJhI+QG580XcDXrU+TKRMAAOCKOJ0nRYywN4yp4dYInvwjMsb8akRK6xkZCIsZIkUdnwIiUlweKXNkfAAAACpngkgxxm7qmhQxxK3BTsXAAEmrGeecMRcx0IZL2eNrUkRYKN6HoJxIfJxKpOTERdhfydO1PyNScuOTI6g3bjsAAMB1clqRciBObHivQ2tYs2LBiQ6b1oiCSYbYGnpffm/ww3o7QXGwSIk9JkL/qiUM7/OJp8OGmXp+6MrPiBSDOj5KOgAAgFtk8fd/+pMa4TDGucpPkOsl9SClxwAAADCNrCel7s3cKiby3hgC7wwAAABMZ/R1DwAAAMBngEgBAACAKkGkAAAAQJUgUgAAAKBKECkAAABQJYgUAAAAqBJECgAAAFQJIgUAAAAqpGn+fypxZZ4g6dDuAAAAAElFTkSuQmCC;" vertex="1" parent="1">
          <mxGeometry x="430" y="60" width="553" height="668" as="geometry" />
        </mxCell>
        <mxCell id="SmOc1iF7wK7NT1QSRBLD-3" value="" style="shape=image;verticalLabelPosition=bottom;labelBackgroundColor=default;verticalAlign=top;aspect=fixed;imageAspect=0;image=data:image/png,iVBORw0KGgoAAAANSUhEUgAAAgAAAAEoCAYAAAAub0k8AAAAAXNSR0IArs4c6QAAAARnQU1BAACxjwv8YQUAAAAJcEhZcwAADsMAAA7DAcdvqGQAAAASdEVYdFNvZnR3YXJlAEdyZWVuc2hvdF5VCAUAAKeNSURBVHhe7f1LbB3Xve/7crOZzmkFSDO4AW4nTZGETtIIcva+J419dxppHcTiS1lZB8ltXOQCF0GAALZelCj7AOvcRoIE2Y8syaJEMZRkWZJt2XIcWzIpS2RIx3Z8HCd6i9ZbsmPLD3ncMapqVI0a8ztn1azfdJysNQ18kaqaDzFKqj7/UZMmB1566SXTi1588UVjBgaS/6zqv/yX/9Kv3+fW8ePHO/bMM8/0tKeffrqnPfXUUz3t2LFjPe3o0aM97ciRIz3tySef7GmHDx/uaU888URPO3ToUE87ePBgTztw4EBPm5+f72m/+c1vetrc3FxP279/f+N6MgB42OsOAFX97ne/62kvvPBCT/vtb3/b055//vmeduLEiZ723HPP9bRnn322ZxHgSgS4EgGuRIArEeBKBLgSAa5EgCsR4EoEuBIBrkSAKxHgSgS4EgGuRIArEerdJA8AIdy9GAAIcCUCXIkAVyLAlQhwJQJciRBvGgGuRIArEeBKBLgSAa5EgCsR4EoEuBIBrkSAKxHgSgS4EgGuRIArEeBKBLgSgd5t0gAQ460OAAS4EgGuRIArEeBKBLgSAa5EiCsR4k0jwJUIcCUCXIkAVyLAlQhwJQJciQBXIsCVCHAlAlyJAFciwJUIcCUCXIkwb1LjAYAAVwYAAlyJAFciwJUIcCUCXIkAVyLAlQjxphHgSgS4EgGuRIArEeBKBLgSAa5EgCsR4EoEuBIBrkSAKxHgSgS4EgGuRJA3rdEAQIC7Og0AjzzySL9+/WrUx793EeBKBLgSAa5EgCsR4EoEuBIBrkSAKxHgSoS4UtcDAOHuqxoAPv3006QHDx501SeffNJ1H3/8cdd99NFHXfXhhx923f3797vugw8+6Kr333+/6/7617923XvvvddV7777btfdu3ev6+7evdtVd+7c6brbt2933a1btyoLBwACXIkAVyLAlQhwJQJciQBXIsCVCHAlAlyJAFciwJUIcCUCXIkAV5qdne1uACDYw6oGABV2QrsqgrsqgrtThHZVBHdVBHenCO2qCO6qCO5OEdpVEdxVEdydIrSrIsSrunnzZtv8AECAKxHgSgS4EgGuRIArEeBKBLgSAa5EgCsR4EoEuBIBrkSAKxHgSg7/rgYAQj2uagAg1F0Ed6cI7aoI7qoI7k4R2lUR3FUR3J0itKsiuKsiuDtFaFdFcFdFcHeK0K6KMK/qxo0bLbnzhABXIsCVCHAlAlyJAFciwJUIcCUCXIkAVyLAlQhwJQJciQBXIsCVPP61BwACnaoaADzgX3v4V7X7D8P/GUF3EdpVEdxVEdydIrSrIrirIrg7RWhXRXBXRXB3itCuiuCuiuDuFKFdFaFe1fXr1/PceeJ/YBFh3m0EuBIBrkSAKxHgSgS4EgGuRIArEeBKBLgSAa5EgCsR4EoEuFKIf60BgDBvV9UA4OF2sJ+8+545cfueefLWHbP3+i3zy7XrZuelNfPjc5fM5FvnzLdee8t8dem1ZAAoAD9k/mlgvXnsdbv9+mNmfbZ9//4h8z23/RoDThHcVRHcnSK0qyqjvWqmRwbsX2vWyLRZLT2eRnB3itCuiuDm5syE/3qTRsz2JUb8ztJ2MxI8TmhXRXBXlWK9z4yXvs5hs+1MK+iuG6e3mmH7+NbTDDgVol63a9eu9XQAIMCVCHAlAlyJAFciwJUIcCUCXIkAVyLAlQhwJQJciQBXIsCVYvwrBwCCvFP2KorHXe7C5iF3A8ALd981T9++a1/yABtaecN8cXElGQAKuNtBnx5/9A8Md6cI7qoI7k7FYNfp3ZVpi+OAmZwP8LbHpsP9KIK7Uwx451oQb2m/HQAK1Je2j5iB4SmzBHi3i9BubdYCPmymzqb7BHfn9pmxAPXTW4ft17nVnI4gDyO0q7p2bcb+OUNmy+K1BPiqejUAEOBKBLgSAa5EgCsR4EoEuBIBrkSAKxHgSgS4EgGuRIArEeBKhL+r7QBAiFdl5cbjLj8AOLDdAPDcnXvmiZt3Eux/fvWambp01fzoLxfNd9/8s/nGq2+aL7/yqhl88UwyABRgH2wDffk4oV0VwV0Vwd0pQptbSVb+Dn+CuyqCu1OtiFdHcKfN2gHAwrzUut+KeOcYbp9bwbeu2glubm8+AKRYZ/uLrYjHEdztywaAhXfMO+9U14sBgABXIsCVCHAlAlyJAFciwJUIcCUCXIkAVyLAlQhwJQJciQBXIvh9OAAQ4HVqNwC4H8zjLmx+xe4GgKO37pjZ67eSAeCxy2vmJ+cuJ9u+L7y8bAaff7k0ALz//kGz0UK/81WHNmwf3GnWJ7dzB8z6na8GWK+aneuL270bD6THD2wsjg1sPJChPm/fa8SutNMVePL8+ffM6rRdyWb7I9OrBeyrxfMGBibNfAL4vJm07zE56V6THpuf9M+xTc6lWM9NmoGRHWY53l7eYd9z0sxloBPqcxPB+03MZcfd7Xe7+p5zt9bTxyb2Z6vwbH9k+1IBeXIL3r/PhJkNwJ6YsCvi7Nhs6c+aTWGfnUhW9mcd1rPjxXa0Mi/vp9vj4+69x82+HPEzZtvwgBnfF2C+z73nNnPGbu8dC/78sb0Z3vExi3pyq94fHzN7Hdh7x5KV/WK83QK+2/cr9RTtsbGh5H1m8lX8otkyNGDGZlLcE7RnRs3A0BazYLdnRoOvaXTGPj5jRvOvJz22trZm1hY2m6H8+KjZ445lqQMAAa5EgCsR4EoEuBIBrkSAKxHgSgS4EgGuRIArEeBKBLgSAa5E6Ie1DAAEeN3s1azlmP/JfO7C5iF3A8D8jdvm19du2Jc8MA9fuGJ++PaFZNs3+MJpM/jMC8kAUKzUM+hXHeAHom17MV2/06w68FfdIOAfSz9HL6HdUob+qt+27zUybVYc5vMWZrs/Mr2Srs6T/TL00ytu267WLeIjO5Yt2HP2uH1Nsl0gnuYeGzE7li3qcxbRke1m2eEdbi9bmP12VLgKTwtvubtt97VvN0vusf32Pe3+8NRSgXYEfb5St4+lz3NIu9eczQAPCzAP0U+2U6zjlfmZbe7WeviYfe9tZ5LHwlX4DYezh9zm0B/b61fraWW0CfBg377f8NZFc23Gvq8FetGtxsPt6Nb84haLffaYh3toy0K2Mnf72SregZ/gnq7YHfqjewrA0/Ykz9+8EG8X+5tOXTVXr9oe32CGNp1Kt23KAECAKxHgSgS4EgGuRIArEeBKBLgSAa5EgCsR4EoEuBIBrkSAKxH4caUBIMa726wubXMXNg+5GwB2X7tpfnb1mn3oQX7r/5urb5qvuFv/L501g8++ZAaPPJsMAMVKPkY/RNtvp83b1b1buacr9I1m3h4r32a3Zbinecgj1AOwY8DTlbp/fZZd3d/1K/HlAG8HfP688mMtqCcr8wmzPz4elGLu389D3v72u9svAX52KlgtZ43Plp5TWo3nz2v/zXKultW5W4nniAfgh/s56Nmq3W3nK/UU8/DPD1fp+Wfri1uCVXXW2Ez6WIJ6CnZRtDq3K/GZ0mOtaBeg+1W73R7abBYy+B3mxft55B83G0LwT21q/To37DZXrlxJajoAEOBKBLgSAa5EgCsR4EoEuBIBrkSAKxHgSgS4EgGuRIArEeBKhD2VDwAEerfZq1m+7Vf+4R0AD7kbAH6xdt1MX1qzLylW/WGDx543g4eeSgaA9iv1dDtGO/wMPf1mOr9i96h7vP1t9mWzY8Qjz+AXYAe4u5W6hXrOI5+XPcd/93sJ9CWz3f5Z9J3xKdquJTM1PGAmZv1+1JLDO13J37p11j43Q710u739fgL4mW32Pdxt+Bjx6LP15Hke8dNmq/2zOn83fIh6XPxYed+twoe2LOb/WcDubsM7yN0t+OI2vUM5/2x9wT0vRJzjVXpc+bEY8VOb7NdnV+3+PwvYN5jH7faVKyfNJvt1bjrpUN+dvjbZtp1Mn7c7A993+fLlpCYDAAGuRIArEeBKBLgSAa5EgCsR4EoEuBIBrkSAKxHgSgS4EgGuRNC3KxkAQsSVrNzJf8b4+wHAQ+4GgEct/u5z/++/dd58+/U/meHfv2G+tLhiBn/3ihk8/qIZPHzcDP7mSDIAeLjL0MfbwS33FtzhdnzymXtwyz1HPl69l/fplnvpc/Wk8nfC+8/Lk++ET/C2KLtVeXg82E6wdrfV7XuPz3q8bXbVPuX2w9vvyUregx3h3XHffRf8gBneepoB98hnn5u7746/vpj963AO7PDz9HA7Qt2vwNOiVTut4ofG7Ko6gDz4jD1F3qNfDAAF2gNmaPNCtp+1x70+W6UH2y0r81LxY9l+iPjQBrPBlkO+267+hzaZk/7x7PmXL++yr11nHjmZAp/uD5h1j5zM0Q/rdgAgwJUIcCUCXIkAVyLAlQhwJQJciQBXIsCVCHAlAlyJAFciwJUI+U4NxIgruQGA8He5C5uH3A0APz1/2fzg7fPmO2+8bb6+8sf0u/7drf8Tp8zg0RNm8OAxMzh3OBkACrjD1XnrdvpNd+lt1Yk5D7hHvLjlmj62bFfi2bGRCTORr8rLeLfbz2+zJ6AX751+k1x8Kz5d0SePD4+bcb9ib/kc3X8jXVq6+g7eO/8sPf2mufD9CtQDvNvdcvf7pW+as43tbQH8+vVFu+r3f9aYGbN/VgJ2zc/WfekKPFq1t+wvJN9k5z9jTxFfMJvdMffn28Fg1K6s/cp8j/+mu9E9yX7L7fUNj6e35Yc2mVMO8nA7Rr1UtGqP9i9fPmkeWefef1eAd3bM/bnr7HCwrkB/14bs+EO7zKVLl8yllx4x68Kv0x+3dTMAEOBKBLgSAa5EgCsR4EoEuBIBrkSAKxHgSgS4EgGuRIArEeBKBHxVn8sA4FDvJod/gXn9ihV5vUq32WuWr867qLjdXq8U7+5K8e6uEOw6pWh3V74y76LWFXrnypjXq4C8fh7tbrp48WLH6g4ABLgSAa5EgCsR4EoEuBIBrkSAKxHgSgS4EgGuRIArEeBKBLgS4V6nng0ADvmqAaBYyacR2lUR3FUR3J0itKsiuKsiuDtFaFdFcFdFcHeK0K6K4K6K4O4UoV0VoV0VQV7VhQsXsM9jACDAlQhwJQJciQBXIsCVCHAlAlyJAFciwJUIcCUCXIkAVyLY69aTAcAjXzUAEOguQrsqgrsqgrtThHZVBHdVBHenCO2qCO6qCO5OEdpVEdxVEdydIrSrIrSrItCrOn/+fKk6AwAh3jQCXIkAVyLAlQhwJQJciQBXIsCVCHAlAlyJAFciwJUIcCVCvZvkASBEvmoAIMjDCO2qCO6qCO5OEdpVEdxVEdydIrSrIrirIrg7RWhXRXBXRXB3itCuitCuKka9TufOnUuqGgAI8aYR4EoEuBIBrkSAKxHgSgS4EgGuRIArEeBKBLgSAa5EgCsR6N0mDQAx8lUDQL9+/aprNwAQ4k0jwJUIcCUCXIkAVyLAlQhwJQJciQBXIsCVCHAlAlyJAFcizJvUeAAg5DsNAGH+AtevX7/2fVb4uwjxphHgSgS4EgGuRIArEeBKBLgSAa5EgCsR4EoEuBIBrkSQN63RAECou/oDQL9+vauPvx4BrkSAKxHgSgS4EgGuRIArEeBKBLgSAa5EiCt1PQAQ6L66A0DYCy+80NN++9vf9rTnn3++p504caKnPffccz3t2Wef7WnHjx/vac8880xPe/rpp3tauGrvRQS4EiHeNAJciQBXIsCVCHAlAlyJAFciwJUIcCUCXIkAVyLAlQhwpX379nU3ABDgYd0OAAS4EgGuRIArEeBKBLgSAa5EgCsR4EoEuBIBrkSAKxHiTSPAlQhwJQJciQBXIsCVCHAlAlyJAFciwJUIcCUCXIkAV3L4dzUAEOBx3QwABLgSAa5EgCsR4EoEuBIBrkSAKxHgSgS4EgGuRIArEeJKhHjTCHAlAlyJAFciwJUIcCUCXIkAVyLAlQhwJQJciQBX8vjXHgAIcKruAECAKxHgSgS4EgGuRIArEeBKBLgSAa5EgCsR4EoEuBIBrkSIN40AVyLAlQhwJQJciQBXIsCVCHAlAlyJAFciwJUIcKUQ/1oDAAHerk4DAP3rTv369fv8ItyrIsSbRoArEeBKBLgSAa5EgCsR4EoEuBIBrkSAKxHgSgS4Uox/5QBAkHeqagD49NNPkx48eNCoTz75pFEff/xx4z766KNGffjhh426f/9+4z744INGvf/++43yv965ScWveO4u//skui3+MdTdRD+9sk70w67qRD/wqk70Q6/a1WQAIMSbRoArEeBKBLgSAa5EgCsR4EoEuBIBrkSAKxHgSgS4EuHvajsAEOJVVQ0AfdC7i7CuE2FdJ4K6boR1nQjrOhHUdSKo60ZY14mwrhPBXTf6iZZh3Q4AhLgSId40AlyJAFciwJUIcCUCXIkAVyLAlQhwJQJciQBXIvh9OAAQ4HVqNwC4z+ndBYcwdxHUdSOs60RY14mgrhthXSfCuk4EdZ0I6roR1nUirOtEUNeNsK4TYV0ngrpuhHid6MdUu7oZAAhwJUK8aQS4EgGuRIArEeBKBLgSAa5EgCsR4EoEuBIBrkToh7UMAAR43WgA8N+o5y44Hu2vPfyr2rlfB0yAxxHWdSKo60ZY14mwrhNhXSeCum6EdZ0I6zoR1HUjrOtEWNeJoK4bYV0nwrxO8e+dcOej/4FDhL6PAFcixJtGgCsR4EoEuBIBrkSAKxHgSgS4EgGuRIArEeBKBH5caQCI8e62eADw+PsBwGPtYD959z1z4vY98+StO2bv9Vvml2vXzc5La+bH5y6ZybfOmW+99pb56tJryQBQgH3I/NPAevPY63b79cfMer8dHCeo60RQ142wrhNhXW7V7Fw/YP9as9bvNKv2OEFdN8K6ToR1nQjquhHWdUqBnjUT/u8ta3hqqQR4HEFdN8L65s19Zjz6Gsb3lZ9DWCftHUtfM7zVnIb9GPRucr9Iqs4AQIArEeJNI8CVCHAlAlyJAFciwJUIcCUCXIkAVyLAlQhwJcKeygeAEO6m2StUvh3i7wcAD7kbAF64+655+vZd+5IH2NDKG+aLiyvJAFBAfch8z0H/WhlvOk5Q142wrhMjXh1B/d7qtBmxf58b58vHpsN9G2FdJ8K6TgR13QjrOhHWrTnwh83UUrE/7vbPMthVhUh3UxnyvWbMfg1bT2f7p7ea4YExs7f0nLQy0u51A2Zsb7v9ovg3RNatagAgwJUIcSVCvGkEuBIBrkSAKxHgSgS4EgGuRIArEeBKBLgSQd+uZAAIEVeycif/GeMfDgAOZzcAPHfnnnni5p0E+59fvWamLl01P/rLRfPdN/9svvHqm+bLr7xqBl88kw8AKc4HE+gf/UOMdrvjaYR1nQjrOoVAd1sK9IqZHhkwk/OtcLeLsK4TQV03wrpOrXjXi6AuisEv9gnqusVQ162A2w4Aix7seL+1FOgZ+7whs2XRgx3vc/Trn9vVaQAgwJUIcCVCvGkEuBIBrkSAKxHgSgS4EgGuRIArEeBKBLgSId+pgRhxJTcAEP4ud8Hxq3M3ABy9dcfMXr+VDACPXV4zPzl3Odn2feHlZTP4/MvJAFBgnkK/81UH9EGzMd4+uNOst1+Du1W6fuerAeavlm6lbzyQQn1gY3FsYOOBDPAD6XsdKN7LrcJXp0fy545MrxZoZyv19LGNZj45Pm/fY8Rs3OheM2nmLdDzk/45tsn5FO75STMwMm1W4u0V956TZg7A9s2V3m8uOz5nV8EjZvvc9vxrmpi7a5a3B1/79uUC8eXieQMDE2Z/AvT+5D0mJtxr0mP7J/xzbBP7U8j3T9ivd7tZcqDP2u3hKbPksV6asivd4n1nby+ZqeHgFnz2/LMh1LPFa4anzmaI286G7zVgxmc96O72+rAZHx/OH8sb35c/vu1MDHqK8NiYe126Gt87Frx2bG+GeIb1XrdqTx9zK/DFrcWfN7x1scB7sXhe8r7JcfceAdwzY/b9ZzKw2yHv/tO/z4AZ2rLFjJb2F1LEF7aYofz4qJlJYJ+xzx0yo6NDybE9awtm81Dx2tE9a2ZtLa3dAECAKxHgSoR40whwJQJciQBXIsCVCHAlAlyJAFciwJUIcCUCvqq/6QDgIXcDwPyN2+bX127YlzwwD1+4Yn749oVk2zf4wmkz+MwLyQBQQA7or3q07UUu+4z8r6sOb/9Y+jn6+p2rGfC0Qk/Bnl712/a9LMar7rH5jfbrSdHP0c5Qf/fdeTPpXrfittPHRqZXsuPuNW47fazAey55zY5luz3n0N9hlt3xcHt5hxnJtsMVN5ehv+y33deewpwg7b6O7UsF2hH025fcdvpY+jx3vN3n5cFt9hB9At2vxGfHM9Dd8XEzm/9n9niyb7/m4W3mjEP6zDYLqYc7/Qw9/9wcHhveeroMtr/dnuyn8PnG9hbHS3jnZe+RrNCz1w9vNYvusewz+KEtiwXmFvoZwtw+lj6vjHkBdYH1lgXaLz+2trYn2d+84AGP9veMmqHNC9lx+zUm22vm6uMbzMCGx83Vq1dbogGAAFciwJUI8aYR4EoEuBIBrkSAKxHgSgS4EgGuRIArEeBKhHudejYAOOTtFa5t7oLjIXcDwO5rN83Prl6zDz3Ib/1/c/VN8xV36/+ls2bw2ZfM4JFnkwHAw52vznP00+0y4GnzdnWffH6erND9yrxcirm/OHvII9Tb7CeAO6jz12clq/EAeQ+/Az5/nge7TcnKfMLMBcf87fO8DPf8/RLII9Sz/fBz8Rzw0io9a2K29Jx8FW4RL54X4E5FK/akZEVu0d6Xvk/5G+HKK3WHt1uRJ1jDZ+b5YxH49W+3l48XmPuv10PeboVe7OdIl1bjWaMzrcgnz/Nwd0KdH9t0KgP81KbWPy+B/nGzAZ43tOmUuXLlSql4ACDAlQhwJUJciRBvGgGuRIArEeBKBLgSAa5EgCsR4EoEuBLBXreeDAB+lW+vRPl2nLvgeMjdAPCLtetm+tKafUmx6g8bPPa8GTz0VDIAFGjHK/VoO0c6+Aw9u52ertiDSsdXzI4RD3aMd4f9ZAAoQ50WrsptJdCXzXb7ZxVIU0v2OQNmYj89difD291ad6i72+sZ6vCNcOF+aXWeQB2uxH3RCj573r4E6zNmm/2z4tvqpZJVun9+9Bl6topOAfeVIb9x47TZOpzebk9vq/vb6WnpANAKud9vD3ab44sO5XQl/847C2bLkAe70wq9vL+2sNm+h7vl7sEuw11Ant6ST2/F7yljXcI7gjzav3LSwb7B7I5Qv3Jld/q8k+XjJze5jwQGzIbdV8zly5eTwgGAAFciwJUIcCVCvGkEuBIBrkSAKxHgSgS4EgGuRIArEeBKhHo3yQNAiLy9ypT2w9wFx0PuBoBHLf7uc//vv3XefPv1P5nh379hvrS4YgZ/94oZPP6iGTx83Az+5kgyABRwh6vxeDu45V76DH3Z4m4f27GcAZ4V33LPUL8b491xP73l7j5XLyPdens9vy2/5IaB7DF/PLiNnn+O7vbte0/MZvsuC/+U2w9vuSdAe7AjvNvsl26hbztTBjz+7Nyt2qPb8wnWDvPwX1Hz2/ktdn9rPi0F2mHu/zOEO7glX0I/fWxsphXrqhV6K9itcCf7M6NmYGiLWXDbtVfo8b7bTlfaKdgMd7oi9/unzCY7DGx43ILuoN69wf7v7fGOIad99+edzEFP22WPrzOPnAyPpZ18ZJ1Z90jx/M9qACDAlQhwJUK8aQS4EgGuRIArEeBKBLgSAa5EgCsR4EoEerdJA0CMfNUA4CF3A8BPz182P3j7vPnOG2+br6/8Mf2uf3fr/8QpM3j0hBk8eMwMzh3OB4DW1Xjr9uRk8c1uk3PuuP8MPYXaP+a+MS5diWfHRibMhFuV56gHeLe5rZ7vJ6AX7+2+Sa51JZ5+E1zy+LD9s/yKve3n6Fnx7fT88bPB+42b8XxVHuFdsZ/eYg/eP/kGOIdu64o8/bPGzJj9s9xjyWfi4efjfjtHPHzfrcl7OOQdzotb7IrUorsYwD02lq5SXTn4rgR9/14h6K3Az4xmz4tuvxcr8hhuV/CNckOjZnSoQL2Ed8WqvOW2/IbdOdT5Mff8cHWeoO+fvyF5vxTvGHKA/eQjZl343g/tMpcu7TIPuee9dMlu23Y9VDw+8JDZ5Y5lfRYDAAGuRIArEeJNI8CVCHAlAlyJAFciwJUIcCUCXIkAVyLMm9R4ACDk7VUGj7vCAcCh3k0p/iHo3Zfi3X356rtBOeRdlmLdfeGKu9vS1Xj35VB3mUe7/Uq9fWXQ65fC3X052A3Kwe4yD3W3Xbx4sVa9HgAIcCUCXIkQVyLEm0aAKxHgSgS4EgGuRIArEeBKBLgSQd60RgMAAe+qGgBCyPugV0dQ142wrhNhXSeCul7pAFCsyOtHWNeJoK4bYV0nwrpOhHedLly40LFeDgAEuBIBrkSAKxHiTSPAlQhwJQJciQBXIsCVCHAlAlyJEFfqegAg3H1VAwBB7iOs60RQ142wrhNhXSeCum6EdZ0I6zox1vUirNtX3JInrOtEUNeJoK4bYV0nwrpOhHjdzp8/31KvBgACXIkAVyLAlQjxphHgSgS4EgGuRIArEeBKBLgSAa5EgCvt3bu3uwGAYA+rGgAI8DiCum6EdZ0I6zoR1HUjrOtEWNeJoK4bw10dYV0nwrpOBHXdCOs6EdZ1IqjrRqDX6dy5c3m9GAAIcCUCXIkAVyLEm0aAKxHgSgS4EgGuRIArEeBKBLgSAa7k8O9qACDU46oGgH79+v39pAwABLgSAa5EgCsR4kqEeNMIcCUCXIkAVyLAlQhwJQJciQBX8vjXHgAIdKrTABDmLzz9+vX7/CPgO0WAKxHgSgS4EgGuRIg3jQBXIsCVCHAlAlyJAFciwJUIcKUQ/1oDAAHerjoDwG9/+1u8CPXr1+/ziZBvFwGuRIArEeBKBLgSId40AlyJAFciwJUIcCUCXIkAVyLAlWL8KwcAArxTVQOAw7+XPf/88z3txIkTPe25557rac8++2xPO378eE975plnetrTTz/d05566qmeduzYsZ7mfyZ/ryLAlQhwJQJciQBXIsCVCPGmEeBKBLgSAa5EgCsR4EoEuBIBrkT4u9oOAAR4VZ0GAAJciQBXIsCVCHAlAlyJAFciwJUIcCUCXIkAVyLAlQhwJQJciQBXIsCVCHAlQlyJEG8aAa5EgCsR4EoEuBIBrkSAKxH8PhwACPA6tRsACHAlAlyJAFciwJUIcCUCXIkAVyLAlQhwJQJciQBXIsCVCHAlAlyJAFciwJUIcCVCvGkEuBIBrkSAKxHgSgS4EgGuROiHtQwABHjdaAAgwJUIcCUCXIkAVyLAlQhwJQJciQBXIsCVCHAlAlyJAFciwJUIcCUCXIkAVyLAlQjxphHgSgS4EgGuRIArEeBKBLgSgR9XGgBivLstHgAIcCUCXIkAVyLAlQhwJQJciQBXIsCVCHAlAlyJAFciwJUIcCUCXIkAVyLAlQhwJUK8aQS4EgGuRIArEeBKBLgSAa5E2FOf2QBAgCsR4EoEuBIBrkSAKxHgSgS4EgGuRIArEeBKBLgSAa5EgCsR4EoEuBIBrkSAKxHiSoR40whwJQJciQBXIsCVCHAlgr5d+QAQQt40PwAQ4EoEuBIBrkSAKxHgSgS4EgGuRIArEeBKBLgSAa5EgCsR4EoEuBIBrkSAKxHgSgS4EiHeNAJciQBXIsCVCHAlAlyJkO9UMgDEkDfNDQAEuBIBrkSAKxHgSgS4EgGuRIArEeBKBLgSAa5EgCsR4EoEuBIBrkSAKxHgSgS4EgGuRIg3jQBXIsCVCHAlAlyJAFci4KsaIMib1usBgABXIsCVCHAlAlyJAFciwJUIcCUCXIkAVyLAlQhwJQJciQBXIsCVCHAlAlyJAFcixJtGgCsR4EoEuBIBrkSAKxHudfq7HQAIcCUCXIkAVyLAlQhwJQJciQBXIsCVCHAlAlyJAFciwJUIcCUCXIkAVyLAlQhwJUJciRBvGgGuRIArEeBKBLgSwV63ng0ADu1OAwD9MpJ+/T6vCH0fAa5EgCsR4EoEuBIB3in636dfv8+rfy/4u3oyAHjkqwaATz/91Dx48KBWn3zySe0+/vjjWn300Ue1+vDDD2t1//792n3wwQe1ev/992v117/+tVbvvfde7d59991a3bt3r1Z3796tFf1a6HbRr4Gm6Nc++9z/Fwl+FwGuRIArEeBKBLgSAV9V/9rA14I4ug5QdB2g6BrQLroOUHQdoOg6QNE1oF10HaDomuALBwACXIkAVyLQu00eAELkqwaAJicxnawUnaztohOWopOVopOVopO1XXTCUnSyUnSyUnSytotOWIpOVopOVopO3HbdvHmzpXYDAAGuRIArEeBKBLgS4V6n/rWhf22oiq4DFF0D2tXu2vDvBX+XNADEyFcNAE1PYBedrBSdrBSdrBSdrO2ik5Wik5Wik5Wik7VddLJSdLJSdLJSdLK2i05Wik5g6saNG6VoACDAlQhwJQJciQBXItjr1r82FNF1gKLrAEXXgHbRdYCi6wBF1wGKrgHtousARdcBiq4NBLgSAa5EkDet8QBAyFcNAP6E/drDv6rdfxj+z5/ZCeyik5Wik5Wik5Wik7VddLJSdLJSdLJSdLK2i05Wik5Wik5WKj6BO3X9+vUk9/9F/6tw+/jrEerdFF4b/u//ry0dC0EPo+sARdeAdtF1gKLrAEXXAYquAe2i6wBF1wGKrgMUXQPaRdcBiq4DFF0HKLoGtIuuDYR5txHgSoS4UqMBgIB3VQ0A/mR1sJ+8+545cfueefLWHbP3+i3zy7XrZuelNfPjc5fM5FvnzLdee8t8dem1ZAAoTuBD5p8G1pvHXrMn6GuPmfV++/4h8718+7M7gV10wlJ0slJ0shatmOmRAfvXmjWywyzDSRtHJyxFJytFJytFJ2u76ISl6GRNOr3VDA8Mm62n031/Ald17dq10klOgCsR4EoEuBIBrkSgd1t4bXDI//a2MSduGXP0hjGz7xjzy8vGbDtnzP/t//v/S86DEPT+taF/bWipR9cGAr2bCHAlAlxpZmam+wGAcPfZ/yficZf7i/UnqxsAXrj7rnn69l37kgfY0Mob5ouLK8kAUJy4xclcPlEPJscf/UN4rIhOVopOVopOVopPXK7lZF3eYUbs3+fkXPnY9jk+YePoZKXoZG0XnawUnaxUy4nbJjpZ2+VO4qo+qwGAAFciwJUIcCXCvEnhtcENAIevG/M/Tf6q1P/nLWP+tz8UQ0CIef/akB7rXxs6R9eCuF4NAAS4EgGu5PDvegAg2MPsmYnHXf4kdyerGwCeu3PPPHHzToL9z69eM1OXrpof/eWi+e6bfzbfePVN8+VXXjWDL55JBoDihG09mdMT9KDZaI/vfLX1xPXRydouOmEpOlmp0snboeIkXTbb7XQ/0eGEphOWopOVopOVopO1XXTCUnSyUnTCUu+8807HPosBgABXIsCVCHAlgrxp4bXBDQD/7Uo6APyfF43Z/Bdj/t//V4r/t5Y/Nf/r0if5EFBcF/rXhjC6DlB0HaDoOkDRNaBddB2g6DpA0XWAoutBWC8GAAJciQBX8vh3NQAQ6nFVA4Cf1t0AcPTWHTN7/VYyADx2ec385NzlZNv3hZeXzeDzLycDQHGyhiczbB/Yadbbr8FdHNbvXA1O3FWzc31xu2zjfHqSzm8sjg1snM9O3nn7XiNmen46mbLdY5Pz75qV6ZH8uSPTK8UJnE3j6WOTZi45YefMpH2PyUn3mvTY3KR/jm1iLj1Z5ybMwMh2sxxt31nabt9zwuyHk9a3fyJ8v9nsZJ01EwPDZmp2ygxnj03M3jZnp4bz5w5PnS1O2rPF8wYGxs1schLvM+P2PcbH3WvGzT57su4b98+xje9LT+C9Y2ZgeKs57U7UcNu2dyx4/tje4ERdNFuHi8fG9mbHF7eaoezY0JYtZmxgyGxZdCfsTLAd7C+4k3XGjEbbo6ND9j1GzYw7mRe25O/pju1ZWzNrWfEAYJ/QAno3EeBKBLgSAa5EiCuF1wY3ALjb/X7V7+8AJPif/dj8P07fN/9p8f18COhfG1rrXxt6c20g3KsiwJUIcKUQ/9oDAIFO2b9NPO5yf7F+MncDwPyN2+bX127YlzwwD1+4Yn749oVk2zf4wmkz+MwLyQBQnKwH0pN5lbbt/5gj02bVnair7gS1J+qqO2lXk8/KRqZXs5M4zZ+kafPJSTm94rfT91pxJ/HcpP167Ot3LKfTeLJfPpl3LGcTuj1RR7Yv2+05e7LZ1yTb9njQnTv77WMjZvuSPVn3pyf2kjtxw213krvtYApv32xyUk6ddSeu27Zf+/CUOetO4tnx5Gv3J/bNfW4/PXH9ybztTDaV28eGt51Jjo+512w9XZrE0/bax7LP1rITe9GdpOF2qez5i25CXzRbhtxJvJidsOGJa0/4mXR/YYs7UelELu+vre1JtjcvuBPXbdv33ryQncjhY2vm6uMbzNCmU+bq1atJ4Ulu/zBEvW4EuBIBrkSAKxHgSu6n8oXXBjcA/O9/TOH/f64Uq/7/9cxHKf4LfzX/6dS75j+evJf8f7t/behU/9qgXBsI+E4R4EoEuFKMf60BgDBvl/1fp23uL9ZP624A2H3tpvnZ1Wv2oQf5rf9vrr5pvuJu/b901gw++5IZPPJsaQDIJ/Dk5G23nZ7A83aqdtP5uyvuhJ8086WTOs2fwGnpyRqeuMlJbfeTk3LZn6jB/rKbxv3rsyb2l09kd9L6kzh/3oiZWqITNmvJTd8TZtZu5xN5XHYCp/mTNTpx2+wnJ2nyjTL+9Vl2Ig9P5PxkdSdx/rz0pA1P5vJJa5sJn29PSjelL7qpO5vAw9w0PrTFLOTH0hO5OHmLk7X1xB4ym065E/dxsyHftp3aFEz4WRt2mytXriTFA0C/z7fw2uAGgG/9vvV7ANyq/z+9/F4C/3986Y75jy/eti8tBoD+tSGof23oybWBkG8XAa5EgCsR/q6OAwAh3yn7t4nHXe4v1p+sbgD4xdp1M31pzb6kWPWHDR573gweeioZAIrpPJ7GaduVfods8k0yyW04P5UHBcfTz9X8idz+pE5P2OAEbnM7Lr/d5k/k4KS9fXvJTA0Xj+EJfOusfc6AGZ8tjqUnadaZbfb9/LR+xmyz7+dP8nwKj6fyaN/dWhseGDN7g5M1rZjMk/3kFtyYmUlOYDepZydtfGLb8pM2P5kX0ue7KT04np6wWQub7Um+2Szkx4oTueXkLe3D9sn0JL5y0p3kG8zu7KQOu3z5cssAQCv7qmj1rkSrdyVavSvR6l0p/Ln84bXBDQD5in/xg2DFfzeH/3/53S3zv7xw0/5PN9C/Ntj614bP5tpA0FMEuBIBrkTw+9oOAIR4Ve5iSsdd7i/Wn6xuAHjU4u8+9//+W+fNt1//kxn+/RvmS4srZvB3r5jB4y+awcPHzeBvjiQDQDGZFydzeRp328GtuJYTGG65hZ+xJdN6duK2TOi0709SdzK722hL6cmcl53kya03m5vI/a235LO17LHs+Bl3srpbcMPb0m2/b997fF+2b3OT+da99mTNbqsln6uV/pWX4CSmE7a077bb3XYLTmQ3sfspPDlRs5N2ZrQ4Hmyv7XHb2UnrTmD7/HQqXzCb3W2+/FacO4n9CTpgNjyensinNqW3+dKT95TZZF+zYXd2ku7ekD6WnMy7gxM73X7k5OXkJL58eVfynuseOZntlwtPcoe5+/9tDHynCHAlAlyJAFciwJVC/P0A4K8NpZVZjfrXhv614bO6NhD2cQS4EgGuROiH4QBAgNfJ/i+Ax91v43N/sf5kdQPAT89fNj94+7z5zhtvm6+v/DH9rn936//EKTN49IQZPHjMDM4dTgaAYjqPT2x78gWT+cRE8c045e+SdY8XF42J/e5kXUpO/uTYyISZcFO+PZFbJvR2+/4ELn2zjG181h4PP3tzE7qbxLPHh8fNuJ/KwxM72S6+WSYpvhWXPV76hpnhMTNm3684cYuTuuWEjfeTW2/B+4/O5LfZkhPZncDJpJ49PjRqRu3Unpy04ckcbmcnc/r8DWaDfX55Ss8es7kTuzh502NDmzYFJ2/5sYEN9v0G1mUnszuRafuyuXTpkrn00iNmnX+d66Fd6XFbPAB0EwGuRIArEeBKBLhSjL8fAArIO1dcC+L614b+taG31wYCP4wAVyLAlQj8uJYBgACvm/3bbDnmfx1veJI71LupOFm5dPquLj1J65WcwDXyE3hV+YlbUTqN1ys9catLT9bq/PRdVXrC1is5UWtUTOHlEzbOn6hVXbx4sW1NBwACXIkAVyLAlQhwJcLfFV4bGPfW6DpA0XWAomtAu+g6QNF1gKLrAEXXgHbRdYCi6wBF1wGKrgHtousAVZz/f9trA6HvI8CVCHAlwp4qDQAx3t0WDwAefz8ANDmBXXTCUnSyUnSyUnSytotOWIpOVopOVopO1nbRCUvRyUrRyUrRydquS5d2mYfcSf4Sn7w+OnmpCxcutNRkACDAlQhwJQJciQBXIvh9/WtDGl0HKLoOUHQNaBddByi6DlB0HaDoGtCuv/W1geD3EeJNI8CVCPp25QNACHfTwgEgxN8PAH9PJ7CLTlaKTlaKTlaKTtZ20clK0clK0clK0cnaLjpZKTpZW8tO8hf5pA2jE7hd58+fz+t2ACDAlQhwJQJciQBXIvTD+teGIroGtIuuAxRdByi6DlB0DWgXXQcovhbE/W2vDQS/ixBvGgGuRMh3KhkAQsSV/AAQ4+8HADp5fXTCUnSyUnSyUnSytotOWIpOVopOVopO1nbRCUvRyUrRyUrxCcvRCUvRyUqFJ3Cnzp07l9TNAECAKxHgSgS4EgGuRODH9a8NrdF1gKJrQLvoOkDRdYCi6wBF14B20XWAousARdcBiq4N/9bxdw3EiCu5AYDwd7m/2H79/l6qMwAQ4EoEuBIBrkSAKxH2FP3v06/f51W7AYAQbxoBrkS41+lvNgCE+b/gfv0+7wh+FwGuRIArEeBKBLgSQV8n+t+oX7/Po88Kfxch3jSCvW49GwAc7P0BoN8/Wn38/37wd9H/Rv36fR79W8ff1ZMBwMNedwCo6sSJEz3tueee62nPPvtsTzt+/HjPeuaZZ3ra008/3dOeeuqpnkaAKxHgSgS4EgGuRIArEepKhw4d6mkHDx7saQcOHOhp8/PzPe03v/lNT5ubm+tp+/fv72nhqr0XEeBKhHjTCPRukweAEO5eDAAEuBIBrkSAKxHiTSPAlQhwJQJciQBXIsCVCHAlAlyJAFciwJUIcCUCXIkAVyLAlQhwJQJciQBXIsCVCHAlQrxphHmTpAEgxlsdAAhwJQJciQBXIsSVCPGmEeBKBLgSAa5EgCsR4EoEuBIBrkSAKxHgSgS4EgGuRIArEeBKBLgSAa5EgCsR4EqEuBJh3qTGAwABrgwABLgSAa5EgCsR4EqEeNMIcCUCXIkAVyLAlQhwJQJciQBXIsCVCHAlAlyJAFciwJUIcCUCXIkAVyLAlQhwJQJciSBvWqMBgAB3NR0ACHAlAlyJAFciwJUI8aYR4EoEuBIBrkSAKxHgSgS4EgGuRIArEeBKBLgSAa5EgCsR4EoEuBIBrkSAKxHgSgS4EiHetD179nQ/ABDgviYDAAGuRIArEeBKBLgSId40AlyJAFciwJUIcCUCXIkAVyLAlQhwJQJciQBXIsCVCHAlAlyJAFciwJUIcCUCXIkAVyLEm+bw73oAIMDDuh0ACHAlAlyJAFciwJUIcSVCvGkEuBIBrkSAKxHgSgS4EgGuRIArEeBKBLgSAa5EgCsR4EoEuBIBrkSAKxHgSgS4EiGu1PUAQIDHdTMAEOBKBLgSAa5EgCsR4EqEeNMIcCUCXIkAVyLAlQhwJQJciQBXIsCVCHAlAlyJAFciwJUIcCUCXIkAVyLAlQhwJQJcyeNfewAgwKm6AwABrkSAKxHgSgS4EgGuRIg3jQBXIsCVCHAlAlyJAFciwJUIcCUCXIkAVyLAlQhwJQJciQBXIsCVCHAlAlyJAFciwJVC/GsNAAR4u+oMAAS4EgGuRIArEeBKBLgSId40AlyJAFciwJUIcCUCXIkAVyLAlQhwJQJciQBXIsCVCHAlAlyJAFciwJUIcCUCXIkAV4rxrxwACPBOdRoA6Jcu9Ov3t4wQbxoBrkSAKxHgSgS4EgGuRIArEeBKBLgSAa5EgCsR4EoEuBIBrkSAKxHgSoS/q+0AQIhXVTUAfPrpp+bBgwe1+uSTT2r18ccf1+qjjz6q1Ycfflir+/fv1+qDDz6o3fvvv1+rv/71r7V67733avXuu+/W6t69e7Wi3+1O0a9+pehXv1L0q199vRwACHAlAlyJAFciwJUIcCUCXIkAVyLAlQhwJQJciQBXIsCVCHAlAlyJAFci+H04ABDgdWo3ALhb9e4C/O8ZeIKcIsgpgpwiyCmCnCLIKYK8XYQ5RbBT9LvdezUAEOBKBLgSAa5EgCsR4EoEuBIBrkSAKxHgSgS4EgGuRIArEeBKBLgSAa5E6Ie1DAAEeN1oAPCf1bsL8D8a7i7CnCLMKcKcIswpwpwizCnCnCLIKYKcIsgpwp26ceNGqV4MAAS4EgGuRIArEeBKBLgSAa5EgCsR4EoEuBIBrkSAKxHgSgS4EgGuRIArEfhxpQEgxrvb4gHA4+8HAA/61x7+Ve3+w/B//syAJ8gpgpwiyCmCnCLIKYKcIsgpgrxdhDlFmFOEORUD367r168nuf//+V/zSbhXRYArEeBKBLgSAa5EgCsR4EoEuBIBrkSAKxHgSgS4EgGuRIArEeBKBLgSYU/lA0AId9PCASDE3w8AHnIH+8m775kTt++ZJ2/dMXuv3zK/XLtudl5aMz8+d8lMvnXOfOu1t8xXl15LBoAC90PmnwbWm8des4C/9phZ77fvHzLfy7f/LQG/YqZHBuxfa9bIDrMMsPsIc4ogpwhyiiCnyojvM+MDw2bbmfBYGkFOedyrunbtmjQAEOBKBLgSAa5EgCsR4EoEuBIBrkSAKxHgSgS4EgGuRIArEeBKBLgSAa5E0LcrGQBCxJX8ABDj7wcAD7kbAF64+655+vZd+5IH2NDKG+aLiyvJAFCgXkBfRvxgcvzRP4TH0ghyiiCnCHKKQW+NIE9a3mFG7N/n5Fy6n+C9vN1sn2sFPY4wpwhzijCnYsjblQK+14zZAWDr6VbYfYQ55YCvqukAQIArEeBKBLgSAa5EgCsR4EoEuBIBrkSAKxHgSgS4EgGuRIArEeBKBLgSId+pgRhxJSs34u/yA4CD3A0Az925Z564eSfB/udXr5mpS1fNj/5y0Xz3zT+bb7z6pvnyK6+awRfPJANAAXor9CngB81Ge3znq62w+whzijCnCHOqBfY2lRFfNtvtyn8CsCfIKYKcIsgpgpwiyKnr17MBYJFR9xHm7XrnnXfa1mQAIMCVCHAlAlyJAFciwJUIcCUCXIkAVyLAlQhwJQJciQBXIsCVCHAlAlyJgK/qbzoA+JW8GwCO3rpjZq/fSgaAxy6vmZ+cu5xs+77w8rIZfP7lZAAoIA+hL7b/+tcD6faBnWa9u1VuW79zNYB91excX9xK3zifIj6/sTg2sHE+w33eTA6MmOn56WQF7h6bnH/XrEyP5M8dmV4pcM9W6uljk2YuAX0ueY/JSfea9NjchH+ObWIuBX1uwgyMbDfLwfaSA3xpu33PCbM/Qj1stvR+sxnos2bCojo1O2WGs8fGZ2+Zs1PD+XOHp84WsJ8tnjcwMG72JYint+bHx91r0mP7xv1zbGN7U8T3jpmB4a3mdLydrezHxtzrx8xeB/ni1uDPyY5lA8CWxQzwxS1mKHjOTIb6zJg/ZhudyUBfMFuGiuOjMxn0C+F7jJo9a2tmLavbAYAAVyLAlQhwJQJciQBXIsCVCHAlAlyJAFciwJUIcCUCXIkAVyLAlQhwJcK9Tj0bABzy9qrbAr/PXYD9qt0NAPM3bptfX7thX/LAPHzhivnh2xeSbd/gC6fN4DMvJANAAXkG/Spt24v+yLRZdYivOrwt4qsO9NXkc/SR6dUMeFq9Z+iv+O30vZLP2+cm7ddjX79jOQU/2S9Dv305W6FbxEe2L9vtOQuxfU2ynT1mS/Hebx+zr1my2/sD9IPt20sW5uEpsxSt1uNSyGcTsKfO+m37tdvXnnWPzY4nX/vwtjPpCn2f2y9Dn38Gbx8b3no6A9y+JtkuVuxpwao9Q3/RYR5uJ7C71y9mK/gZuz9UQD8zZoa2LEbHZ8yo217IIJ8Ztc9ZyLD3pc/ZvGBB3zNqh4E9Oe5pe4rH7f7VxzeYoU2nzNWrV5O6GQAIcCUCXIkAVyLAlQhwJQJciQBXIsCVCHAlAlyJAFciwJUIcCUCXIkAVyLY69aTAcAjb3Vpm7sA+5W8GwB2X7tpfnb1mn3oQX7r/5urb5qvuFv/L501g8++ZAaPPJsPAH51vjGHnbc96vOT6cr93RU3DEya+RL4aR73tBGzY7lAPd1O9yfsfo58gnu2v+xW6v71WRP7y8hnK/YE+Px5FuwlRj3JDQADE2bWr9SpDHf/fink8TfWlfdLn7ufDlflWcnqPkA+AT0DPn9e8Zi/9V4uAr+0ss9KVvIB+qWVu39OBrzDPj+eAn/11Kbk+SHw/ljpPTbsNleuXEmqOwAQ4EoEuBIBrkSAKxHgSgS4EgGuRIArEeBKBLgSAa5EgCsR4EoEuBIBrkSod5M8AISrfHvVLe2HuQuwX8m7AeAXa9fN9KU1+5Ji1R82eOx5M3joqWQA8Cv3/PZ8vlKnbdeK2WFX/ck30CW36P2KPcgfT1B3n7l75NuAn2Me4A636lPEs1vxHnkPevLYkpka9iv2dp21z0lv36eQR53ZZt/Pr+TPmG32/dJvpguAD1fs8b4DPLkt72/HhxXPKQD3t+QXzZahAPcsWqnnq/kE91EzY7fbrtgXNifP8bfsy6hvMI8n+6fMJvtnbzqVPWY7uWnI/n9lwGzYbZE/mT53dwZ+2OXLl2sNAAS4EgGuRIArEeBKBLgSAa5EgCsR4EoEuBIBrkSAKxHgSgS4EgGuRIArEejdJg0AMfL2atxyzOcuwB5yNwA8avF3n/t//63z5tuv/8kM//4N86XFFTP4u1fM4PEXzeDh42bwN0eSAaBYtRfQl1fqbju4TR+g77+hLr4dX/r8PVnJe+Tj1Xt5v4y723afqy+l0OeFt+VtbrXub8snn7tnjyXHt5kzDnJ3e95v+3373uP70v0EcLtq37rX/mf4mXuyko8GgHz13n4/XanbVXRyOz4EvbyCd7fjB4a2mIUc8wz38HiyvdksxLDn+/bP2bxQxv3q42aDfV4Kutsur+gTvHdvsO+7yZx02wnw9vkny7iffGSdWffISYv8ruQ90u3LLVUNAAS4EgGuRIArEeBKBLgSAa5EgCsR4EoEuBIBrkSAKxHgSgS4EgGuRIArEeZNajwAEPJVA4CH3A0APz1/2fzg7fPmO2+8bb6+8sf0u/7drf8Tp8zg0RNm8OAxMzh3OBkAipV7Gf0JB3Owap+YKL5RL/wO+hTx4tbwxH6H+VIyGCTHRibMxMhIgHqweof9Eu6lb6Szjc/a4+lzilvxbpWePT48bsbtij15LEO/9RvpsuLb9Pnn7Itma/5+Y2bM3QFIkI9W7/Ht+Krb8/Gt+WRFH3zD3dCoGbWr8PxzeI9+sF2GPSu+Pb/hcYv37vR5HvQE+PA57vb9SfPIumx/3QazYd0688hJC/ouOxjkz91gdlngL126ZC699IhZlx+3PbQrPW77Ww4ABLgSAa5EgCsR4EoEuBIBrkSAKxHgSgS4EgGuRIArEeBKBLgSAa5EkDet0QBAwLvsVRePu8IBwKHeTaWVO+Rvv1dVXqW3r3w7vn35LfmKctArKt+Kb1+KeXXlW/PtK27Ldy4HvaJwhd4pWqm3y0Ne1cWLF7FOAwAh3jQCXIkAVyLAlQhwJQJciQBXIsCVCHAlAlyJAFciwJUIcCUCXIkAVyLElboeAAh3X9UAUKzk/9F+al3nCHOKMKcIc4owpwhzijCnCHOKIKcIcopgpy5cuNBSuwGAEG8aAa5EgCsR4EoEuBIBrkSAKxHgSgS4EgGuRIArEeBKBLgSAa5EgCsR4EqPP/54dwMAwR5WNQD8IwJPkFMEOUWQUwQ5RZBTBDlFkLeLMKcIc4owpwh46vz583k0ABDiTSPAlQhwJQJciQBXIsCVCHAlAlyJAFciwJUIcCUCXIkAVyLAlQhwJQJcyeHf1QBAqMdVDQAEu4sgpwjydhHmFGFOEeYUYU4R5hRhThHmFEFOEeQUQU4R5BRBToW4d+rcuXNJ8QBAiCsR4k0jwJUIcCUCXIkAVyLAlQhwJQJciQBXIsCVCHAlAlyJAFciwJUIcCWPf+0BgECnqgaAfv0+z/wAQIArEeJNI8CVCHAlAlyJAFciwJUIcCUCXIkAVyLAlQhwJQJciQBXIsCVCHClEP9aAwBh3q5OA4Dvueeeyy/E/fp9HhHiTSPEm0aAKxHgSgS4EgGuRIArEeBKBLgSAa5EgCsR4EoEuBIBrkSAKxHgSjH+lQMAAd6pqgHA4d8fAPp93hHkTSLEm0aAKxHgSgS4EgGuRIArEeBKBLgSAa5EgCsR4EoEuBIBrkSAKxHgSoS/q+0AQIBX1WkA8Pj3qmeffbanHT9+vKc988wzPe3pp5/uaU899VRPO3bsWE/z36jXqwhwJUJciRBvGgGuRIArEeBKBLgSAa5EgCsR4EoEuBIBrkSAKxHgSgS4EgGuRPD7cAAgwOvUbgAgwJUIcCUCXIkAVyLAlQhwJQJciQBXIsCVCHAlQrxpBLgSAa5EgCsR4EoEuBIBrkSAKxHgSgS4EgGuRIArEeBKBLgSoR/WMgAQ4HWjAYAAVyLAlQhwJQJciQBXIsCVCHAlAlyJAFciwJUI8aYR4EoEuBIBrkSAKxHgSgS4EgGuRIArEeBKBLgSAa5EgCsR4EoEflxpAIjx7rZ4ACDAlQhwJQJciQBXIsCVCHAlAlyJAFciwJUIcCVCvGkEuBIBrkSAKxHgSgS4EgGuRIArEeBKBLgSAa5EgCsR4EoEuBJhT+UDQAh308IBIMab/rWsfv36/eNG0FMEuBIBrkSAKxHgSgS4EgGuRIArEeBKBLgSAa5EgCsR9O1KBoAQcSU/AMT4+wHg008/TXrw4EHjPvnkE6mPP/64cR999FHjPvzwQ6n79+837oMPPmjc+++/3zj/65+bVvwa6O7zv3eiSeGPrG4S/cTLutEPyqob/fCsbqIfqNWuugMAAa5EgCsR4EoEuBIBrkSAKxHgSgS4EgGuRIArEeBKhHynBmLEldwAQPi73AWjj3kaIV03QrpuhHQ3EdJ1I6TrRkjXjYDuJkK6boR03QjobiK060Y/MTOuzgBAgCsR4EoEuBIBrkSAKxHgSgS4EgGuRIArEeBKBLgSAV/V33QAIMR9hHTdCOm6EdDdREjXjZCuGwHdTYR03QjpuhHS3URI142Qrhsh3U2EdN0I6boR3nWjH4ntqxoACHAlAlyJAFciwJUIcCUCXIkAVyLAlQhwJQJciQBXItzr1LMBwCFfNQB4sL/28K9q534dMMHdLkK6boR03QjpuhHQ3URI142QrhsB3U2EdN0I6boR0N1ESNeNkK4bId1NBHnd4t954c5n/4OV+vgz4k0jwJUIcCUCXIkAVyLAlQhwJQJciWCvW08GAI981QDgkXawn7z7njlx+5558tYds/f6LfPLtetm56U18+Nzl8zkW+fMt157y3x16bVkACiQPmT+aWC9eex1u/36Y2a93w6Pf86YuwjpupWBXjU71w/Yv9as9TvNaunxcoR03QjobiKk60ZI142A7qZWpJfM1HDwdz48ZZZanpNGSGOz4/l7nT07ZYYHhs22M4x03Qjpyk5vTf7srYtlzLvJ/zKrdgMAAa5EgCsR4EoEuBIBrkSAKxHgSgS4EgGuRIArEeBKhHo3yQNAiLy9ypX2w9wFw+PsBoAX7r5rnr59177kATa08ob54uJKMgAUOB8y33PQv1YGu/3xvyfMu+u91WkzYv8+N84HUNtj0+F+hwjpuhHSdSOku4mQrhshffv2rJmw6E0t0WNFCdQJzgNmfDbA2x6bCvchArponxl377mPHktDrGtGSBftNWMdwA9/O2W30QBAgCsR4EoEuBIBrkSAKxHgSgS4EgGuRIArEeBKBLgSgd5t0gAQI2/lbjnm8wOAQ9kNAM/duWeeuHknwf7nV6+ZqUtXzY/+ctF8980/m2+8+qb58iuvmsEXz5QGgA8+OJhA/+gfYqjbHS9HSNeNkK4bAd25VTM9UuBPSNeNkK4bAd1NhHTdCOm6lYGetQDbAeBseIw6m6z8Hf6EdN1akc4QPh0fb42Q7qZWqGfsnz1ktizGx1ujX0XdqXgAIMCVCHAlAlyJAFciwJUIcCUCXIkAVyLAlQhwJQJciTBvUuMBgJCvGgA85G4AOHrrjpm9fisZAB67vGZ+cu5ysu37wsvLZvD5l5MBoEC8gP799w+ajXZ756sO6Gz74E6z3n4N7nbr+p2vBoC/WrqVvvFACvOBjcWxgY0HMrAPpO91oHgv9/zVnevz545MrxZYZyv19LGNZj45Pm/fY8Rs3DiSH5sP/6zJ+RTo+UkzMDJtVuLtFfeek2Y+Q5wwn5sM328uOz5nJu2fu2NuR/41Tc7dM8s73NeR7o9sXy6QXt4efO0TZi45PmdXzCNmYsK9Jj02N+GfY5vYnyK9f8J+vdvNUrztWired2T79vIKfCldZfs/czZBO1ulT9n3yR4bnloqMM9W5ulj42Y2ATuFfXx8OD82O+6fYxufzZ4THtuXQn1mW+n99uXHsu12mCe30Iv3G9vrH8uQ3zqWPza8ddGi7I4Xzy+OBavyxeI9h7duzR9rxTvcT7fHxobs68bMjH18Zqz4cwZGZyzSM2bU75eO2fdYyCBf2GKGgueMzrxj1tbWbHuS523ePJo/NrR5IXss7bMcAAhwJQJciQBXIsCVCHAlAlyJAFciwJUIcCUCXIkgb1qjAYCAd9krBR53uQuGh9wNAPM3bptfX7thX/LAPHzhivnh2xeSbd/gC6fN4DMvJANAATmgv+rRthcq/xn5qsPbP5Z+jr5+52oGfLkU8hTs6VW/bd/LYrzqHpvfaL+eAP1kP0X93XfnE3CnVzKkLeIj0yvZcfcat11G3L9mx7IFe86hv8MsO7zD7WULuN9uU7HSTsHevuy33de+3Sy7x+ZSUHP0k/0Jsz+Ben/6uqUMbYv4yPal7Lh7jdvOHstzj2WYz9r38p+Ph9sJ5gNmYtZt3zZLUw7o9DUtq/HZcQv92QLqBO30eAy9e00C8z77mm1n7HZ6az3dLtBOc4/5z9nT7WIFHq3I945ZeE+nuA9vNaeT55RLV9gp5mN7Q7g95Bn0Y3vTx+x7Opj35q/rBLl9z5n0scUtDvQy8jnWJbxT3Ie2LGSPhRXPyyFf8HCH+27bor8ne2xhsx0Gyo8NbHjcXL161Vx9fIP9ujaYx912VjgAEOJNI8CVCHAlAlyJAFciwJUIcCUCXIkAVyLAlQhwJUJcqesBgHD32atE29wFw0PuBoDd126an129Zh96kN/6/+bqm+Yr7tb/S2fN4LMvmcEjzyYDQAF2tjrP0S9vp4CnuRV3cgs9WaH7lXlUhnuahzxCvdN+slL3r89KVuPZStwh79F2wOfPKz9WYJ6VrMz9irxNGe7+/VLII9Q77dtVeriaTZqYLVbj4WfmDvj8ecVjxe3zILdad9/slh8L0C+t5LOSVXkIdgR4abWeZaHFW+sJvP55/rHoedEq3r9fCrpHG8oed6ttf9vcrbpTvEPU4/1iuwVytwIf2mIWAO/ydox5DLttT7Fad0NE/LwU7sfNBru/6ZTdPrXJgl9G/fENA2bD49Hz7PErV3an+yev2O20z2IAIMCVCHAlAlyJAFciwJUIcCUCXIkAVyLAlQhwJQJcaffu3d0NAIR+mL3y4HGXu2B4yN0A8Iu162b60pp9SbHqDxs89rwZPPRUMgAUaMcrddp2K/OV5DP0yXmPdOvt9PJx9/wU9Va8O+y7lbp9j7kM8gLzcFVuK4G+bLbbPyt/LKhYaS/Z59hV9H6/H5XcYvcreffckQzlGO8O+8mteH8LPsQ8WqUnaPvVuPucPHgsq7T6dmAPbzNn8mMx5nSbPcY82E/AtjAnx8Oy55RupXvAF81W+3UWq3N+noc8bdFsGSpW4y0tutvlxQDgUJ4ZTW+bx1h3gtzvJ0C7VffQZrPgEe+IfIh5Gegy5qfMpiH/WPQ8v+8gP5m+ZncGumu3GwB2u+0Y/GL/8uXLSb0eAAhwJQJciQBXIsCVCHAlAlyJAFciwJUIcCUCXIkAV3L4dzUAEOpxVm487nIXDA+5GwAetfi7z/2//9Z58+3X/2SGf/+G+dLiihn83Stm8PiLZvDwcTP4myPJAFDAHa7G4+3glnuA+717y2aHxXRkx3KOdFJ8yz1HvgA+hTnCHG65lz5XD58T3F7PPyNP8M4ea/M5erjq9rfSkyzaU24/vOWeQO6Rz4DPgY4wL+27bfdZu7sF7x93mEer8X3j9s/KQE8Azx4Lj2fb6e1zB27x+fjprelHAMVq3H3WfTpD3BchXULbv8Z9fu4fj59jMZ+xq3+7ml7MsbboRivwFHO3726fL2b7wTfAzaSr6BT1LLtK35IjHzyWfH4+ambsdiesqx7bYN8zXXVfNac2pR8BpGA7yIvH0tvw/rEAcgf0bvvY0CZz0m0nsPvH2kOebtv335WCfvnkI2adHQh2JcDvso+tM4+czB5r2f/7HgAIcCUCXIkAVyLAlQhwJQJciQBXIsCVCHAlAlzJ4197ACDQKXuFwuMud8HwkLsB4KfnL5sfvH3efOeNt83XV/6Yfte/u/V/4pQZPHrCDB48ZgbnDpcGgPJqvHV7crL4Zjf3zW8F+CnU/rGJOYe0W4lnx0YmzES+Km8Dfrvb6sE3vCUl3yRXfk7p3y0ftn+WW0U7sNt+jp5V+oY591p/az39jvX02LgZz1flZfA73lrPQQ/eP7odn+J82q6m/Z81Zsbcytph7m63+8/Mw22/n71n+I1tCdzJCjx7P1fyuXmEeYx2Anr4mpnW52Qr+OTxoVEzalfBftXtVurJ8eQb4Tze2bHwuMM8+Sw8eCxcoZcea0W9ZaXdaRXu9xPY0/cc2rQpfSyE3f95GzYEj8WwnzSPrMuet84+b12B9S67qk9fv6sV8gT97HF3/KVL5tIl1y7zUMf9Sz0dAAjxphHgSgS4EgGuRIArEeBKBLgSAa5EgCsR4EoEuFKIf60BgDBvl72K4HFXOAA41LuptHK3lVfb3ZUi3rwc5waFK+1u87fMm1ZecXdXseruvvjWebd5mJuU4tysFOvmpTB3WXZbPl2FN8sD3aSLFy/WrlcDACHeNAJciQBXIsCVCHAlAlyJAFciwJUIcCUCXIkAV4rxrxwACPJOVQ0AMeR9zJtFSNeNkK4bAV1V8q+nZbfmCem6EdJ1I6C7CbGuGSHdrmS1vu4RczLbJ6S7ieCu24ULFzrWiwGAEG8aAa5EgCsR4EoEuBIBrkSAKxHgSgS4EgGuRIArEf6utgMAIV5V1QBAiIcR0nUjpOtGSHcTIV03QrpuhHTdCOtuIqTTFopb8Unp5+ThcwjpuhHQ3URI1y0Gu5sI6EuXXipu3Sc9ZHbh8z5bzDt1/vx5TB0ACHElQrxpBLgSAa5EgCsR4EoEuBIBrkSAKxHgSgS4EsHvwwGAAK+TvYLh8WeffTa5YBDcFCFdNwK6mwjpuhHSdSOku4mQrluIc7cR0t1ESNeNkK4bIV03ArqbCOm6EdJ1I8i76dy5c3nKAECAKxHiTSPAlQhwJQJciQBXIsCVCHAlAlyJAFciwJUI/bCWAYAArxsNAA5/PwD069fv305NBgACXIkQbxoBrkSAKxHgSgS4EgGuRIArEeBKBLgSAa5E4MeVBoAY726LBwCPf5y/cPTr1+8fP4KeIsCVCPGmEeBKBLgSAa5EgCsR4EoEuBIBrkSAKxHgSoQ9lQ8AIdxNCwcAgt9HF5F+/fr9Y0bYxxHgSoS4EiHeNAJciQBXIsCVCHAlAlyJAFciwJUIcCWCvl3JABAiruQHAEJf6fjx4z3tmWee6WlPP/10T3vqqad62rFjx3ra0aNHe9qRI0d62pNPPtnTDh8+3NOeeOKJnuZ/HW+vIsCVCHAlAlyJEG8aAa5EgCsR4EoEuBIBrkSAKxHgSgS4EiHfqYEYcSU3ABDgSgS4EgGuRIArEeBKBLgSAa5EgCsR4EoEuBIBrkSAKxHgSgS4EgGuRIg3jQBXIsCVCHAlAlyJAFciwJUIcCUCXImAr+rvegAgwJUIcCUCXIkAVyLAlQhwJQJciQBXIsCVCHAlAlyJAFciwJUIcCVCvGkEuBIBrkSAKxHgSgS4EgGuRIArEeBKhHudejYAOLB7OQAQ4EoEuBIBrkSAKxHgSgS4EgGuRIArEeBKBLgSAa5EgCsR4EoEuBIhrkSIN40AVyLAlQhwJQJciQBXIsCVCHAlgr1uPRkAPNqdBgD614j69ftHiVCvGwGuRIArEeBKBLgSAa5EgCsR4k0jwJUIcCUCXIkAVyLAlQhwJQJciVDvJnkACJGvGgCKn3jWr98/TsoAQIArEeBKBLgSAa5EgCsR4EqEeNMIcCUCXIkAVyLAlQhwJQJciQBXItC7TRoAYuTt1bLlmK8/APT7R63pAECAKxHgSgS4EgGuRIArEeBKhHjTCHAlAlyJAFciwJUIcCUCXIkAVyLMm9R4ACDk7dUSj7v6A0C/f9SaDAAEuBIBrkSAKxHgSgS4EgGuRIgrEeJNI8CVCHAlAlyJAFciwJUIcCWCvGmNBgAC3mWvlnjcFQ4AX3v4V7Vzvw44vBj36/e3zv1/1//QG8I+jgBXIsCVCHAlAlyJAFciwJUIcCVCvGkEuBIBrkSAKxHgSgS4EgGuRIgrdT0AEO4+e7XE4654ADh59z1z4vY98+StO2bv9Vvml2vXzc5La+bH5y6ZybfOmW+99pb56tJr0QDwz+aoecv8y9fs9tf+xW5l2+Hx/Ln/Fvqa+Ze3TPHPW/9ivobP+zfePx8t/vuX/nf/29TNAECAKxHgSgS4EgGuRIArEeBKBLgSId40AlyJAFciwJUIcCUCXIkAVyLAlXbt2tXdAECwh9mrJR53xQPAC3ffNU/fvmv3H2BDK2+YLy6utB8A8mOdjv8Dl0BnzNF/Lh/7l3D/30Xuf9vo7+FvXN0BgABXIsCVCHAlAlyJAFciwJUIcCVCvGkEuBIBrkSAKxHgSgS4EgGuRIArOfy7GgAI9Th7tcTjrngAeO7OPfPEzTt2/4H5+dVrZurSVfOjv1w0333zz+Ybr75pvvzKq2bwxTP/TgeAdOX/eaL399Pn/79tnQGAAFciwJUIcCUCXIkAVyLAlQhwJUJciRBvGgGuRIArEeBKBLgSAa5EgCt5/GsPAAQ6Za+WeNwVDwBHb90xs9dv2f0H5rHLa+Yn5y4n274vvLxsBp9/ucMAANv/nK6a3T9v/cvXgteVb6V7WP2d5eSfo/+cPbf1vdzzvxa8Qem9s5V6+s9R88/Bexw96h5Jj+Gf5Q762/rhdvKe/r24v9uvPYn/vst/XnDcf93/UvxB6dfpjhf/FMf8/+7l93zrX/4leCx6Xmk/3Q7/O/LfRVrVAECAKxHgSgS4EgGuRIArEeBKBLgSAa5EiDeNAFciwJUIcCUCXIkAVyLAlUL8aw0AhHm77NUSj7viAWD+xm3z62s37P4D8/CFK+aHb19Itn2DL5w2g8+80MUAYP8pAeofSzEqDwRxHd4r0y9/fbJfxjJ9XfpYCBf/mcFr2iHqvv4SqJ36O/va2/59p+9bHgairzscLuwR/DpL++X3TAed8LHOryu+xui5+d9Fut9pACDAlQhwJQJciQBXIsCVCHAlAlyJAFcixJtGgCsR4EoEuBIBrkSAKxHgSjH+lQMAQd4pe7VsWzwA7L520/zs6jW7/yC/9f/N1TfNV9yt/5fOmsFnXzKDR57t7g5AfrFPV60JDAk05RVdXgKN/6fde3XYL60as38SxFq/Hv6z2tTpa/b9o33tcDz/36jj113x36E0KNV8XfxY27+L9PF2AwABrkSAKxHgSgS4EgGuRIArEeBKBLgSId40AlyJAFciwJUIcCUCXIkAVyL8XT0fAOi4Kx4AfrF23UxfWrP7xao/bPDY82bw0FMNB4DgM/RaILnnt3uvDvvt3jt+Tds/q13B10+P/z1/7e3eF47/fQ0A9HeRRgMAAa5EgCsR4EoEuBIBrkSAKxHgSgS4EiGuRIg3jQBXIsCVCHAlAlyJAFci+H1tBwBCvCp7tcTj7pfxxAPAoxZ/97n/9986b779+p/M8O/fMF9aXDGDv3vFDB5/0QwePm4Gf3Okq48A8tu2LWgFj/mcPh6P5PltcOi4H/25edFr2v1Z4fFw2+8nC9FsP3tt8m8B/F1/7W3+vrM/L//vk7yX/9+o6uvs9FjxnuWPAKIhKvn77PSe9DWnxQMAAa5EgCsR4EoEuBIBrkSAKxHgSgS4EgGuRIg3jQBXIsCVCHAlAlyJAFci9MNwACDE62Svli3H/G/jiweAn56/bH7w9nnznTfeNl9f+WP6Xf/u1v+JU2bw6AkzePCYGZw73NUdgPSbutJ/SnBmF3j/T/pYCkTyz1tHzdEmq2i3n0AW/IO30dv8WW0RzYrfO0I2Pfb3+LW79yj+KaPv/6n7dXZ6zJbAnv5T/ibA8mP2/xwd3tOGfxfpY+EAQIArEeBKBLgSAa5EgCsR4EoEuBIBrkSAKxHiTSPAlQhwJQJciQBXIsCVCPy4lgEgBryb7NWytO/xjwcAh3o3+df169exBPH2t/Kb9lkNAAS4EgGuRIArEeBKBLgSAa5EgCsR4EqEeNMIcCUCXIkAVyLAlQhwJcKeKg0AId5NslfL0n67AaBfv8+iZMEf30XpQZ/FAECAKxHgSgS4EgGuRIArEeBKBLgSAa5EiCsR4k0jwJUIcCUCXIkAVyLo25UPACHcTbNXy3w7xL8/APT7bAo+nkj+6f3q39XrAYAAVyLAlQhwJQJciQBXIsCVCHAlAlyJAFcixJtGgCsR4EoEuBIBrkTIdyoZAELElezVMvnPGP/+ANDvH7leDgAEuBIBrkSAKxHgSgS4EgGuRIArEeBKBLgSId40AlyJAFciwJUIcCUCvqqBGHEle7VE/F3uItqv3z9qvRgACHAlAlyJAFciwJUIcCUCXIkAVyLAlQhwJUK8aQS4EgGuRIArEeBKhHud/mYDQJi/mPbr948WwV4nAlyJAFciwJUIcCUCXIkAVyLAlQhwJQJciRBXIsSbRoArEeBKBLgSwV63ng0ADvb+ANDv33qEe1UEuBIBrkSAKxHgSgS4EgGuRIArEeBKBLgSAa5EiDeNAFciwJUIcCVCvZt6MgB42OsOAFU988wzPevpp5/uaU899VRPO3bsWE876v599x525MiRnvbkk0/2NP+T+XoVAa5EgCsR4EoEuBIBrkSAKxHgSgS4EgGuRIArEeBKhHjTCHAlAlyJAFci0LtNHgBCuHsxABDiTSPAlQhwJQJciQBXIsCVCHAlAlyJAFciwJUIcCUCXIkAVyLAlQhwJQJciQBXIsCVCHAlQrxpBLgSAa5EgCsR5k2SBoAYb3UAIMSVCPGmEeBKBLgSAa5EgCsR4EoEuBIBrkSAKxHgSgS4EgGuRIArEeBKBLgSAa5EgCsR4EqEuBIh3jQCXIkAVyLIm9Z4ACDAlQGAAFcixJtGgCsR4EoEuBIBrkSAKxHgSgS4EgGuRIArEeBKBLgSAa5EgCsR4EoEuBIBrkSAKxHgSoR40whwJQJciRBXajQAEOCuTgMA/atV/fr1ewTR9xHgSgS4EgGuRIArEeBKBLgSAa5EgCsR4EoEuBIh3jQCXIkAVyLAlf71X/+1+wGAcPdVDQCffvqpefDgQdd98sknXfXxxx933UcffdRVH374Ydfdv3+/qz744IOue//997vqr3/9a1e99957Xffuu+921b1797ru7t27XXXnzp2uu337dlfdunWrsk4DAAGuRIArEeBKBLgSAa5EgCsR4EoEuBIBrkSAKxHiTSPAlQhwJQJcyeHf9QBAsIdVDQAK6i6Cu1MEd1UEd6cI7qoI7k4R3FUR3p0iuDtFcFdFcHeK4K6K4O4UwV0VQd6pmzdvtq3dAECAKxHgSgS4EgGuRIArEeBKBLgSAa5EgCsR4EqEuBIh3jQCXIkAV/L4dzUAEOpxVQNAL1B3EdydIrirIrg7RXBXRXB3iuDuFMFdFcHdKYK7KoK7UwR3VQR3pwjuqgj0Tt24caMlGgAIcCUCXIkAVyLAlQhwJQJciQBXIsCVCHAlAlyJAFcixJtGgCsR4Eoh/rUHAAKdqhoAPOBfe/hXtXO/DphQdxHcnSK4qyK4O0VwV0V4d4rg7hTBXRXB3SmCuyqCu1MEd1UEd6cI7qoI9k5dv349z50X/ocM9fHXI8CVCHAlAlyJAFciwJUIcCUCXIkQbxoBrkSAK8X41xoACPN2VQ0AHm4H+8m775kTt++ZJ2/dMXuv3zK/XLtudl5aMz8+d8lMvnXOfOu1t8xXl15LBoAC8UPmnwbWm8det9uvP2bWZ9v37x8y33PbrzHicQR3VQR3pwjuqlrxXjXTI8EvphmZNqvB4wR3pwjuqgjuThHcVRHcnSK4i2bNuP/7yhqf7c1qvVMh6nW7du1aaQAgwJUIcCUCXIkAVyLAlQhwJQJciQBXIsCVCHAlAlyJEG8aAa5EgCsR/q6OAwBB3il7tcXjLneh85C7AeCFu++ap2/ftS95gA2tvGG+uLiSDAAF3u2gT48/+gfGu10Ed1UEd6fKoFeXg70ybUbs3+fkfIC4PTYd7mcR3J0iuKsiuDtFcFfFoPsc7MNm6mxxjOC+eXNf8rxtZ7L9feP2/0/jZl/2OOHdKYK7Uw51bsaMDQyZLYvl45/VAECAKxHgSgS4EgGuRIArEeBKBLgSAa5EgCsR4EqEuBIh3jQCXIng97UdAAjxquyVFo+7/ADgwHYDwHN37pknbt5JsP/51Wtm6tJV86O/XDTfffPP5huvvmm+/MqrZvDFM8kAUKB9sA305eMEd6cI7qoI707FaHduxeywK//JOQa8XQR3pwjuqgjuTpURr1cZdF8Ee1AZ7b0W2mGz9XS7/TTCu1Mh2nV65513ombMqBsAFsrHP4sBgABXIsCVCHAlAlyJAFciwJUIcCUCXIkAVyLAlQhwJUK8aQS4EqEfhgMAAV6ndgOA+8E87kLnV+xuADh6646ZvX4rGQAeu7xmfnLucrLt+8LLy2bw+ZfzASDF+qDZaKHf+Wqb7YM7zXr7Nbjbvut3vhqAvWp2ri9uCW88kB4/sLE4NrDxQIb1vH2vEbvSTlfgyfPn3zOr0yP5c0emVwvYs5V6+tikmU8AnzeT9j0mJ91r0mPzk/45tsm5FO25STMwssMsx9vLO+x7Tpq5DqjPTQTvNzGXHZ8zE/bP3b5/e/41Tey/Y5a2B1/79qUC9KXieQMDE2Y2QXvWvsewmZgYzo/Nlv6s2RT2WbuyHp4yZx3a4XbSWTM1XLwmvQWfAj4+7t43W5Gf2WaG/fsGq/R948VrB8b2ZojHxyzkp7cGrx8zexOsM/AXM7z3jtmvbatZ9Jgvll8z49Fe3GKGsuNDW7YEq/Xyyr0F8oXidQMDo2YmgX3BbBnyxwbMqL3ojObPsY3uMWtra0m9HgAIcCUCXIkAVyLAlQhwJQJciQBXIsCVCHAlAlyJAFcixJtGgCsR+HEtAwABXjd7dWs55n8yn7vQ+RW7GwDmb9w2v752w77kgXn4whXzw7cvJNu+wRdOm8FnXkgGgGK1nkG/6gA/EG3bC+v6nWbVgb/qBgH/WPo5eoh2axn6q+n2pHuvkWmz4jCftzDb/ZHplXR1nuyXoZ9eyW7DW8RHdizb7bnkPdLtdHVe5B6zSC9bsOcm7J+z3Sw7vMPtZQuz384KV+Hl9qfoL/lt97VvN0v2sduz9j3t/vDUUroiT/bL0E8tZat1+9jw1FmLd/oZerrtQfcFt+Ez9M84tN1t9uFt6fbNM2abxX9425l8hZ7mBgB7fOvpbBUercwt1MVjvhDzCHaAfnjrYnY8g9Y1NpOvyltuw8+MWewXM9Qt1DMp6gtbhuxrPfLxyj3d37zgAHew+23bnlEztHkh+c8QedfVq4+bDfa5m05dtdtFvRwACHAlAlyJAFciwJUIcCUCXIkAVyLAlQhwJQJciQBXIsSbRoArEfZUaQCI8e42e9Vsm7vQecjdALD72k3zs6vX7EMP8lv/31x903zF3fp/6awZfPYlM3jk2WQAKFbyBfox2sV22rxd3buV+3urboW+0czbYy232jPc01LIW1DPwN6xXAY82U9W6gE2rmQ1nq3EHfIecQd8/rziMUQ9WZlPmP3wmL+17nFP85BHqPv9/HPzAPCzU8FKOGt8Nn9O6VZ78jm6f17FbfhkVW5X4znivjL45ZV4ll3Z56v2/Hg4AAR4Byv24vUO+wL5dHXuV+W20mo9a3QmPT60xSzkYIewR8iH+wubW99vw+Pm6qlNyfGhTacC7LMB4OQVc+VKUa8GAAJciQBXIsCVCHAlAlyJAFciwJUIcCUCXIkAVyLAlQhxJUK8aQR9u/IBgEDvNnsFzLf9yj+8A+AhdwPAL9aum+lLa/Ylxao/bPDY82bw0FPJANBupZ5sR2inuK8kq/7kG+iSW/R+xZ6WQB7cZr93b9nsGPHIt4JfxjzYdyt1C/WcRz6rvCq3lUBfMtvtn5U/FsOetJTcQp+YDY8FLTm8x81sgrq73e6Rj79Rrrxf+hw9uf1e3HYvKp7TCvpps9X+WfHn6WEp7P52fFi0Ys+eN5OvzkPY/fFFs2XIox/AnmMe4J5XXrG71XyyKnd4J2CPmj059Fnu+NDmfAAor9bjlXuwn0C/wTxuj4eo+05ucncSBsyG3W5/d2kAuHz5clIvBgACXIkAVyLAlQhwJQJciQBXIsCVCHAlAlyJAFciwJUIcCVCvGmEfKeSASBEXMle7ZL/jPF3uQudh9wNAI9a/N3n/t9/67z59ut/MsO/f8N8aXHFDP7uFTN4/EUzePi4GfzNkWQAyFfsJejj7eCWewvucDs++cw9uOWeI98e/BTr1lvupc/Vg+eEt9fd7fKlHG+LsnssPJ5t55+ju1vs9r3d5+cp5ja7ap9y+8Fn7inkflUeAB9hHu6ngKe3ytvedg9uzeefoSdoZ4iHx8Pt64t2SHCfoy+WYW/5Lni3XzwvB3xm1Ay41bjbTpD3mJdhT1fi9vUe97z2K/YU73hl7lG3UD+e7p9K4PZYnzSbhjzitt0bgscc6u79TqaPBbD7Tj6yzqx75KTd3mWfu848crL8uDoAEOBKBLgSAa5EgCsR4EoEuBIBrkSAKxHgSgS4EgGuRIArEeJNI+CrGogRV3IDAOHvchc6D7kbAH56/rL5wdvnzXfeeNt8feWP6Xf9u1v/J06ZwaMnzODBY2Zw7nAyABRwh6vz1u30m+7SW7ETcx5wj3hxmzZ9bNmuxLNjIxNmIl+VR6t33M8Az0Ev3jv9JrnyrfjSN8UNj5txv2Lv8I10Cdilb5Jzry1/zh6+X4F6gHfFfstt+OQWfPac/LP2FPTk8aExM+ZX5DMWfQv1osM83A5w9++bfrYef5Zui2/Jj85YsBfMZv8NdEOjZtT+eR7zPaP+ednn6/EteHf7vWXFnoE+tMmccvvZ7fniNbsD2NNjQ5s2pe/hV+u7iscGNmwoQ37yEbPOP5Y8vqv8/IGHzK5Ll8wl266HsmMP7Ur2XcoAQIArEeBKBLgSAa5EgCsR4EoEuBIBrkSAKxHgSgS4EgGuRIg3jXCv0+cyADjUu8nhX2Ber/KKvLr89noX5SvzmhW32euXwl2/8m33ehWr9HrlgHdRsUKvV7E6r5dfgXdTuBIvx6t1j3Y3Xbx4sWNNBwACXIkAVyLAlQhwJQJciQBXIsCVCHAlAlyJAFciwJUIcCVCXIlwr1PPBgCHfNUAUKzk0wjuqgjvThHcnSK4qyK4O0VwV0Vwd4rgrorg7hTB3SmCuyqCu1Mh2HVrhXuXecgNAC/Fx9MI8qouXLiANRkACHAlAlyJAFciwJUIcCUCXIkAVyLAlQhwJQJciQBXIsCVCHAlgr1uPRkAPPJVAwCB7iK4qyK8O0Vwd4rgrorg7hTBXRXB3SmCuyrCu1MEd6cI7qoI7k4R3FUVYP9rOgC8WEY8jkCv6vz586W6HQAIcCUCXIkAVyLAlQhwJQJciQBXIsCVCHAlAlyJAFciwJUIcCVCvZvkASBEvmoAIMjDCO5OEdxVEdydIrirIrg7RXBXRXB3iuCuivDuFMHdKYK7KoK7UwR3VQR3p2LU63Tu3LmkbgYAAlyJAFciwJUIcCUCXIkAVyLAlQhwJQJciQBXIsCVCHAlAlyJQO82aQCIka8aAPr169danQGAAFciwJUIcCUCXIkAVyLAlQhwJQJciQBXIsCVCHAlAlyJAFcizJvUeAAg5DsNAGH+gtevX78igt9FgCsR4EoEuBIBrkSAKxHgSgS4EgGuRIArEeBKBLgSAa5EgCsR5E1rNAAQ6q7+ANCvX/P6+PfxVyPAlQhwJQJciQBXIsCVCHAlQlyp6wGAQPfVHQDCnn766Z721FNP9bRjx471tKNHj/a0I0eO9LQnn3yyZx0+fLinPfHEEz3t0KFDPY0AVyLAlQhwJQJciQBXIsCVCHAlAlyJAFciwJUIcCUCXIkAVyLAlQhwpV//+tfdDQAEeFi3AwABrkSAKxHgSgS4EgGuRIgrEeJNI8CVCHAlAlyJAFciwJUIcCUCXIkAVyLAlQhwJQJciQBXIsCVCHAlAlyJAFciwJUc/l0NAAR4XDcDAAGuRIArEeBKBLgSAa5EgCsR4k0jwJUIcCUCXIkAVyLAlQhwJQJciQBXIsCVCHAlAlyJAFciwJUIcCUCXIkAVyLAlTz+tQcAApyqOwAQ4EoEuBIBrkSAKxHgSgS4EiHeNAJciQBXIsCVCHAlAlyJAFciwJUIcCUCXIkAVyLAlQhwJQJciQBXIsCVCHAlAlwpxL/WAECAt6vTAED/+lO/fv3S+vjrEeBKBLgSAa5EgCsR4EoEuBIBrkSAKxHgSgS4Uox/5QBAkHeqagD49NNPzYMHD7ruk08+6aqPP/646z766KOu+vDDD7vu/v37XfXBBx903fvvv99V/lc0d1Px65nr5X8HRDfFPza6KvoJk1XRD6PqFP0wqqroh1HFuXODAFciwJUIcCUCXIkAVyLAlQhwJQJciQBXIsCVCHAlAlyJAFciwJUIf1fbAYAQr6pqAFBQdxHcnSK4qyK4O0VwV0Vwd4rgrorg7hTBXRXB3SmCuyqCu1MEd1UEd6cI8arop0z6ej0AEOBKBLgSAa5EgCsR4EoEuBIBrkSAKxHgSgS4EgGuRIArEeBKBL8PBwACvE7tBgD3Ob27yPUCdRfB3SmCuyqCu1MEd1UEd6cI7qoI7k4R3FUR3J0iuKsiuDtFcFdFcHeKMK+KfnR0LwcAAlyJAFciwJUIcCUCXIkAVyLAlQhwJQJciQBXIsCVCHAlAlyJ0A9rGQAI8LrRAOC/Uc9d5DzgX3v4V7Vzvw6YUHcR3J0iuKsiuDtFcFdFcHeK4K6K4O4UwV0Vwd0pgrsqgrtTBHdVBHenCPWqwt8F4c4N/8OACPW6EeBKBLgSAa5EgCsR4EoEuBIBrkSAKxHgSgS4EgGuRIArEeBKBH5caQCI8e62eADw+PsBwMPtYD959z1z4vY98+StO2bv9Vvml2vXzc5La+bH5y6ZybfOmW+99pb56tJryQBQIH7I/NPAevPY63b79cfM+mz7/v1D5ntu+zVGPI7grorg7hTBXVUr3KtmemTA/rVmjUyb1eBxgrsqgrtTBHdVBHenCO6qCO6iWTPu/86yxvcx3p0iuDsVol4394udejEAEOBKBLgSAa5EgCsR4EoEuBIBrkSAKxHgSgS4EgGuRIArEeBKhD2VDwAh3E2zV9p8O8TfDwAecjcAvHD3XfP07bv2JQ+woZU3zBcXV5IBoMC7HfTp8Uf/wHi3i+CuiuDuVBn0eiVYr0ybEfv3OTkfAG6PTYf7WQR3VQR3pwjuqgjuTjHmnSO4b97cZweAYbPtTLa/b9z+f2rc7LPbBHdVBHen4t/cWDRjxgaGzJbF8nF1ACDAlQhwJQJciQBXIsCVCHAlAlyJAFciwJUIcCUCXIkAVyLAlQj6diUDQIi4kr3KJv8Z4x8OAA5sNwA8d+eeeeLmnQT7n1+9ZqYuXTU/+stF8903/2y+8eqb5suvvGoGXzyTDAAF2gfbQF8+TnB3iuCuiuDuVIx251aSlf/kHOPdLoK7KoK7UwR3VQR3p1pBr66M9l4L7bDZerrdfvPVeje1/lrmGTPqBoCF8nFlACDAlQhwJQJciQBXIsCVCHAlAlyJAFciwJUIcCUCXIkAVyLAlQj5Tg3EiCu5AYDwd7mLnF+xuwHg6K07Zvb6rWQAeOzymvnJucvJtu8LLy+bwedfzgeAFOuDZqOFfuerbbYP7jTr7dfgbvmu3/lqAPaq2bm+uB288UB6/MDG4tjAxgMZ1vP2vUbsSjtdgSfPn3/PrE6P5M8dmV4tYM9W6uljk2Y+AXzeTNr3mJx0r0mPzU/659gm51K05ybNwMgOsxxvL++w7zlp5jrAPjcRvN/EXHZ8zkzYP3f7/u351zSx/45Z2h587duXCtCXiucNDEyY2QTsWfsew2ZiYjg/Nlv6s2ZT1Gftqnp4ypx1aIfbrrNTZjh7/vDUVLIanzrrYI9W5vH+mW3569yKfW8dzE9vDV4zZvYmWGfPWczw3jtmv76tZtFjvlh+zYxHe3GLGcqOD23ZYt/Dr9bLK/cWyBeK1w0MjJqZBPYFs2XIHxswo/biNpo/xza6x6ytrSU1HQAIcCUCXIkAVyLAlQhwJQJciQBXIsCVCHAlAlyJAFciwJUIcCUCvqq/6QDgV+xuAJi/cdv8+toN+5IH5uELV8wP376QbPsGXzhtBp95IRkAitV6Bv2qA/xAtG0vqut3mlUH/qobBPxj6efoIdqtZeivptuT7r1Gps2Kw3zewmz3R6ZX0tV5sl+Gfnoluw1vER/ZsWy355L3SLdTxIvcYxbpZQv23IT9c7abZYd3uL1sYfbbQeFKvGh/iv6S33Zf+3azZB+7PWvf0+4PTy2lq/Fkvwz91FK2UrePuef5z8+Hp86WVuVp7rEUc4/+GQe3u8U+vC3dTlAvPnM/s80NEh75FHzGPILdoj289XRx3GNewr0V+uGti9nxDFrX2Ey+Km+5DT8zZrFfzFC3UM+kqC9sGbKv9cjHK/d0f/OCA9zB7rdte0bN0OaF5D9D5F1Xrz5uNtjnbjp11W4XNRkACHAlAlyJAFciwJUIcCUCXIkAVyLAlQhwJQJciQBXIsCVCHAlwr1OPRsAHPL2itk2d5HzkLsBYPe1m+ZnV6/Zhx7kt/6/ufqm+Yq79f/SWTP47Etm8MizyQBQrOQL9GO0i+20ebu6dyv391bdCn2jmbfHWm61Z7inpZC3oJ6BvWO5DHiyn6zUA2hcyWo8W4k75D3gDvj8ecVjiHqyMp8w++kxW4G5fz8PeYS633dgx4AHq/S88dn8OcUq3ZZ8hu6fFz2WlYJucytyu9o+7fc7IF8CvLQqzxrbW3pOC+DBir14jcO+eE66OvercltptZ41OpMeH9piFnKwQ9gj5MP9hc2t77fhcXP11Kbk+NCmUwH22QBw8oq5cqWo2wGAAFciwJUIcCUCXIkAVyLAlQhwJQJciQBXIsCVCHAlAlyJAFci2OvWkwHAr/Lt1S/fjnMXOQ+5GwB+sXbdTF9asy8pVv1hg8eeN4OHnkoGgHYr9WQ7QjvFPfsM3X3DXHKL3q/Y0xLIS7fZl82OEY98K/hlzIN9t1K3UM955POy5ySrclsJ9CWz3f5Z+WMh6nlLZmp4wEzMhseClhzediWfoH7WPtcjHwAfg2/3S7fck9vt6TfGlTEv35ZPb7GPZbfjT5ut9s8qVvCtJZCHt9s7rdiz/QLz4HZ8XvyNc8FqPMY9r7xid6v5ZFXu8E7AHjV7cuiz3PGhzfkAUF6txyv3YD+BfoN53B4PUfed3OTuJAyYDbvd/u7SAHD58uWkbgYAAlyJAFciwJUIcCUCXIkAVyLAlQhwJQJciQBXIsCVCHAlAlyJUO8meQAIkbdXutJ+mLvIecjdAPCoxd997v/9t86bb7/+JzP8+zfMlxZXzODvXjGDx180g4ePm8HfHEkGgHzFXoI+3g5uubfgDrfjk8/cg1vuOfLtwU+xbr3lXvpcPXpOArZbrQ9PmaUcb4uyW6WHx7Pt/HN0d4vdvvf4bLbvsqv2KbcffuaerOTLt9iLFTrvF6vxgew2e4h4hnRwKz7//DxZpWeAh8dLn7Gn7zs2k4K96G+lJ4AvJp+L+8fc7ffisfQW/NCWhQjz9LN0f2v+nZnR9DUW93Qlbl/jcc9rv2JP8Y5X5h51C/Xj6f6pBG6P9UmzyX4NKeK23RuCxxzq7v1Opo8FsPtOPrLOrHvkpN3eZZ+7zjxysvx43QGAAFciwJUIcCUCXIkAVyLAlQhwJQJciQBXIsCVCHAlAlyJAFci0LtNGgBi5O1VseWYz13kPORuAPjp+cvmB2+fN995423z9ZU/pt/17279nzhlBo+eMIMHj5nBucPJAFDAHa7OW7fTb7pLb8NOzHnAPeLFLdr0sWW7Es+OjUyYiXxVHgLfbj8DPAe9eO/0m+TiW/Hpij55fHjcjPsVe4dvpEvALn1TnHut/5z9jNkWvZ9DvgXviv2W2+7RLfd0lb5oV/3+zxozY0MZ2A7voS1m0UPut3PY09e4b6YLV+Mp4Nn7jY6WH4tvz/vP0N3n6dFrctzjW/Du9nvLij0DfWiTOeX2s9vzxWt2B7Cnx4Y2bUrfw6/WdxWPDWzYUIb85CNmnX8seXxX+fkDD5ldly6ZS7ZdD2XHHtqV7LvqDAAEuBIBrkSAKxHgSgS4EgGuRIArEeBKBLgSAa5EgCsR4EoEuBJh3qTGAwAhb69seNwVDgAO9W5y+BeY16u8Iq9Xfou9ZvnKvIvSlXj9Uri7K4W7fumt9e4qVuhVhd8w113F6rxefgXeTeFKvByv1j3a3XTx4sWOVQ0ABLgSAa5EgCsR4EoEuBIBrkSAKxHgSgS4EgGuRIArEeBKBLgSQd60RgMAAe+qGgCKlXwawV0Vwd0pgrsqgrtTBHdVBHenCO6qCO5OMeCdI7jLlW/HE9xVEdydCsGuWyvcu8xDbgB4KT6eRpBXdeHCBazTAECAKxHgSgS4EgGuRIArEeBKBLgSAa5EgCsR4EoEuBIBrkSAKxHiSl0PAIS7r2oAINBdBHdVBHenCO6qCO5OEdxVEdydIrirIrg71Yp4dQR3WuvteBfBXRXB3SmCu6oC7H9NB4AXy4jHEehVnT9/vlS7AYAAVyLAlQhwJQJciQBXIsCVCHAlAlyJAFciwJUIcCUCXIkAVyLAlf7H//gf3Q0ABHtY1QBAkIcR3FUR3J0iuKsiuDtFcFdFcHeK4K6K4O5UCHbdCO5OEdxVEdydIrirIrg7FaNep3PnziXRAECAKxHgSgS4EgGuRIArEeBKBLgSAa5EgCsR4EoEuBIBrkSAKxHgSg7/rgYAQj2uagDo168f91kOAAS4EgGuRIArEeBKBLgSAa5EgCsR4EoEuBIBrkSAKxHgSgS4kse/9gBAoFOdBoAwf7Hr169fuT7+WgS4EgGuRIArEeBKBLgSAa5EgCsR4EoEuBIBrhTiX2sAIMDbVWcAeOqpp/DC169fv/+CiDeNAFciwJUIcCUCXIkAVyLAlQhwJQJciQBXIsCVCHAlAlyJAFeK8a8cAAjwTlUNAA7/Xnbs2LGedvTo0Z525MiRnvbkk0/2tMOHD/e0J554oqcdOnSopx08eLCn+dv1vYoQbxoBrkSAKxHgSgS4EgGuRIArEeBKBLgSAa5EgCsR4EoEuBIBrkT4u9oOAAR4VZ0GAAJciQBXIsCVCHAlAlyJAFciwJUIcCUCXIkAVyLElQjxphHgSgS4EgGuRIArEeBKBLgSAa5EgCsR4EoEuBIBrkSAKxH8PhwACPA6tRsACHAlAlyJAFciwJUIcCUCXIkAVyLAlQhwJQJciQBXIsSbRoArEeBKBLgSAa5EgCsR4EoEuBIBrkSAKxHgSgS4EgGuROiHtQwABHjdaAAgwJUIcCUCXIkAVyLAlQhwJQJciQBXIsCVCHAlAlyJEG8aAa5EgCsR4EoEuBIBrkSAKxHgSgS4EgGuRIArEeBKBLgSgR9XGgBivLstHgBCuOlfferXr2mEfRwBrkSAKxHgSoR40whwJQJciQBXIsCVCHAlAlyJAFciwJUIcCUCXIkAVyLAlQh7Kh8AQribFg4AIf5+APj000/NgwcPKvvkk08q+/jjj2v10UcfVfbhhx9Wdv/+/co++OCDWr3//vuV+V+d3Kni1yS3z//+hariH9NM0U9xjKMf8BRHP9CJoh/k5KozABDgSgS4EgGuRIgrEeJNI8CVCHAlAlyJAFciwJUIcCUCXIkAVyLAlQhwJQJciaBvVzIAhIgr+QEgxt8PAN0A7yLQ4wj0OAI9jkCnCPQ4Aj2OQI8j0CkCPY5AjyPQ4wh0ikCPI9zj6CczVg0ABLgSAa5EgCsR4EqEeNMIcCUCXIkAVyLAlQhwJQJciQBXIsCVCHAlAlyJAFci5Ds1ECOu5AYAwt/lLtqfJ/AuAj2OQI8j0OMIdIpAjyPQ4wj0OAKdItDjCPQ4Aj2OgKfCH7XcaQAgwJUIcCUCXIkAVyLEm0aAKxHgSgS4EgGuRIArEeBKBLgSAa5EgCsR4EoEuBIBX9XfdADwqH/t4V/Vzv064LrIE+hxBHocgU4R6HEEehyBHkegUwR6HIEeR6DHEegUgR4XAt8u/3sT3P+X/A/O6ePfuwjxphHgSgS4EgGuRIArEeBKBLgSAa5EgCsR4EoEuBIBrkS416lnA4BDvmoA8Ct2B/vJu++ZE7fvmSdv3TF7r98yv1y7bnZeWjM/PnfJTL51znzrtbfMV5deSwaAAvhD5nsD681jr1nMX3vMrPfbwXECnSLQ4wj0OAI9jkCnWkFfNjtGBuxfa9bIDrMMoMcR6HEEOkWgxxHocQR6XPjLkTpFAwABrkSAKxHgSgS4EiGuRIg3jQBXIsCVCHAlAlyJAFciwJUIcCUCXIkAVyLAlQj2uvVkAPDIVw0AHnI3ALxw913z9O279iUPsKGVN8wXF1eSAaBYwafQP/qHGPSDLccJ9DgCPY5Apwj0uFbgW8shX95uRuzf58RcgLs9tt3uE+gUgR5HoMcR6HEEetFeMzYwbLaerod88VsPZ+zrhsyWxfJvQowHAAJciQBXIsCVCHAlAlyJEG8aAa5EgCsR4EoEuBIBrkSAKxHgSgS4EgGuRIArEerdJA8AIfJW7tJ+mLtoe8jdAPDcnXvmiZt3Eux/fvWambp01fzoLxfNd9/8s/nGq2+aL7/yqhl88UwyABD0ZcwPmo32+M5Xw2N/58B36M6dJbPdrvwn9jPsPgI9jkCPI9DjGPbWCPTr17MBYDHdDzFvV/orjGfMqBsAFsq/1jgcAAhwJQJciQBXIsCVCHAlQrxpBLgSAa5EgCsR4EoEuBIBrkSAKxHgSgS4EgGuRKB3mzQAxMh3MwAcvXXHzF6/lQwAj11eMz85dznZ9n3h5WUz+PzLyQDA0Gfbqw7yA+n2gZ1mvbtVblu/czVAftVMB7fSN86nqM9vLI4NTM5nkM+byYERMz0/nazA3WOT8++alemR/LkjO5YL1Jd35M8bGJg0cwnic2bCvsfEhHvNRHJsbsI/xzYxlyK+f8IMjGw3S/H2klv9T5hZAN03G77f+GyG+awZt9BOzU6Z4eyx8dlb5sy24fy5w9vOFLCf2ZY/b2Bg3OxNEE+xHhtzrxlLju0d88+xje1NUd87ZgaGt5rFePv6otkyVDx/zF6Ixvxrk9fPJMDPjAbHRmdK4I+ODhWP5c/ZY9bW1pI+qwGAAFciwJUIcCUCXIkQbxoBrkSAKxHgSgS4EgGuRIArEeBKBLgSAa5EgCsR5k1qPAAQ8vZKjcdd7qLtV/JuAJi/cdv8+toN+5IH5uELV8wP376QbPsGXzhtBp95IRkAihV7Bn2Ivt1+7715u22RGJk2q27FvurwtoivOuhT/EemV0qr9XIp+juWHepzdtu91w6z7ICfm7RfT4B+sp+i7qHfvpyt3ucmzMj25ey4fc32pZZV+507+9PXLNkV/KxFf3jKLDnUw+0lC3i2Ha/WW0vR33bGob7PbtuvfXibOeOA3zeefO0e/RsO6gz18LZ8snq3jw1vPZ2t1u1rti6m0JdKX5Pckp+x7zW0xSy6FXu8nSFfrNp5Je9aW9uTPLZ5weHutgfM0OaFDPv0sU2nrpqrV4s+iwGAAFciwJUIcCUCXIkQVyLEm0aAKxHgSgS4EgGuRIArEeBKBLgSAa5EgCsR5E1rNAAQ8C6rS9vcRduv5N0AsPvaTfOzq9fsQw/yW//fXH3TfMXd+n/prBl89iUzeOTZZAAobsU76D3s5e1k1b5SoD4/ma7c311xw8Ckmc+O5yv3APe0YgAooR4j7/ct4OlK3b8+a2J/jvzUUrBqd8Dnz7Or9OCxFtTPuhX8uJkNjuWrdl+Gu38/NwC0oN5u392KX9warP6zktV9gLwD3aOeP6/4TD7GPGlhixmyzxvaspDsh5CnyGftGS29Z4r842ZDCfzy/pUrV5J6PQAQ4EoEuBIBrkSAKxHgSoR40whwJQJciQBXIsCVCHAlAlyJAFciwJUIcCVCXKnrAYDg99krOR53uYu2X8m7AeAXa9fN9KU1+5Ji1R82eOx5M3joqdIAkN+eT6Dn7RT39LvnJ+fsdnKLftLMBfAnkCffZOdX8stm+4hHPgA+WrG37NsBYBhv1c/a5xTIl0E/a6aG7WNnC9xbgT9jtg0PmPF94bHgc/jTDm+/kj9tttr3S5EPgA9W7LR/bdFBPWZmPPJ5xTfeFaCPmpkE+AWzZai8ks9Bj1rYnN7GH93j9veUYT+1yb7nBvN4gvwps8m+p3vsypXd6fNOptC37l8xly9f7ukAQIArEeBKBLgSAa5EgCsR4k0jwJUIcCUCXIkAVyLAlQhwJQJciQBXIsCVCHCl//7f/3t3AwDBHmav+Hjc5S7aHnI3ADxq8Xef+3//rfPm26//yQz//g3zpcUVM/i7V8zg8RfN4OHjZvA3R5IBoP2t+vJte3+bvhV3dzve3Zp3+1lz8WfuHvky+DHm5X23PWCGp86WMM8/i/fIz9rVur8tn3zunt2yd6v48Ha93T7tkU9u1w+Ysb3Zfgb/Vrtf+sw9Wcl75APgI8xb991t+WKlXhTdrp+xK/WhzWbBwb6w2cKdreTdCt4fT7Y3mVMJ6EWnNg2ZoU2n7Ha2kveQ796QPP+k2z7phgH/mAN/nXnk5OUE+suXd0X7ab0aAAhwJQJciQBXIsCVCHAlQrxpBLgSAa5EgCsR4EoEuBIBrkSAKxHgSgS4EgGu5PDvagAg1OOqBgAPuRsAfnr+svnB2+fNd95423x95Y/pd/27W/8nTpnBoyfM4MFjZnDucDIA+JV7iP7d0q35dDv9prv0trL71+fKn7v7283+u+vT77RPjg1PmAm3Ks9RL4NfwjzGPVndF+89ML7PrtbdZ/H+c3lXuqJP/6wxM+ZX7BnkCfrBdv6Ze3ybnr7Rbsi+n1uVZ6jH4Jc/e4/2s9v1+fsn32gX365fMJvzP2uD2ZCt1q8+niKeoJ9tJ6A73PP33GB2Zyv33RuyYxt2W8RPmkfWZfvr7Huu88gX4F+6dClp10PZ8x7alR/rxQBAgCsR4EoEuBIBrkSAKxHiSoR40whwJQJciQBXIsCVCHAlAlyJAFciwJUIcCWPf+0BgECn7JUaj7v8AOAgd6h3U2nlHlQA377itnz7ipV758Lb8e3KV+sdyoHvUHFLvnPFyr198e15Kly5t8vfhq8qXK23y2PeqYsXL2LqAECAKxHgSgS4EgGuRIArEeBKhHjTCHAlAlyJAFciwJUIcCUCXIkAVyLAlQhwpRD/WgMAYd6uqgGgWMnX/ffhGfUwAp0i0OMI9DgCPY5Apwj0OAI9jkCPI9ApAj2OQI8j0OMId+rChQullAGAAFciwJUIcCUCXIkAVyLAlQjxphHgSgS4EgGuRIArEeBKBLgSAa5EgCsR4Eox/pUDAEHeqaoBoAnwLgI9jkCPI9DjCHSKQI8j0OMI9DgCnSLQ4wj0OAI9jkCnCPS4GHjq/PnzeU0HAAJciQBXIsCVCHAlAlyJAFcixJtGgCsR4EoEuBIBrkSAKxHgSgS4EgGuRIArEf6utgMAIV5V1QBAuLsI9DgCPY5Apwj0OAI9jkCPI9ApAj2OQI8j0OMIdIpAjyPQ4wj0uBD4Tp07d67RAECAKxHgSgS4EgGuRIArEeBKhLgSId40AlyJAFciwJUIcCUCXIkAVyLAlQhwJYLfhwMAAV6ndgPAsWPHkot2v369qpsBgABXIsCVCHAlAlyJAFciwJUIcCVCvGkEuBIBrkSAKxHgSgS4EgGuRIArEeBKhH5YywBAgNeNBgCHf5y/ePfrp0bghxHgSgS4EgGuRIArEeBKBLgSAa5EiDeNAFciwJUIcCUCXIkAVyLAlQhwJQJcicCPKw0AMd7dFg8AhL+LLuT9+jWJ0PcR4EoEuBIBrkSAKxHgSgS4EgGuRIg3jQBXIsCVCHAlAlyJAFciwJUIcCUCXImwp/IBIIS7aeEAQPArHT16tKcdOXKkpz355JM97fDhwz3tiSee6Gn+9/D3KgJciQBXIsCVCHAlAlyJAFciwJUIcCVCXIkQbxoBrkSAKxHgSgS4EgGuRIArEeBKBH27kgEgRFzJDwAEuBIBrkSAKxHgSgS4EgGuRIArEeBKBLgSAa5EgCsR4EoEuBIBrkSAKxHgSoR40whwJQJciQBXIsCVCHAlAlyJAFci5Ds1ECOu5AYAAlyJAFciwJUIcCUCXIkAVyLAlQhwJQJciQBXIsCVCHAlAlyJAFciwJUIcCVCvGkEuBIBrkSAKxHgSgS4EgGuRIArEfBV/V0PAAS4EgGuRIArEeBKBLgSAa5EgCsR4EoEuBIBrkSAKxHgSgS4EgGuRIArEeJNI8CVCHAlAlyJAFciwJUIcCUCXIlwr1PPBgAHdqcBgP5Vrn79mtbHnxFvGgGuRIArEeBKBLgSIa5EiDeNAFciwJUIcCUCXIkAVyLAlQj2uvVkAPDIVw0An376KfbgwYPKPvnkk8o+/vjjWn300UeVffjhh5Xdv3+/sg8++KBW77//fmX+1yl3yv/GxU4Vv12xc+GPbm5X/NMdKfrhT3H0w58o9wOf4gGAAFciwJUIcCUCXIkAVyLAlQhwJQJciQBXIsSbRoArEeBKBLgSAa5EgCsR4EqEejfJA0CIfDcDACEfR8hThHwcIR9HyMcR8hQhH0fIxxHycYQ8RcjHEfJxhHwcIU8R8nHxT3wMBwACXIkAVyLAlQhwJQJciQBXIsCVCHAlAlyJEG8aAa5EgCsR4EoEuBIBrkSAKxHo3SYNADHyVQMAIR9HwFOEfBwhH0fIxxHwFCEfR8jHEfJxBDxFyMcR8nGEfBwBTxHycTH6YX4AIMCVCHAlAlyJAFciwJUIcCUCXIkAVyLAlQjxphHgSgS4EgGuRIArEeBKBLgSYd6kxgMAIV93APjaw7+qnft1wJ8H+i5CPo6QjyPk4wh5ipCPI+TjCPk4Qp4i5OMI+TjCPs79Lgf3/yX/g4AI8iYR4EoEuBIBrkSAKxHgSgS4EgGuRIArEeJKhHjTCHAlAlyJAFciwJUIcCWCvGmNBgAC3tXNAHDy7nvmxO175slbd8ze67fML9eum52X1syPz10yk2+dM9967S3z1aXXkgGgAP6w+aeB/9n8H2/Y7Tf+D/M/Z9sfffREevx1Bt9HyMcR8nGEfBwhTxHyRatm5/oB+9eaNTJtVgH8XqLvIuTjCPk4Qj6OkKfCX+bU6wGAAFciwJUIcCUCXIkAVyLAlQhwJQJciQBXIsSbRoArEeBKBLgSAa5EgCsR4kpdDwCEu6/OAOBW8m4AeOHuu+bp23ftSx5gQytvmC8urrQdAMq4tx8ACPk4Qj6OkI8j4CnGvtx7q9NmxP59bpwPoLfHpoN9Qj6OgKcI+ThCPo6Qv3171kwMDJuppXSfgKdC9MN6OQAQ4EoEuBIBrkSAKxHgSgS4EgGuRIArEeBKhHjTCHAlAlyJAFciwJUIcCUCXOm//bf/1t0AQLCHWbnxuMtdtP2tfDcAPHfnnnni5p0E+59fvWamLl01P/rLRfPdN/9svvHqm+bLr7xqBl88wwNAC/TlAYCQjyPk4wh5ipCPI+TjcujfWzXTIxH+WYQ8RcjHEfJxhHxcK/hx2QBwlqEPI/DjejUAEOBKBLgSAa5EgCsR4EoEuBIBrkSAKxHgSoR40whwJQJciQBXIsCVCHAlAlzJ4f+5DgBHb90xs9dvJQPAY5fXzE/OXU62fV94edkMPv9yMgAw9PH2evPYocfMener3Lb+sdcD8F83jwW30r93KAX+0PeKYwPfO5Shf9B8z77Xowcfzd/rewc/MH94dH3+3PWP/qHA/dWd+fMGBjaag8nxg2ajfY+NG91rNpoDFvcDG/1zbBsPpOgf2Fjc1p8PtpPV/0Yz3wH9+cng/Sbnk2P37s2ZyYERs2NuR3L3wD02OXfPLO8YyZ87sn25AH55e/68gYEJM5ccn7NYj5iJCfeaCbPfAr9/wj/HNrE/RX92wgwMT5klB3y4fXvJTA0Xzx+3F/Zx/1rX+GyK/dkpMxwcH9/ngd9nnz9stu3blj8+vO2MuXHjRl4vBgACXIkAVyLAlQhwJQJciQBXIsCVCHAlAlyJEFcixJtGgCsR4EoEuBIBrkSAK3n8uxoACPU4e7XG4654AJi/cdv8+toN+5IH5uELV8wP376QbPsGXzhtBp95oWIAsOi/7oA/ZLctFusfM6878F93g0D62P37ryX4r3/stXxl39qhFP0/uBW9GwDcez1q/uBW+Ae/Z7+eAP2DFuoI+p2vZsOAfWz9zlWL+wF73L4m2Y5X+u6xETO9GqEfDwB2eyVCn8rRX3arerdtv/aRHWbZrfLnJpOvPUd/zkIdQb99OR0G7uyfsM9bsrjvt8fda9x2vNp3j2W38tsNAG7bI5/nhoDwDkA6FOTon3HYW/TP+AHA/ncY3mZOO/BPb00e23q6dwMAAa5EgCsR4EoEuBIBrkSAKxHgSgS4EgGuRIArEeJNI8CVCHAlAlyJAFciwJVC/GsPAAQ6ZXXB4y530fa38t0AsPvaTfOzq9fsSx7kt/6/ufqm+Yq79f/SWTP47Etm8MizMACE6NN2mlvdJyv919ww8D1zCOD3uKeFA4Dfdrf3I+TD/dLqPytZ3Tvk7XNWA/jdaj9/XjYAZCv8sAT2FXcHYNLMR9j7klv4Ge7+/YoBIN1OV/ll5Ev7pdV/VrK6d8jb5ywV8Ceo588rPssPy7HPVvbDU2eLY9kAkALvwR83+5IVf9q+cT8Q7DNjEfh7xwbM2N7eDAAEuBIBrkSAKxHgSgS4EgGuRIArEeBKBLgSAa5EiDeNAFciwJUIcCUCXIkAV4rxrzUAEObtsjrgcVc8APxi7bqZvrRmX1Ks+sMGjz1vBg89lQwAxa38duhn26953NNVPw0A+Wf3f3C3+L9nDib7fzCPri8GgLbgh/sO91U3AKS3+FtX+elzEthLt/Td5/vlAaAV+ZXkewAm54tjpc/vl90t/kkzl+wvmx32/VL0O4Af7jvcl9wAkN7ib13ljxTILznQJ8xsAr27vV/vm/nOTg3b/x0L1KsGgAL5vdEAcNpsHU4fu379elLTAYAAVyLAlQhwJQJciQBXIsCVCHAlAlyJAFciwJUI8aYR4EoEuBIBrkSAKxHgSoS/q+MAQJB3yl7x8bgrHgAetfi7z/2//9Z58+3X/2SGf/+G+dLiihn83Stm8PiLZvDwcTP4myPVA0CCvruFH9zmL6H/msU9vYWf4+9yq39/mz8ZBjzynQeA8uqeb/W/9968PR4g3/L5vn1sxcI+b1fx/lZ/uO337Xu7z/BD+He4fbf697f5k2HAI99+AAhxT1f3rbf609V8+Tv2S7f3k2Egu5U/O54cP+vAD7ezHOpntg0nn9+3DADZbf58VZ/c5h8zexPw3QAwYIa3nk4eu76YPZbh33QAIMCVCHAlAlyJAFciwJUIcCUCXIkAVyLAlQhwJUJciRBvGgGuRIArEeBKBLgSwe9rOwAQ4lVVDQD+Vr4bAH56/rL5wdvnzXfeeNt8feWP6Xf9u1v/J06ZwaMnzODBY2Zw7jAPADn65e3vfa/4Rj33jXsF+Nnn+qXH3Ko/O7Z+o9m4vmIAyG/nR7f3k7sAxXsPbJxvHQCy7+pPHh+ZNJPuDkCHAaC80g/e26NvV/3b8/ebMBP2/WgAaL2dH+0vbbe4Bu8/Mds6AITf1Dc8bsbdHYA2A8AZh/s+u52/Z7HKd7f4k2NjewP0/fPCFX96B2BsLL2D4BrbW+DfZAAgwJUIcCUCXIkAVyLAlQhwJQJciQBXIsCVCHAlAlyJEG8aAa5EgCsR4EoEuBKhH4YDAAFeJ3u1xuPuV/GGA4BDvZsc/v5z+06VVvgdSmHvXLiib5e/hd+p4rZ+53L0O5Su6jvnV/OdSmGvLryl3y5/C79TKeydK4DPPgJYLKPvu3btWlcDAAGuRIArEeBKBLgSAa5EgCsR4EoEuBIBrkSAKxHgSoR40whwJQJciQBXIsCVCPy4lgGAAK8bDQD+d/GHA4CrWNW3j5CnCPk4Qj6OkI8j5ClCPo6QjyPk4wh5ipCPI+TjCPk4Qp5qRb51AHDoh9UdAAhwJQJciQBXIsCVCHAlAlyJAFciwJUIcCUCXIkAVyLEm0aAKxHgSgS4EgGuRNhTpQEgxrvb4gHA4+8HAEI+joCnCPk4Qj6OkI8j4ClCPo6QjyPk4wh4ipCPI+TjCPk4Ap4qgx+XDgBbFsvoh9UZAAhwJQJciQBXIsCVCHAlAlyJAFciwJUIcCUCXIkAVyLElQjxphHgSgS4EgGuRNC3Kx8AQribFg4AIf51BgBCPo6QjyPk4wh5ipCPI+TjCPk4Qp4i5OMI+ThCPo6Qpwj5OMa+HGEf984771QOAAS4EgGuRIArEeBKBLgSAa5EgCsR4EoEuBIBrkSAKxHgSoR40whwJQJciQBXIuQ7lQwAIeJKfgCI8W83ABDycSHu7j36/fvN4V81ABDgSgS4EgGuRIArEeBKBLgSAa5EgCsR4EoEuBIBrkSAKxHiTSPAlQhwJQJciYCvaiBGXMkNAIS/y120/9YrfRet7ONoZR9HK/s4WtlTtLKPo5V9HK3s42hlT9HKPo5W9nG0so+jlT3lwY9rNwAQ4EoEuBIBrkSAKxHgSgS4EgGuRIArEeBKBLgSAa5EgCsR4k0jwJUIcCUCXIlwr9PfdAAg7H2EPEXIxxHycYR8HCFPEfJxhHwcIR9HyFOEfBwhH0fIxxHyFCEfR+DH0QBAgCsR4EoEuBIBrkSAKxHgSgS4EgGuRIArEeBKBLgSAa5EiCsR4k0jwJUIcCWCvW49GwAc8t0OAAQ8RcjHEfJxhHwcAU8R8nGEfBwhH0fAU4R8HCEfR8jHEfAUIR9HyMetra3lxQMAAa5EgCsR4EoEuBIBrkSAKxHgSgS4EgGuRIArEeBKBLgSAa5EiDeNAFciwJUI9W7qyQDgka87ABDycYR8HCEfR8hThHwcIR9HyMcR8hQhH0fIxxHycYQ8RcjHEfJxhHxciH5YOAAQ4EoEuBIBrkSAKxHgSgS4EgGuRIArEeBKBLgSAa5EgCsR4EqEeNMIcCUCXIlA7zZ5AAiRrxoACPowQj6OkKeSH78b/EpdKoV9PvkFOslP5kt+CU+23Sv0g9/Al8K+VPwUP9vE/gD9/cUv3RmeWkqAX8p+pn65cTML0IcR8hQhH0fIxxHycYQ8ReiHfVYDAAGuRIArEeBKBLgSAa5EgCsR4EoEuBIBrkSAKxHgSgS4EiHeNAJciQBXIsybJA0AMfJWppZjvnYDACEfR8BTKezZj93duNFshAHAw14UDADZMUI+DrEvlf243okJM1H6pTvu4pttZ7+QJ/1FO+GP4I1/HG+x0ne/ZKf8m/b+faDvunr1atJnMQAQ4EoEuBIBrkSAKxHgSgS4EgGuRIArEeBKBLgSAa5EgCsR4kqEeNMIcCWCvGmNBwBCvu4AQMhThHxciHs59/P40wGgDH5cOgCkv063Osa+XL6iz8AvDwBpKewO+mwAcL9ox//SHdvsxIAZn42Rd79Wt3X1T8jHEfJxhHwcIU8R8nGEfJxHP6zXAwABrkSAKxHgSgS4EgGuRIArEeBKBLgSAa5EgCsR4EoEuBIBrkSIN40AVyLElRoNAAS8yw0A7XIXbUI+jpCPY/DLpbC3/536vvB36OP2jvS38rlGti8X0Jd+nz79Wl1fMQD41Xye+017yS/gcfvFr9ptB737pTt+9U/IxxHycYQ8RcjHEfJxhHwcoR/WywGAAFciwJUIcCUCXIkAVyLAlQhwJQJciQBXIsCVCHAlAlyJAFcixJtGgCsR4Er/9b/+1+4HAIK/Tp0GAEI+jpCPK+PefgAor+p5ALib/GY9dwt/LgU/+Cw/fSz4rXr7J0q/VjestMrPyj/Xz/HPbvGfdb9uNx0qWlf/Z802OyAUv1KXI+TjCHiKkI8j5OMI+TiCnrpy5UrPBgACXIkAVyLAlQhwJQJciQBXIsCVCHAlAlyJAFciwJUIcCUCXIkQbxoBrkSAKzn8ux4ACPa6xQMAIR9HyFMx8GnlAaCMfliMPv9q3XzfoZ98du9X/1kT+yP4PfitA4Av+TW67rN+9+t1Hf7B79SfHU+HgBz3M9vM8Pi+EvY+Qp4i5OMI+ThCPo6Qpwj5OId+WC8GAAJciQBXIsCVCHAlAlyJAFciwJUIcCUCXIkAVyLAlQhwJQJciRBXIsSbRoArefy7GgAI9W5yF21CPo6Ap1rBj0sHgDlEv+huW/SL7RT14HfpZ9+8x5/rx5UHgPKqvoA+/Oa+BHb3e/UD8M9sGzbj+/79oh+mDgAEuBIBrkSAKxHgSgS4EgGuRIArEeBKBLgSAa5EgCsR4EoEuBIBrkSIN40AVwrxrz0AEOjdVjUAEPJxDH25Ane3sg8HgHCl71f17dHPt/1t/nAASLbd9wSk/6pe56LP891F1G8nn/WndwAS8Ie3mTMZ8PvsYDC87UwG/pn89j8hH0fIxxHycYQ8RcjHEfJxhH3c5cuXpQGAAFciwJUIcCUCXIkAVyLAlQhwJQJciQBXIsCVCHAlAlyJAFciwJUI8aYR4Eox/rUGAMK8STQAEPJxhHxcgX5Y6wBQ4B7WDv0Q/PJ+Arv7rv3SRwDF5/kuv8Jv+Ya+4HN+V7iqd6v8/P2C1f+NG+5X5I6ZvQHycYR8HCFPEfJxhHwcIR9HyFMOfl/TAYAAVyLAlQhwJQJciQBXIsCVCHAlAlyJAFciwJUIcCUCXIkAVyLAlQjxphHgSoS/q+MAQJA3zQ8AhHwcIR/XCj5Xxp4Lb+O3K8S9XQX6nfOwd4qQjyPk4wh4ipCPI+TjCPk4Ap4K0Q9rMgAQ4EoEuBIBrkSAKxHgSgS4EgGuRIArEeBKBLgSAa5EgCsR4EoEuBIhrkSIN43g97UdAAhxJXfRJux9hDxFyMcR8nGEfBwhTxHycYR8HCEfR8hThHwcIR9HyMcR8hQhH0fgx3U7ABDgSgS4EgGuRIArEeBKBLgSAa5EgCsR4EoEuBIBrkSAKxHgSgS4EgGuRIg3jdAPwwGAAFc6cuQIDgAEPEXIxxHycYR8HAFPEfJxhHwcIR9HwFOEfBwhH0fIxxHwFCEfR8jHXbp0Ka+bAYAAVyLAlQhwJQJciQBXIsCVCHAlAlyJAFciwJUIcCUCXIkAVyLAlQhwJUK8aQR+XMsAQIArOfzjAYCQjyPk4wj5OEKeIuTjCPk4Qj6OkKcI+ThCPo6QjyPkKUI+jpCPI+TjQvTD6g4ABLgSAa5EgCsR4EoEuBIBrkSAKxHgSgS4EgGuRIArEeBKBLgSAa5EgCsR4k0j7KnSAECAK3n8/QBA0IcR8nGEPEXIxxHycYR8HCFPEfJxhHwcIR9HyFOEfBwhH0fIxxHyFKEfVmcAIMCVCHAlAlyJAFciwJUIcCUCXIkAVyLAlQhwJQJciQBXIsCVCHAlAlyJEFci7Kl8ACDAlUL8Ow0AhHwcAU8R8nGEfBwhH0fAU4R8HCEfR8jHEfAUIR9HyMcR8nEEPEXQx128eDGpagAgwJUIcCUCXIkAVyLAlQhwJQJciQBXIsCVCHAlAlyJAFciwJUIcCUCXIkAVyLo25UMAAS4Uox/PAAQ8hQhH0fI758o/jW76n9XP/vNe/6n8fltQN9FyMeVgN87Zr+O8F/hO222Dhdf39jeAPrkuenx4a2LBe4zxfGhLcHxLEI+jpCPI+TjCHmKkI8j5OM8+mGdBgACXIkAVyLAlQhwJQJciQBXIsCVCHAlAlyJAFciwJUIcCUCXIkAVyLAlQhwJUK+UwMEuBLh73IX7Rh4ipCPI/Tzlrab7fv9Sj/DPfi1unHhD+Mh8F2EfFwJ/RD6sbH83+FPoXcXsgz8xa124LCPRdvXrs3Y1wyZLYsOeLc9ZmYS7IvjhHwcIR9HyFOEfBwhH0fIxxH6Ye0GAAJciQBXIsCVCHAlAlyJAFciwJUIcCUCXIkAVyLAlQhwJQJciQBXIsCVCHAlAr6qng4ABL+v0wBAyMch9lGtwBe/YS88XgaeBwBCPq4V/dYc+MkAkOAfVzy2uGWotLrP993qf2wmOeZQX0iOL7Rg7yPk4wh4ipCPI+TjCPk4gp66cOECDgAEuBIBrkSAKxHgSgS4EgGuRIArEeBKBLgSAa5EgCsR4EoEuBIBrkSAKxHgSoR7nXo2ABD6YfEAQMjHEfJUiHu54ufwh7iXC34c7819yXb6G/ey7W3uF/Zkt+W3nSlwP+1W7Onx8i1+D38r8mX87Uo/wL3dANAC/syoGRid6Rp9FyEfR8jHEfJxhDxFyMc59MPiAYAAVyLAlQhwJQJciQBXIsCVCHAlAlyJAFciwJUIcCUCXIkAVyLAlQhwJQJciWCvW08GAAI/zl20Cfk4Ap5i8Mu5X7Tjf8FOuxD9fNviPr4vRb30Wb5DfdhsPZ2Bbx8b3nq6Bfi08gDgcU8Ghwz/pORz/vRW/zvvLJgtQ+7z/oW2AwABTxHycYR8HCEfR8BThHxcjH5YOAAQ4EoEuBIBrkSAKxHgSgS4EgGuRIArEeBKBLgSAa5EgCsR4EoEuBIBrkSAKxHq3SQPAIQ9VTUAEPJxhHxcCvtZMzXcHv/yrfz2A0AJ+RD90uo/a2xvBL8vHQDSz/CjEvSLz/Qd9un7DZnR0RT+eABY2+MGgD2IvY+QjyPk4wh5ipCPI+TjCPu48+fPf2YDAAGuRIArEeBKBLgSAa5EgCsR4EoEuBIBrkSAKxHgSgS4EgGuRIArEeBKBHq3SQMAQd8uGgAI+ThCPq4MvMOfv6mvDL+vHfrRKj/YL33zXpsK6MNv4mttZnTAjM4Ut/N9+fFkxV+Av7DZDgSbF0rguwj5OEKeIuTjCPk4Qj6OkKcc/L7PYgAgwJUIcCUCXIkAVyLAlQhwJQJciQBXIsCVCHAlAlyJAFciwJUIcCUCXIkwb1LjAYCQ75QfAAj5OEI+LsY9b9b9Hv3ZfJ+hD2uHfnkASFfydn/RAe+2039Vj9EPiwYAd0HKoZ8xo+4OwEIBf5JDf2izWXC4L2w2QwOjZk8C/Z7k+ZsX/v2hH9brAYAAVyLAlQhwJQJciQBXIsCVCHAlAlyJAFciwJUIcCUCXIkAVyLAlQhwJYK8aY0GAAK+KnfRJux9hDxVwh46OxX8St2s9PfqlweAdFXfCf0QfI9+sJ/cBQj+nPDz/FLZAOBxX9hiQS9eV6z+3TDgj3vws9xt/+yxDY8z9HGEfBwhH0fIxxHyFCEfR+DH9XIAIMCVCHAlAlyJAFciwJUIcCUCXIkAVyLAlQhwJQJciQBXIsCVCHAlAlyJEFfqegAg3OtEAwABTxH0ceVVPVeg375wRd8pxr5caVXfphz5DhHwFCEfR8jHEfJxBDxFyMcR8nHnzp3L69UAQIArEeBKBLgSAa5EgCsR4EoEuBIBrkSAKxHgSgS4EgGuRIArEeBKBLgSAa70q1/9qrsBgGCvWzgAEPJxhHwcIR9HyFOEfBwhH0fIxxHyFCEfR8jHEfJxhDxFyMcR8nGEfFyIflgvBgACXIkAVyLAlQhwJQJciQBXIsCVCHAlAlyJAFciwJUIcCUCXIkAVyLAlQhwJYd/VwMAod5N7qJN0IcR8nGEPEXIxxHycYR8HCFPEfJxhHwcIR9HyFOEfBwhH0fIxxHyFKEfpg4ABLgSAa5EgCsR4EoEuBIBrkSAKxHgSgS4EgGuRIArEeBKBLgSAa5EgCsR4Eoe/9oDAIHebe0GAEI+joCnCPk4Qj6OkI8j4ClCPo6QjyPk4wh4ipCPI+TjCPk4Ap4i6OP+8pe/JCkDAAGuRIArEeBKBLgSAa5EgCsR4EoEuBIBrkSAKxHgSgS4EgGuRIArEeBKBLhSiH+tAYAwb5K7aPfr16uaDAAEuBIBrkSAKxHgSgS4EgGuRIArEeBKBLgSAa5EgCsR4EoEuBIBrkSAKxHgSjH+lQMAQa705JNP9rTDhw/3tCeeeKKnHTp0qKcdPHiwpx04cKCn+Z/L36sI8aYR4EoEuBIBrkSAKxHgSgS4EgGuRIArEeBKBLgSAa5EgCsR4EoEuBIBrkSAKxH+rrYDAAGuRIArEeBKBLgSAa5EgCsR4EoEuBIhrkSIN40AVyLAlQhwJQJciQBXIsCVCHAlAlyJAFciwJUIcCUCXIkAVyLAlQhwJYI/7Vfm/w9GZWJxlx7ILAAAAABJRU5ErkJggg==;" vertex="1" parent="1">
          <mxGeometry x="40" y="-340" width="512" height="296" as="geometry" />
        </mxCell>
      </root>
    </mxGraphModel>
  </diagram>
</mxfile>
